<?xml version="1.0" encoding="utf-8"?>
<!-- Generator: Adobe Illustrator 18.1.0, SVG Export Plug-In . SVG Version: 6.00 Build 0)  -->
<svg version="1.1" id="Layer_1" xmlns="http://www.w3.org/2000/svg" xmlns:xlink="http://www.w3.org/1999/xlink" x="0px" y="0px"
	 viewBox="0 440 612 318" enable-background="new 0 440 612 318" xml:space="preserve">
<g id="fGV90b_1_">
	<g>
		<path d="M36.5,583.1c0-1.2-0.2-2.3-0.7-3.2c-0.9-2.5-1.4-5-2.3-7.6c-1.6-4.3-2.5-9-3.7-13.3c0-0.2-0.2-0.5-0.5-0.5
			c0.2-0.5,0.5-0.9,0.7-1.4c10.8,0,21.6,0,32.4,0.2c1.9,0.5,0.2,2.5,1.6,3.2c0.5,2.1,0.2,4.1,1.6,6c-0.2,2.1,0.7,3.7,1.2,5.5
			c0.5,2.3,1.2,4.3,1.9,6.6c0.7,2.3,1.4,4.8,2.1,7.1c0.2,0.7,0.2,1.4,0.5,2.1c1.2,2.8,1.2,6,2.6,8.7c-0.2,2.1,0.9,3.7,1.2,5.5
			c0.2,1.4,1.2,2.5,1.2,3.9c0,0.9,0.9,2.1,0.9,3c-0.2,1.4,0.9,2.3,1.2,3.7c0,0.5,0.5,0.7,0.5,1.2c0,2.1,0.7,3.7,0.9,5.5
			c0.2,2.5,1.4,4.8,1.9,7.3c0,0.5,0.5,0.7,0.7,1.2c2.3-3,3.2-6.6,4.1-10.1c2.3-7.1,4.6-14.2,7.1-21.3c0.7-2.1,1.4-4.1,2.1-6.4
			c0.7-2.1,1.2-4.1,2.1-6c-0.2-1.6,0.7-2.5,1.2-3.9s0.7-2.8,1.2-3.9c0.7-1.6,0.7-3.2,1.4-4.8c0.9-2.1,1.6-4.1,2.1-6.2
			c0.5-2.1,1.6-4.1,2.3-6.2c0.2-0.5,0.2-0.9,0.2-1.4c8.5-1.2,17-0.2,25.7-0.7c0,1.9,1.9,3.2,1.4,4.8c0.7,3.2,2.3,5.5,2.8,8.3
			c0.2,2.1,0.7,4.1,1.6,6c1.4,3,1.9,6.2,3.2,9.2c0.9,1.9,1.2,4.1,1.9,6.2c0.7,1.9,1.4,3.9,1.9,5.7c0.7,2.1,1.2,4.3,1.9,6.4
			c0.2,0.9,0.5,1.6,0.9,2.3c0,1.2,0,2.3,0.7,3.5c0.7,1.4,0.5,3,1.6,4.3c0.2,3,1.9,5.5,2.3,8.5c0.2,1.2,0.7,2.3,0.9,3.5
			c0,0.9,0.7,1.4,0.9,2.8c1.6-3,2.8-5.5,3.5-8.5c0.7-3,1.6-5.7,2.6-8.7c0.5-1.9,0.9-3.5,1.4-5.3c0.2-0.5,0.2-0.7,0.5-1.2
			c0.2-0.5,0.5-0.7,0.5-1.2c0-3.5,1.6-6.4,2.3-9.4c0.5-2.1,1.2-4.1,1.9-6.2c0.5-1.6,0.9-3,1.4-4.6c0-0.2,0.2-0.5,0.5-0.5
			c0.5-3,1.4-6,2.3-8.7c0.7-2.8,1.6-5.5,2.6-8.5c0.9-2.8,1.4-5.7,2.8-8.5c3.7,0,7.1,0,10.8,0c0.9,0,1.9-0.2,3-0.2
			c0.9,0,1.9,0.5,2.8,0.2c5.3-1.2,10.6,0,15.6-0.5c0.5,0.5,0.7,0.7,0.9,0.9c-0.7,2.1-1.6,4.1-2.3,6.4c-0.5,2.3-2.3,4.1-1.9,6.6
			c-1.2,1.4-1.2,3.2-1.9,4.6c-0.2,0.5-0.2,0.9-0.5,1.4c-0.7,1.4-1.4,3-1.6,4.6c-0.5,2.3-1.6,4.6-2.1,6.9c-0.5,2.3-1.6,4.1-2.1,6.4
			c-0.2,2.1-1.4,4.1-2.1,6.2c-0.7,1.9-0.9,3.9-1.9,5.7c-0.5,0.7-0.2,1.6-0.5,2.3c-1.2,3.2-2.3,6.6-3.5,9.9c-0.2,0.9-0.7,1.6-0.7,2.5
			c-0.7,2.5-1.6,5-2.3,7.6c-0.9,2.3-1.6,4.6-2.3,7.1c-0.7,2.3-1.6,4.6-2.3,7.1c-0.7,2.5-1.6,5-2.6,7.6c-0.9,2.3-1.6,4.8-2.6,7.3
			c-0.9,3-1.6,6-2.8,8.7c-1.2,2.5-1.6,5.5-3,8c-10.4,0-20.9,0-31.7-0.2c-0.5-1.2-1.2-2.5-1.6-4.1c-0.7-2.3-1.2-4.6-1.9-6.6
			c-1.4-4.3-3-8.5-3.7-12.8c-0.2-0.9-0.9-1.6-1.2-2.3c-1.2-4.1-2.1-8.5-3.9-12.4c0.2-1.6-0.7-3-1.2-4.6c-0.5-1.4-0.2-3.2-1.6-4.3
			c-0.7-4.6-2.6-9-3.9-13.3c-0.2-0.9-0.5-2.1-1.9-2.5c-0.7,1.6-1.4,3.2-1.9,4.8c-0.9,3-2.1,6.2-3.2,9.2c-1.2,3.7-2.3,7.3-3.7,11
			c-0.9,3-2.1,6-3.2,9c-0.7,1.9-1.2,4.1-2.1,6c-1.2,2.8-1.9,5.7-3,8.7c-0.7,1.9-1.4,3.9-2.1,5.7c-0.7,1.9-1.6,3.7-2.1,5.7
			c-0.5,1.6-1.4,2.8-2.3,3.7c-2.3-0.2-4.1-0.5-6.2-0.5c-7.3,0-14.7,0-22-0.2c-0.9,0-1.6,0-2.1,0c-1.9-1.2-1.6-3-1.9-4.3
			c-0.2-1.2-1.2-2.3-1.2-3.5c0-1.2-0.5-2.1-0.9-3.2c-0.7-3-1.9-6-2.6-9.2v-0.2c-1.4-2.3-1.4-5-2.3-7.6c-0.2-0.7-0.5-1.6-0.7-2.5
			c-0.2-0.7-0.2-1.6-0.7-2.1c-0.7-0.9-0.5-1.6-0.7-2.5c-0.2-0.7-0.9-1.4-0.9-2.1c0.2-2.3-1.4-3.9-1.2-6.2c-1.2-1.6-0.9-3.9-2.1-5.5
			c-0.5-3.9-2.3-7.1-2.8-11c-0.9-1.2-1.2-2.5-1.6-3.9c-0.9-3-1.6-6.2-2.8-9.2c-1.6-4.1-2.1-8.5-3.9-12.4
			C38.6,586.7,37.2,584.9,36.5,583.1z M189,566.8c0.5,0.2,0.9,0.5,1.4,0.7c0.9-0.7,1.9-1.4,2.6-1.9c0.2-2.1-0.7-3.5-1.4-5
			c-0.9,1.2-1.9,2.3-3,3.5c0.2,0.2,0.5,1.2,0.9,2.1c0,0-0.2,0.2-0.5,1.2c-0.7-1.2-1.2-2.3-2.6-2.8c-0.5,0.5-0.9,0.9-1.4,1.6
			c0,2.3,0,2.3,1.4,3.9c1.4,0.5,1.9-0.7,2.6-1.2C189.3,568.4,189.3,567.7,189,566.8z M183.7,573.7c-0.5-0.5-0.9-0.9-1.4-1.2
			c-0.7,0-1.4,0-1.9,0c-0.7,1.6-1.9,2.8-1.2,4.6c1.4,1.4,1.9,1.6,3.5,1.9c2.6-1.6,0.7-3.7,0.9-5.5c0.7,0,1.4,0,2.3,0
			c-0.5-1.4-0.7-2.8-1.2-4.1c-0.2-0.5-0.7-0.7-1.2-1.2c-0.2,0.5-0.5,0.9-0.7,1.4l-0.2-0.2c0,0.5,0,1.2,0,1.9
			c0.2,0.2,0.7,0.7,1.2,0.9C183.7,572.5,183.7,573,183.7,573.7z M111.1,623.5c-2.6-0.9-4.6,0.9-6.9,0.9c-0.7,0-1.4,0.7-2.1,1.4
			c0.2,1.2,0.5,2.3,0.7,3.2c-0.2,0.2-0.5,0.5-0.7,0.7c-1.9,1.2-2.6-1.4-4.1-0.9c-1.4,1.4-3.2,2.5-3.7,4.8c1.2,0,1.9,0,2.3,0
			c0.7,0.9,1.2,1.4,1.6,1.9c1.2-2.1,2.8-3.2,3.9-4.3c2.3-0.7,4.1-1.4,5.9,0c0.2-0.2,0.5-0.2,0.5-0.5c1.6-1.6,0.7-4.1,2.1-5.7
			C111.4,624.7,111.1,624,111.1,623.5z M132.3,628.8c-0.2-1.2-0.7-2.1-1.4-3c-1.2-1.4-2.3-2.5-2.8-4.1c-0.9-2.8-1.9-5.5-1.9-8.7
			c0-1.2,0-2.5-0.2-3.7c-0.5-1.9-0.2-5.5,0-7.3c0.5-2.5,1.9-4.8,1.4-7.3c0.9-0.9,1.9-1.6,2.1-2.3c1.6-3.7,4.6-6.2,7.8-8.7
			c0-0.7,0-1.6,0-2.3c-0.5-0.2-0.9-0.5-1.4-0.7c-1.9,1.6-3.2,3.7-5.7,4.8c-0.5-4.1,0.5-8.3-0.5-12.4c0.2-0.2,0.2-0.5,0.2-0.5
			c-0.2-0.5-0.5-0.9-0.5-1.2c0.2-0.5,0.5-0.7,0.5-0.7c-0.2-0.9-0.5-1.6-0.5-2.3c0-1.2,0.2-2.5,0-3.5c-0.2-0.7-0.5-1.4-0.5-2.3
			c0-0.7-0.5-1.4,0-2.3c0.2-0.2-0.2-0.9-0.5-1.4c-1.2,0-2.3,0-3.2,0c0.7,3.2,0.9,6.4,2.1,9.4c-0.2,0.5-0.5,0.7-0.5,0.9
			c0,0.9-0.2,2.1,0.5,2.8c-0.2,3.9,0.7,8-1.2,11.7c-0.7,1.4-0.2,3-1.2,4.1c0,0,0,0.2,0.2,0.5c0.7,0,1.2,0,1.9,0
			c0.2,0.5,0.7,0.7,1.2,1.2c-0.9,0.7-1.6,1.2-2.3,1.6c-0.7-0.9-1.6-0.5-2.3-0.5c-0.5,1.2-0.9,2.3-1.4,3.2c-0.5,1.2-2.1,1.6-1.6,3
			c-2.6,2.1-3.9,4.8-6.6,6.6c-2.3,1.6-4.8,3.2-7.3,4.3c-0.9,0.5-1.9,0.7-2.8,0.7c-1.2,0-2.1,0.5-3,0.7c-0.9,0.2-2.3-0.5-3,0.5
			c-0.9-0.9-1.9,0.5-2.6,0c-1.2-0.9-2.3-0.5-3.5-0.5c-1.2,0.7-0.9,1.6-0.9,2.5c1.6,0.7,3.2,1.4,4.8,1.9c0,0.7,0,1.4,0,1.9
			c-1.6,1.9-3.2,3.2-4.3,5c-1.6,2.3-3.2,4.6-5.3,6.6c-0.9,0.9-1.9,2.1-2.1,3.5c0,0.7-0.9,1.4-1.2,2.1c-1.2,0-1.6-0.2-2.1-1.4
			c-0.9-2.5-1.4-5.3-2.1-7.8c-0.5-1.2-0.7-2.5-0.9-3.7c-0.2-1.6-0.7-3.5-1.2-5c-0.5-1.2-1.2-2.1-2.3-3c-2.1-1.4-4.3-2.3-5.9-4.1
			c-0.2-0.5-0.9-0.7-1.4-0.7c-2.3-0.5-4.1-1.4-6.2-2.5c-0.9-0.5-1.4-0.5-2.1,0c-0.5-0.2-0.9-0.5-1.4-0.7c0-0.5,0-0.7,0-0.9
			c1.2-1.4,1.9-2.5,3-3.7c0.7-0.7,0.5-1.6,1.2-2.3c1.2-1.2,1.9-2.8,2.6-4.3c1.2-2.3,2.1-4.8,3.5-7.1c0.7-1.2,0.7-2.3,0.5-3.5
			c-0.2-0.9-0.7-1.9-0.9-3c-0.5-2.1-1.4-3.9-1.6-6c-0.5-3.7-3.2-6-4.8-8.7c-1.6-0.2-2.1-1.9-3.5-2.5c-1.4-0.7-2.3-2.1-3.2-3
			c-0.9,0-1.6,0-2.3,0c-0.7,0-1.6,0-3,0.2c0.9,0.7,1.2,1.2,1.9,1.4c1.9,1.2,3.7,2.3,5,3.7c2.1,2.3,3.5,5,4.8,8
			c0.5,0.9,0.7,1.6,1.2,2.5c0.2,0.9,0.5,1.9,0.9,2.8c0.2,1.6,0.5,3.2,0.7,5c0.2,2.3-0.2,4.8-0.5,7.1c-1.2,0.7,0.2,2.3-0.9,3.2
			c-0.5,3-2.3,5.3-4.1,7.3c-2.1,1.9-3.5,3.2-4.3,5c0.9,0.7,2.1,0.9,3.2,0.9c0.9,0,2.3-0.5,3,0c1.9,1.2,3.9,1.6,5.5,3.2
			c1.2,1.2,2.8,2.1,3.9,3c1.4,2.3,2.8,4.3,3.9,6.6c0.7,1.2,1.4,2.5,1.9,3.9c0.9,2.3,1.4,4.8,2.6,6.9c0.5,0.9,0,1.4-0.5,2.3
			c1.4,0.9,0.5,2.5,0.9,3.9c0.5,1.4,0.5,3,0.2,4.6c-0.2,1.4-0.7,2.8-1.6,3.7c0.5,1.6-1.4,2.5-1.4,4.1c-0.2,0-0.7,0.2-0.9,0.2
			c0,0,0,0.2-0.2,0.2c0,1.9-0.5,2.5-1.9,4.3c-0.5,0.7-0.5,1.2,0,2.1c0.5-0.2,0.9-0.5,0.9-0.7c1.2-2.1,2.3-4.1,3-6.4
			c0.7-1.9,1.9-3.7,2.8-5.5c0.2-0.2,0.5-0.2,0.7-0.5c0.5,0.5,1.2,0.9,1.4,1.4c0.7,5.3,3.5,9.9,2.8,15.1c-0.2,0.2-0.5,0.5-0.9,0.9
			c-1.4,0-3,0-4.6,0c0,0.5,0,0.7,0,0.9c1.9-0.5,3.2,2.3,4.8,0.9c2.1-0.5,1.6,1.9,3.2,1.9c0.9,0,2.1,0.9,2.8,1.6
			c0.9,0.7,1.9,1.9,2.6,2.5c-0.2-1.9-0.7-3.7-1.4-5.3c-0.7-1.6-1.4-3.2-2.3-4.6c-0.9-1.6-2.1-3-3.2-4.6c0.7-1.9-1.6-3.9,0-5.5
			c-0.9-2.1-0.2-3.9-0.5-5.7c-0.2-2.1,0.7-3.9,0.7-5.7c0-1.9,1.6-3.5,1.2-5c0.5-0.7,0.9-0.9,1.2-1.4c0.7-0.9,0.9-2.3,1.9-3.2
			c1.2-1.4,2.8-2.5,3.7-4.1c0.2-0.5,0.9-0.7,1.2-0.9c0.5-0.2,0.9-0.7,1.2-0.9c0.5-1.2,1.6-1.6,2.6-2.1c0.5-0.2,1.2-0.7,1.4-1.2
			c0.9-1.2,2.3-1.9,3.5-2.1c1.4-0.2,1.9-0.9,2.3-1.6c0.2-1.4-1.2-2.3-0.2-3.5c0.9,0,2.1,0,3.2,0c-0.2,0.7-0.2,1.4-0.5,2.1
			c0.2,0.2,0.5,0.5,0.5,0.5c2.3-0.5,4.6-0.7,7.1-1.2c0.7-0.9,1.4-2.1,2.1-3.2c0-1.4,0-3,0.9-4.3s1.2-3.2,1.6-4.8
			c0.9,0,1.9,0.2,1.9,1.2c0,1.2,0.9,1.9,0.7,3c-0.2,1.2,0.2,2.6-0.5,3.5c-0.7,1.4,0.7,2.1,0.2,3.2c-0.2,0.7-0.5,1.4-0.5,1.9
			c0.2,0.7,0.5,1.2,0.5,1.6c0,0.5,0,1.2,0.2,1.6c1.2,1.2,0.7,2.5,1.4,3.9c0.7,1.2,0.7,2.5,1.2,3.9c0.2,1.2,0.9,2.1,0.9,3.2
			c0,1.4,0.5,2.5,0.9,3.7c0.7,1.6,0.9,3.5,1.4,4.8c0.5,0.9,0.9,1.4,0.9,1.4c2.1,0.5,3.9,0.5,5.3,1.2c3.2,1.2,6.2,2.5,9.4,3.9
			c0.5,0.2,0.9,0.2,1.6,0.5c0-1.6,1.2-2.1,2.1-2.3c1.4-0.2,2.6-0.9,3.7-2.1c0.7,0.5,1.2,0.9,1.9,1.4c-1.4,2.1-0.7,5-3,6.6
			c-1.4-0.5-1.9-2.3-3.9-2.3c3.5,3.2,6.4,6.4,8,11.5c0.2,1.4,0.5,3.5,0.5,5.5c0,2.1,0.2,4.3,0,6.4c0.7,2.1,0.7,3.9,0.7,6.2
			c0.9-0.2,1.6-0.5,2.3-0.7c0-2.1,0-3.9,0-5.7c0.5-0.5,0.7-0.7,1.2-1.2c1.9,2.5,3.5,5,5.3,7.6c0.5,0,1.2-0.2,1.9-0.2
			c0-0.5,0-0.7,0-0.7c-0.9-0.2-1.4-1.4-2.3-1.9c-0.9-0.5-1.4-1.6-1.6-2.5c-1.6-0.9-0.7-2.5-1.6-3.7c-0.2-0.5-0.2-0.9-0.7-1.4
			c-1.2-1.4-1.6-3.2-2.3-4.8c-0.7-1.9-1.6-3.5-1.6-5.5c0-1.9,0.7-3.9-0.5-5.7c0-0.2,0-0.7,0-0.7c0.9-0.7,0.5-1.6,0.5-2.3
			c0-2.1,0.7-3.7,1.6-5.5c-0.5-1.6,0.5-3,1.2-4.1c0.7-0.9,1.4-2.1,1.9-3c0.5-0.9,0.9-2.1,1.9-3c0.7-0.7,0.9-1.9,1.4-2.8
			c0.7-1.2,1.2-2.1,2.1-3c2.3-2.1,4.1-4.8,7.3-5.7c0.2,0,0.5-0.5,0.9-0.7c3-1.9,5.7-3.7,9.7-3.7c-0.2-0.5-0.2-0.9-0.5-1.2
			c-0.7-1.2-1.6-2.3-2.3-3.5c-0.7-1.2-1.4-2.5-2.1-3.9s-1.4-2.5-1.9-3.9c-0.7-1.2,0-3-1.4-3.7c-1.2,0.2-2.1,0.5-3.2,0.7
			c-0.5-0.5-0.7-0.9-0.9-1.2c0.9-1.9,3.2-1.2,4.6-2.3c-0.2-0.9,0.2-1.6-0.5-2.8c-0.5-0.9-0.5-2.3,0-3.2c0.7-1.2,0.5-2.5,0.5-3.7
			c0-1.2,0-2.1,0-3.2c1.4-1.6,2.3-4.1,2.1-5.7c-1.6,0-3,0-4.6,0c-0.5,0.7-0.7,1.2-1.2,1.9c-0.2,1.2-0.2,2.1-0.5,3.2c0.9,0,1.9,0,3,0
			c0.2,0.7,0.5,1.2,0.7,1.9c-0.7,0.5-1.2,0.9-1.9,1.6c-0.7-0.2-1.6-0.5-2.6-0.5c-0.9,0.7-1.2,1.6-1.4,2.8c-0.2,1.2-0.5,2.5-0.9,3.7
			c-0.5,0.9-1.4,2.3,0,3.5c0.5,2.8,1.9,5.3,3.2,7.8c0.9,1.6,2.1,2.8,2.6,4.8c0.2,0.7,0.9,1.4,1.4,2.1c0.2,0.2,0.5,0.5,0.5,0.5
			c0,0.7,0,1.2,0,1.9c-0.7,0.2-1.2,0.5-1.9,0.7c-4.8,4.1-10.4,7.8-14,13.5c-0.2,1.2-1.2,2.8-1.9,3.9c-0.9,1.4-1.6,3.2-2.6,4.6
			c0,0.9,0,1.9,0,2.8c-1.2,1.4-2.6,2.1-4.3,2.1c-2.3-0.2-4.6,0-6.6,0c-0.9,0.7-1.9,1.2-2.5,1.6c-0.7-0.5-1.2-0.7-1.6-1.2
			c-0.2-0.2-0.2-0.5-0.5-0.7c0.5-0.2,0.9-0.7,1.2-0.9c-0.2-0.7-0.5-1.2-0.7-1.6c-0.9,0-1.9,0-2.6-0.9c-0.9-0.9-2.6-1.6-3.7-2.3
			c-0.2,0-0.2,0-0.5-0.2c-0.2,0.5-0.7,1.2-0.7,1.2c-1.2,0.9-2.1,1.2-3.2,0.7c0-0.7,0-1.2,0-1.9C130.2,629.2,131.2,629,132.3,628.8z
			 M95.1,597.8c3,0.2,5.3-0.5,7.8-0.9c1.4-0.2,2.8-0.9,3.9-0.9c1.6-0.2,2.6-1.4,4.1-1.6c0.5,0,0.9-0.5,1.4-0.7
			c2.8-2.1,3.5-5.5,5.3-8c-0.2-1.4,0.7-2.5,1.2-3.5c-0.2-1.2-0.7-2.3-0.5-3c0.7-1.2,0.5-2.1,0-3.2c-0.5-0.9-0.5-1.9-0.7-2.5
			c-0.7-1.9-0.9-3.9-2.6-5.3c-1.4-0.9-2.6-2.1-3.5-3.5c-1.2-1.6-3-1.9-4.8-2.5c-0.7,1.9-1.2,3.5-1.9,5.3c2.8,2.1,3.7,5,3.9,8.5
			c0,0.2,0.5,0.5,0.2,0.5c-0.9,1.4-0.2,3-0.5,4.6c0,0.5,0,1.2-0.2,1.6c-1.2,1.9-1.6,4.3-4.1,5c-0.2,1.4-1.9,1.2-2.8,2.1
			c-1.6-0.2-3.5-0.2-4.6,1.4c0.2,1.2-0.2,2.1-0.9,3.2C95.5,595.2,95.5,596.4,95.1,597.8z M179.1,624.7c-0.7,0.2-0.9,0.2-1.2,0.5
			c-1.9,0.9-3.5,2.3-5,3.5c-2.3,1.9-4.8,5.5-5.9,8.3c-1.4,3-1.4,6-2.1,9c-0.2,0.5,0,1.2,0.2,1.9c0.2,1.6,0.7,3.2,1.2,5.3
			c0.9,2.5,3,4.8,5.5,6.4c0.5,0,0.9,0,1.6,0c1.2-2.5,2.3-4.8,2.6-7.6c-1.4-0.2-1.6-1.6-2.6-2.3c-0.9-0.7-1.6-1.6-2.6-2.5
			c0.2-1.9-0.2-3.7,0.5-5.5c-0.5,0,0-1.4-1.2-1.4c-0.7,0-1.2-0.9-1.6-1.2c0.5-0.9,0.7-1.4,0.9-2.1c0.9,0.2,1.9,0.5,2.8,0.5
			c0.2-0.5,1.4-0.2,1.6-1.4c0.2-0.7,1.2-1.2,1.4-1.6c0-0.9,0-1.4,0-1.9c-1.2-0.2-1.6-0.9-2.3-1.9c0.9-0.5,1.6-0.9,2.3-1.4
			c0.7,0.5,1.4,0.9,1.9,1.2c-0.2,0.5-0.5,0.9-0.7,1.6c2.1-0.2,3.7-0.5,5.7-0.7c0,0,0-0.2,0.2-0.2c0.2-0.2,0.7-0.2,0.9-0.2
			c0.5-1.4,1.9-2.5,1.2-4.1c-0.9,0.2-2.1,0.5-2.5,0.5C180.3,626,179.8,625.4,179.1,624.7z M39.3,571.8c-0.9,0.5-1.6,0.7-2.5,1.2
			c0,0-0.2,0.2-0.2,0.5c0.5,0,1.2,0.2,1.9,0.2c0.2,0.2,0.5,0.7,0.5,0.9c0.9,0,1.6,0,2.3,0c1.2,1.6,3,2.5,3.7,4.3
			c1.2-1.4,2.3-2.1,4.3-1.6c0.2,0.5,0.5,1.2,0.5,1.6c-0.5,0.5-0.7,0.7-0.9,0.9c-1.2-0.2-2.3,0.2-3.5-0.5c0.2,1.6,0.5,3.5,0.5,5
			c0,1.9-0.7,3.5-1.2,4.8c0.9,0.9,1.9,1.6,2.8,2.5c-0.7,1.2-1.2,1.9-2.3,2.1c-0.9-0.5-1.4-0.9-2.1-1.9c-0.5,0.5-0.9,0.7-1.2,1.2
			c0.2,0.9,0.5,1.6,0.7,2.3c0.2,0.7,0.9,1.4,1.2,1.9c0.7-0.2,1.4-0.5,1.9-0.9c0.5-0.5,0.9-0.9,1.4-1.4c0.7-0.2,0-1.4,1.2-1.4
			c0.5,0,1.2-0.7,1.4-1.2c0.7-0.9,1.4-2.1,1.9-3.2c0.5-2.1,0.9-4.3,1.2-6.4c0-0.7,0.2-1.4,0-1.9c-0.5-0.9-0.5-2.1-1.4-2.8
			c-0.7-0.7-0.2-2.3-0.9-3.2c-0.5-0.5-0.9-1.2-1.4-1.9c-0.9-0.2-1.9-0.7-3-0.9c0,0.5,0,0.9-0.2,1.6c-0.9,0.2-1.6,0.5-2.5,0.5
			c-0.2,0-0.5-0.2-0.7-0.2c0-0.7,0-1.2,0-1.9c0.7-0.2,1.4-0.7,2.5-0.9c-2.3-2.5-5.3-3.2-8.3-3.9c-0.7-0.2-1.6,0-2.3,0
			c0.2,0.9,0.5,1.4,0.5,2.1c1.2,0,2.3,0,3.2,0c0.5,0.5,0.7,0.7,0.9,0.9C39.3,570.6,39.3,571.1,39.3,571.8z M93.2,636.6
			c-2.3,5.3-1.2,10.1,0.9,14.9c0.7,0.9,1.2,1.9,2.1,2.5c0.9,0.9,1.9,1.4,2.8,2.3c0.2,0,0.9,0,1.2-0.5c0.7-0.9,1.6-2.1,1.6-3.2
			c0-1.6,0.7-2.8,1.4-3.9c0.5-0.9,0.7-2.1,1.2-3c0-0.2,0-0.5-0.2-0.9c-0.9,0-1.6,0-2.3,0c-2.5-2.5-2.5-2.5-3.2-8.7
			c-0.9,0.2-1.9,0.7-2.6,0.5C94.8,636.8,94.1,636.3,93.2,636.6z M65.9,626.5c-0.9-2.8-3.5-3.7-4.6-5.5c-2.8-1.4-5.5-3.5-9-2.8
			c-1.2,0.2-2.1,0.2-3,1.2c0.5,0.7,0.9,1.6,1.4,2.3c1.2,0,2.3,0,3.7,0c0.2,0.7,0.5,1.2,0.7,1.9c-0.7,0.5-1.2,0.9-1.6,1.6
			c-0.7,0-1.6-1.2-2.5,0c0.2,0.2,0.5,0.5,0.7,0.5c2.3,0.7,4.6,1.4,6.6,2.8c1.4,0.9,2.6,2.1,3.2,3.7c0.5,0.9,0.5,2.3,0.7,3.2
			c0,0.5,0.5,0.9,0.7,1.4c0.9,0,1.6,0,2.3,0c0.5,0.5,0.9,0.9,1.4,1.4c0.2-0.7,0.5-0.9,0.9-1.9c0-0.7,0-2.1,0-3.2
			c-0.5-0.7-0.9-1.4-1.4-2.1c-0.5,0.5-0.9,0.7-1.2,1.2c-0.7,0-1.6,0-2.3,0c-0.2-0.2-0.5-0.5-0.9-0.9c0.2-0.5,0.5-1.2,0.7-1.9
			c1.2,0,2.1,0,3.2,0C65.9,628.1,65.9,627.2,65.9,626.5z M191.3,592.7c1.2,0.7,1.2,1.6,0.9,2.8c-0.9,0.2-1.9,0.7-2.8,0.9
			c1.2,1.2,1.6,1.6,3.5,1.9c0.9-2.3,2.1-4.6,2.3-6.9c-1.4-1.2-2.6-1.9-3.7-2.8c-0.2-0.7-0.5-1.2-0.9-1.9c-0.9,0-1.9,0-3.2,0
			c-0.2-0.7-0.5-1.4-0.7-2.1c1.2-0.5,2.1-0.7,3-0.9c0-0.9,0-2.1,0-3c0-0.9,0.2-1.9,0-2.8c-1.6,0.5-3.2,0.9-4.6,1.4
			c-0.9,3-1.2,6-0.2,8.7c1.2,3.9,2.6,5.5,4.1,7.1c0.2-0.7,0.7-1.4,0.9-2.1C190.3,593.2,190.8,593,191.3,592.7z M134.3,614.3
			c-1.2-0.9-1.9-2.1-1.6-3.5c0-1.4-0.7-2.5-1.6-2.8c-0.9,0.2-1.4,0.2-2.1,0.2c-0.7,0.2-1.4,0.5-2.1,0.7c0.2,1.4,0.5,2.8,0.9,4.1
			c0.7,0,1.4,0.2,1.9-0.2c0.7-0.5,1.2-0.7,2.1,0c-1.4,0.9-2.8,1.6-4.1,2.5c0.5,0.7,0.9,1.4,1.6,2.3c1.2-0.2,2.3-1.2,3.5-0.5
			c-0.9,1.2-3,0.7-3.2,2.5c0.5,0.9,0.9,1.9,1.4,2.8c1.9-0.5,3.2-1.6,4.3-3c0.5,0,0.9,0,1.2,0c-2.3,0.9-2.3,3.5-4.1,5
			c0.9,0.7,1.9,1.2,2.6,1.6c1.4-0.5,2.1-1.2,2.8-2.3c0.7-1.2,1.4-2.3,1.2-3.7c-0.5-0.2-0.9-0.7-1.6-0.9c0-0.5,0-0.7,0-1.2
			c-0.9-0.7-1.6-1.4-2.8-2.3C134.3,615.9,134.3,615.2,134.3,614.3z M197.5,567.2c-0.7-0.2-1.2-0.5-1.4-0.7c-0.9,0.7-2.1,1.6-3,2.3
			c0.2,1.2,1.9,1.4,0.9,2.5c-0.2,0.5-0.5,0.9-0.5,1.4c-1.4-0.5-2.3-0.9-3.2-1.4c-0.9,1.2-1.6,2.1-2.6,3.2c0.2,0.9,0.2,0.9,2.3,2.8
			c1.4-1.4,3-3,4.1-3.9c2.8-0.9,5-1.6,7.8-2.3c1.2-0.7,1.2-2.5,2.1-4.1c-1.4-1.4-1.9-1.4-3.2-0.2c0.2,0.2,0.5,0.5,0.5,0.5
			c-0.5,0.7-0.9,1.4-1.2,1.9c-0.7-0.2-1.4-0.5-2.1-0.7C197.5,567.9,197.5,567.7,197.5,567.2z M140.6,592.5c-3.2,2.3-5,5-6.4,10.8
			c-0.5,2.3-0.7,5,0.7,7.6c1.2-0.5,2.1-0.9,3-1.4c0.2-1.2,0.5-2.3,0.7-3.5c-0.9-0.7-1.9-1.4-3-2.3c0.2-0.7,0.5-1.2,0.7-2.1
			c1.2,0.2,2.1,0.2,3.2,0.5c0.9-0.9,1.9-1.9,2.8-2.8c0-0.5,0-0.7,0-1.2c-0.2-0.2-0.5-0.5-0.9-0.9c-0.7,0-1.6,0-2.3,0
			c-0.2-0.5-0.5-0.9-0.5-1.2c0-1.4,1.4-1.6,1.9-2.3C140.6,593.7,140.6,593.2,140.6,592.5z M62.2,638.6c-2.5,1.4-3,4.6-5.3,6.2
			c1.2,2.1,0.7,4.8,2.6,6.4c1.2-1.2,2.3-2.1,3.5-3.5c0-0.2,0-0.7,0-1.6c-1.4,0.2-2.3-0.2-3.5-0.9c0.7-0.7,1.4-1.2,1.9-1.6
			c0.7,0,1.2,0,1.4,0c0.5,0.7,0.7,1.2,0.9,1.6c0.5-0.2,0.9-0.5,1.2-0.7c1.2-1.9,1.9-3.5,1.2-5.3C65,638.9,63.6,639.6,62.2,638.6z
			 M144.9,629.7c0,1.2,0,2.1,0,3c0.9,0.2,1.9,0.5,2.8,0.9c1.2-2.3,2.1-4.1,1.9-6.4c-0.7-1.4-1.6-0.9-2.6-0.9
			c-0.5,0.5-0.9,0.7-1.2,1.2c-0.2,0.5-0.2,0.9-0.5,1.4h-0.2c0-0.9,0-2.1,0-3c-0.5-0.5-0.7-0.7-1.2-0.9c-2.1,1.2-1.4,3.9-2.8,5.3
			c-0.2,0.2,0,0.9-0.2,1.4c0.9,0,1.9,0,2.8,0C144,631.1,144.2,630.6,144.9,629.7z M167.9,620.9c1.2,2.1,2.1,3.7,3.2,5.5
			c0.7-0.5,1.4-0.7,2.1-0.9c-0.2-1.4-0.5-2.5-0.7-3.9c-0.2-0.7-0.7-1.4-1.2-2.3c0.7,0,1.2,0,1.6,0c0.2,0.9,0.5,1.9,0.9,3.2
			c0.5,0.2,0.9,0.9,1.6,1.4c0.5-0.5,0.7-0.7,1.2-1.2c-0.2-1.6-0.5-3.2-0.7-5c-1.2-1.6-2.6-0.7-3.5,0
			C170.6,618.7,169.2,619.8,167.9,620.9z M178,572.3c0.2,0,0.5,0,0.5,0c2.3-4.1,5.5-7.8,9-11c0.5-0.5,0.9-0.7,1.2-1.2
			c0.2-0.2,0-0.5,0-0.7c-0.7,0-1.4,0-2.1,0c-3,3.9-7.6,6.4-10.8,10.4C177.3,570.6,177.3,570.6,178,572.3z M143.5,662.8
			c0.7,3.5-1.9,6-3,9c0.5,0.5,0.7,0.7,0.9,0.9c1.6-0.2,3.2,0.5,4.6-0.7c-0.2-0.7-0.2-1.4-0.7-1.9c-0.5-0.7-0.9-1.2-0.7-1.9
			c1.2-0.7,1.6-1.2,2.1-2.1c0.5-1.2,0-2.1-0.7-3.2C145.4,662.8,144.4,662.8,143.5,662.8z M110,603.7c0.7-0.2,1.4-0.5,1.9-0.7
			c1.9-1.4,3.9-2.5,5-4.3c-1.2-1.2-2.3-2.3-3.5-3.5c-0.7,0.7-1.9,1.2-1.6,2.5c0.5,0.5,1.2,1.2,1.9,1.9c-0.7,0.5-0.9,0.9-1.6,1.4
			c-0.7-1.2-1.2-2.1-1.6-3c-0.7,0-1.4,0-1.9,0l0.2,0.2c-0.2,0.2-0.7,0.5-0.9,0.5c0,0.5,0,0.5,0,0.5
			C108.6,600.8,109.3,602.2,110,603.7z M119.9,574.4c1.2-0.2,2.6-0.2,3.5-0.7c1.2-0.7,1.9-2.1,2.8-3c-1.2-2.8-1.2-2.8-2.6-3
			c-1.4,1.6-3.9,2.3-4.8,4.6c0.2,0.2,0.5,0.7,0.7,0.9C119.4,573.4,119.6,573.7,119.9,574.4z M123.1,562.1c-2.6,1.9-4.6,3.5-6.6,5
			c0.5,0.7,1.2,1.4,1.6,2.3c2.3-1.6,5-2.3,6.9-4.3C124.5,563.8,124.3,562.8,123.1,562.1z M184.9,619.6c-0.2-1.2-0.7-1.9-0.5-2.1
			c0.9-1.2,0.2-2.3,0.5-3.2c-0.7-1.2-1.6-0.9-1.9-0.9c-0.9,0.7-1.6,0.9-2.1,1.4c0.2,0.9,0.5,1.6,0.7,2.1c-1.2,1.4-0.5,2.8-0.5,3.9
			c0.9,1.2,1.9,0.9,2.8,0.7C184.4,620.7,184.6,620,184.9,619.6z M169.7,628.8c0-2.6-1.4-4.3-2.6-6.6c-1.2,1.4-2.1,2.3-3,3.5
			c0.2,0.9,0.5,1.6,0.7,2.3c0.2,0.7,0.7,1.6,1.2,2.3C167.6,630.1,167.6,630.1,169.7,628.8z M180.1,621.9c0.2-1.2,0.7-2.1,0.7-3
			c0-0.9,0.2-1.9-0.5-2.8c-0.5-0.7,0.2-2.1-1.4-2.5c-0.9,0.7-1.9,1.4-2.8,2.1c0.5,1.2,0.9,1.9,1.2,2.8c0,0.2-0.2,0.2-0.5,0.5
			c0.5,0.9,0.7,1.9,1.2,2.8C178.7,621.9,179.4,621.9,180.1,621.9z M162.6,649.5c0.2-0.5,0.5-1.2,0.9-1.9c-1.6-2.1-4.1-2.5-6.4-3.2
			c-0.2,0.2-0.5,0.5-0.7,0.7c0,1.4-0.2,2.8,0.7,4.1C158.9,649.5,160.7,649.5,162.6,649.5z M164.7,636.6c-2.1-0.7-2.1-3.2-4.1-3.7
			c-1.2,1.2-1.6,2.5-2.1,4.1c1.4,1.4,2.6,3,4.8,2.5c0.5-0.5,0.9-0.9,1.4-1.4C164.7,637.7,164.7,637,164.7,636.6z M145.4,658.9
			c-0.9-2.3-2.1-4.1-3.2-6.2c-1.9,0-2.1-2.3-3.9-2.3c0,1.2,0,2.1,0,3c1.2,0,2.1-0.2,3.5-0.5c-0.2,1.2-0.5,2.3-0.7,3.5
			c0.5,0.9,1.2,2.1,1.6,3.2c0.7,0,1.4,0,2.1,0C144.7,659.6,144.9,659.4,145.4,658.9z M160.1,660.9c3.2,0,3.7-2.8,5.5-4.1
			c0-0.5,0-0.7,0-1.2c-0.5-0.2-0.9-0.5-1.2-0.5c-2.3,0.5-4.3,0.7-5.9,2.1C159.1,658.7,159.6,659.8,160.1,660.9z M70.7,653.8
			c0-0.9,0-1.9,0-3c-1.4-1.2-2.6-3-4.8-3c-0.2,0-0.2,0-0.5,0.2c-0.2,0.5-0.5,1.2-0.7,1.9c0.7,0.9,1.6,1.6,2.1,2.8
			c0.5,1.2,1.9,1.2,2.3,2.3C69.6,654.3,70,654,70.7,653.8z M52.6,616.4c0.5-0.7,0.9-1.2,1.2-1.6c0.9-1.9,1.6-3.7,2.6-5.5
			c-0.2-0.2-0.7-0.7-0.9-0.9c-0.9,0-1.6,0-1.9,0c-0.9,0.7-1.4,0.9-1.6,1.2c-0.5,2.3-1.2,3.9-0.7,6C51.6,615.5,51.9,615.7,52.6,616.4
			z M115.1,565.6c3-1.6,6.2-2.8,8-6c-0.2-0.2-0.5-0.5-0.7-0.7c-0.7,0-1.6,0-2.6,0c-0.5,1.4-2.3,1.4-3,2.8c-0.7,1.2-1.9,1.9-2.8,2.8
			C114.6,564.9,114.8,565.2,115.1,565.6z M153.4,660.7c-1.9,0.2-3.2,0.5-4.6,0.7c-0.5,0-0.7,0.5-1.4,0.7c1.2,1.6,0.2,3.5,2.3,4.3
			c1.4-0.7,3-0.7,3.7-2.1C153.4,663.4,153.4,662.3,153.4,660.7z M53.7,573.4c-0.5,0.9-0.9,1.9-1.2,2.5c0.5,0.5,0.9,0.9,1.2,1.4
			c0.7,0,1.6,0,2.6,0c0.9-0.7,1.9-1.6,3-2.8c-0.7-1.2-1.2-2.1-1.4-2.8c-0.7,0-1.4,0-1.9,0C55.3,572.3,54.9,573.4,53.7,573.4z
			 M184.6,594.4c-0.5-1.4-1.6-1.2-2.8-0.9c-1.2,0.5-2.3,0.9-3.5,1.4c-0.5,0.2-0.7,0.5-0.9,0.7c0,0.9,0,1.6,0,2.3
			c0.2,0,0.2-0.2,0.5-0.2c0.2,0.5,0.2,0.9,0.5,1.4c0.9-0.5,1.6-0.7,2.3-0.9c0.9-0.5,1.9-0.9,2.6-1.6
			C183.9,595.9,184.2,595,184.6,594.4z M139.4,630.1c0.9-2.5,2.8-4.1,2.8-6.4c-0.2-0.2-0.5-0.5-0.7-0.7c-0.7,0-1.4,0-1.9,0
			c-1.6,1.6-2.1,3.9-3.2,5.7C137.6,629.4,138.5,629.9,139.4,630.1z M119.6,578.4c1.6,0.2,3,0.7,4.3,0.9c0,0.5,0.2,0.7,0.2,0.9
			c0.7-0.5,1.2-0.9,1.4-1.2c0-1.6,0-2.8,0-4.1c-2.3-0.5-3.9,0.9-5.9,1.2C119.6,576.9,119.6,577.8,119.6,578.4z M46.6,599.9
			c-0.5,0-0.7-0.2-1.2,0s-0.7,0.7-0.9,0.9c0.7,2.3,1.4,4.6,1.9,6.6c0.7,0,1.2,0,1.6,0c0.7-0.5,1.2-0.9,1.9-1.6
			C48,604.2,48.7,601.5,46.6,599.9z M101.9,607.4c0.7-0.5,1.4-0.9,2.1-1.4c0-0.2,0-0.2,0-0.2c0-1.6-0.7-3.2-0.9-4.8
			c0-0.5-0.7-0.9-0.9-1.2c-0.7,0.7-1.4,0.9-1.9,1.4c0,0.9,0,1.9-0.5,3c-0.2,0.7,0.2,1.9,0.5,2.8C100.8,606.7,101.5,607,101.9,607.4z
			 M141.4,643.3c-0.7,1.6-1.6,3.2-2.6,4.8c1.2,0.2,2.1,0.5,3,0.9c0.9-1.6,3-1.9,3.7-3.2c-0.7-0.9-1.4-1.6-1.9-2.3
			C143.1,643.5,142.4,643.3,141.4,643.3z M76.4,636.6c-0.9-0.5-2.1-0.7-3-1.2c-0.9,0.5-1.9,0.7-2.8,0c-0.5,0.2-0.9,0.5-1.4,0.7
			c0,0.9-0.2,1.9,0.9,2.5c2.1-0.7,3.9,1.6,6.2,0.9C76.4,638.4,76.4,637.5,76.4,636.6z M156.9,642.8c1.9,0.7,3.9,1.4,5.7,1.9
			c0.2-0.7,0.5-1.2,0.7-1.6c-0.2-0.2-0.5-0.5-0.7-0.7c-0.9-1.4-2.1-2.3-3.7-3c-0.9-0.5-1.6-0.2-2.1,0.5
			C156.9,640.7,156.9,641.7,156.9,642.8z M163.5,651.1c-1.9,0-3.5,0-5,0c-0.5,0-1.2,0.2-1.6,0.5c0.5,1.4,0.7,2.3,0.9,3.5
			c2.6,0,4.6,0,6.2-2.1C164,652.4,163.8,651.7,163.5,651.1z M180.8,589c0.7-0.2,1.2-0.7,1.9-0.9c0-0.9,0-1.6,0-2.5
			c-1.9-0.7-3.5-1.6-5.3-2.5c0,0.7,0,1.2-0.2,1.9c0,0.5-0.5,0.9-0.5,1.4c0.2,0.5,0.5,0.9,0.7,1.4C178.2,588.1,179.4,588.6,180.8,589
			z M152.7,654.9c-2.8,0-4.6,1.4-5.9,3.5c0.2,0.5,0.5,0.9,0.7,1.4c2.3,0.2,4.3,0.2,5.7-1.9C152.5,657.3,153.2,656.1,152.7,654.9z
			 M66.6,625.4c1.2,0,2.3,0.2,3.2-0.2c0.9-0.5,2.1,0,2.8-0.5c0.7-1.2,0.7-2.1,0-3c-0.7-0.2-1.2-0.5-1.9-0.7
			c-1.4,0.7-2.8,1.2-3.9,1.6C66.6,623.5,66.6,624.4,66.6,625.4z M74.4,626c-2.5-0.2-4.3,0.5-6.2,1.9c0.2,0.7,0.5,1.4,0.7,1.9
			c2.1,0,3.9,0,5.9,0c-0.2-0.2-0.2-0.2-0.5-0.5c0.5-0.2,0.9-0.2,1.4-0.2C75.1,627.8,74.7,627,74.4,626z M63.4,656.1
			c0.7,0.9,1.6,1.9,2.5,3c0.7-0.7,1.2-1.2,1.6-1.6c-0.5-3.9-2.8-6.2-5-5.3C62.7,653.1,62.9,654.5,63.4,656.1z M73,649
			c0-0.9,0-1.6,0-2.3c-0.5-0.7-0.9-1.4-1.4-2.1c-1.2-0.5-2.6-0.9-3.7-1.4c-0.5,0.7-0.7,1.4-0.9,2.1c0.7,0.7,1.6,1.2,1.6,1.9
			c0.2,0.9,1.6,0.9,1.4,1.9C71,649,71.9,649,73,649z M95.1,656.1c-1.4,1.6-2.6,3-3.9,4.6c0.7,0.9,0.7,2.5,2.6,2.3
			c0.9-1.2,1.9-2.5,3-3.7c0-0.7,0-1.4,0-2.3C96.2,656.6,95.5,656.3,95.1,656.1z M96.7,607.9c1.2,0.2,1.9-0.7,2.6-1.4
			c0-1.9,0-3.9,0-5.7c-0.7,0-1.4,0-2.1,0c-1.2,1.9-1.2,1.9-1.2,4.3c-0.2,0.5-0.5,0.9-0.7,1.2C95.8,607,96.2,607.4,96.7,607.9z
			 M187.9,598c-2.6,1.4-3.5,3.9-5.3,5.5c-0.5,0.5-0.7,1.4-0.9,1.9c0.5,1.2,1.2,1.6,2.6,0.9c0.5-2.1,2.6-3.5,3.7-5.3
			C187.9,600.1,187.9,599.2,187.9,598z M53.5,602.4c-0.7-1.2-1.4-2.1-2.1-3c-1.2-1.2-2.3-2.1-4.1-1.6c0,0.7,0,1.2,0,1.9
			c1.2,1.6,2.3,3,3.7,4.6C51.9,603.5,52.8,603,53.5,602.4z M130.2,595.4c0.5,0.7,0.7,1.2,1.2,1.6c0.5,0.5,0.9,1.2,1.2,1.6
			c0.5-0.2,0.9-0.5,1.4-0.7c0.5-0.9,0.9-1.9,1.4-2.8c-0.7-1.2-1.6-2.1-2.3-3.2c-0.7,0-0.9,0-1.4,0C130.7,593,130,593.9,130.2,595.4z
			 M108,601c-0.5-0.2-0.7-0.5-1.2-0.7c0-0.5,0-0.9,0-1.2c-0.9,0-1.6,0-2.6,0c-0.5,2.3,0.5,4.6,1.2,6.6c0.9-0.2,1.9-0.5,2.6-0.7
			C108,603.5,108,602.4,108,601z M168.3,660.2c-1.6,2.5-3,4.6-4.3,6.9c0.7,0.2,1.2,0.7,1.9,0.9c1.6-2.1,3.7-4.1,4.3-7.1
			C169.5,660.9,168.8,660.7,168.3,660.2z M97.2,625.4c1.6,0.2,3.2,0,4.3-1.6c-1.2-1.2-0.7-3.2-2.3-3.9c-1.6,0.5-2.8,1.6-3.2,3
			C96.2,623.7,96.7,624.4,97.2,625.4z M141,641.4c-1.6-0.7-2.8-0.2-3.9,0.5c0,1.9-2.1,3.2-0.9,5.3c0.2,0,0.7,0,1.4,0
			c1.4-1.6,2.8-3.2,4.1-4.8C141.2,641.9,141,641.7,141,641.4z M61.1,611.1c-0.9,1.9-2.8,3.5-2.8,5.7c0.5,0,0.9,0,1.4,0
			c1.9-1.6,3.7-3.2,5.3-5.3c-0.7-0.5-1.4-0.7-1.9-1.2C62.5,610.9,61.8,610.9,61.1,611.1z M65.5,612.9c-1.4,1.4-3.2,4.3-3.7,5.5
			c1.9,0.5,3.5-0.7,4.6-1.6c0.9-0.7,2.3-1.4,1.9-3C67.3,613.6,66.4,613.4,65.5,612.9z M146.8,655.2c1.6-0.9,3.7-0.7,4.6-2.3
			c0-0.7,0-1.2,0-1.6c-0.2,0.2-0.5,0.2-0.5,0.5c-0.2-0.7-0.5-1.4-0.9-2.3c-2.1,1.4-3.5,2.8-4.6,4.3
			C145.8,654.3,146.3,654.7,146.8,655.2z M162.8,627.8c-0.7,1.2-1.2,2.3-1.6,3.5c0.9,1.6,2.1,2.8,3.5,3.5c0.7-0.5,1.2-1.2,1.9-1.6
			C165.8,630.8,164.9,629,162.8,627.8z M75.4,642.1c-1.9-1.9-4.1-1.9-5.9-2.3c-0.7,0.2-1.2,0.5-1.6,0.7c0.9,1.2,1.4,2.1,2.8,1.9
			c1.2,0.9,1.9,2.3,3.9,2.3c0.2-0.2,0.2-0.7,0.7-1.4C75.4,643.3,75.4,642.8,75.4,642.1z M59.1,608.8c-1.6,0.2-2.3,1.6-2.8,2.8
			c-0.7,1.4-1.6,2.8-1.2,4.3c0.9,0.2,2.1,0,2.1-0.9c0-0.9,1.4-0.5,1.4-1.6c0-0.7,1.2-1.4,1.6-2.1c0.2-0.5,0.5-1.2,0.7-1.6
			C59.9,609.3,59.5,609,59.1,608.8z M114.8,614.5c-1.6,0-2.8,0-4.1,0c-0.2,1.9-0.5,3.5-0.7,5c0.9,0.5,1.4,0.7,2.1,0.9
			c0.7-0.9,1.2-1.9,1.6-2.8C114.2,616.9,114.4,615.9,114.8,614.5z M86.1,649c0.7,1.2,0.2,3,1.6,4.1c1.4-0.9,2.8-1.9,4.1-2.5
			c-0.5-0.9-0.9-1.6-1.4-2.3c-1.2,0-2.3,0-3.5,0C86.8,648.3,86.6,648.5,86.1,649z M189,600.5c-1.6,2.8-3,5.3-4.3,7.8
			c0.5,0.5,0.9,0.7,1.4,1.2c1.9-3.2,4.3-6,4.8-9.9C190,600.1,189.5,600.3,189,600.5z M127.9,607.4c1.2,0,2.1,0,3,0
			c0.2-0.2,0.5-0.5,0.7-0.7c0-1.2,0-2.3,0-3.5c-1.2-0.2-2.6-0.5-3.7-0.7c-0.2,0.2-0.5,0.5-0.7,0.7c0,1.2,0,2.3,0,3.5
			C127.4,606.7,127.7,607,127.9,607.4z M88.7,655.4c0.5,0.9,0.7,1.6,0.9,2.5c0.7,0,1.4,0,1.6,0c0.9-0.9,1.9-1.6,2.8-2.5
			c0.2-1.4-0.7-1.9-1.4-2.5C90.7,652.9,89.3,653.6,88.7,655.4z M106.3,615.7c-0.5,1.2-0.7,2.5-0.9,3.5c0.7,0.7,1.2,1.4,1.9,2.1
			c0.7-0.2,1.4-0.5,1.9-0.7c1.2-1.6,0.9-3.2,0-4.8C108.2,615.7,107.3,615.7,106.3,615.7z M51.3,569.3c0.2-0.5,0.7-1.4,1.2-2.3
			c0-0.7,0-1.4,0-2.3c-0.9,0-1.9,0-2.6,0c-0.7,1.9-2.1,3.2-2.3,5.3c0.5,0.2,1.2,0.5,1.6,0.7C49.9,570.2,50.6,569.8,51.3,569.3z
			 M116.7,595.4c0,0.7,0.2,1.2,0.2,1.6c2.1-0.2,2.8-2.1,3.7-3.2c-0.2-0.5-0.5-1.2-0.7-1.6c-0.5-0.2-1.2-0.2-1.6-0.5
			c-0.5-0.2-0.9-0.7-1.2-0.9c-1.2,1.2-1.9,2.3-1.4,3.9C116.2,594.8,116.5,595.2,116.7,595.4z M90,643c-0.7-2.1-2.6-1.6-3.5-2.3
			c-0.5,0.5-0.7,0.7-0.9,0.7c0,1.4,0,2.5,0,3.7c0.7,0.5,1.2,0.7,1.6,0.9c0.9-0.2,1.9-0.5,2.8-0.5C90,644.8,90,643.9,90,643z
			 M187.4,615c0.2-0.2,0.7-0.7,1.2-1.2c-0.5-2.1,0.9-3.7,1.4-5.7c0.2-1.2,1.4-2.1,0.7-3.5c-1.9,1.4-1.9,3.5-2.8,5
			c-0.5,0.7-0.5,1.6-0.5,2.5c-0.2,0.2-0.7,0.7-0.9,0.9c0,0.9,0.2,1.9,0,2.8c-0.5,0.9-0.7,1.6-0.2,2.5
			C187.2,616.9,187.2,616.9,187.4,615z M53.3,588.3c2.1,1.6,4.1,2.5,6.6,2.1c0.2-0.5,0.5-1.2,0.7-1.6c-0.7-0.7-1.2-1.2-1.4-1.4
			c-1.9,0-3.5,0-5,0C54,587.6,53.7,587.9,53.3,588.3z M52.1,591.4c0.7,1.6,2.3,2.5,3,3.5c1.2,0.2,2.1,0.5,3,0.7
			c0.5-0.9,0.9-1.6,1.4-2.6c-0.5-0.2-0.7-0.7-1.2-0.9C56.5,593,54.7,590.4,52.1,591.4z M45.9,567.9c1.9-1.2,2.6-2.8,3.2-4.1
			c-0.2-0.5-0.5-0.9-0.7-1.4c-0.9,0-1.6,0-2.5,0c-0.7,1.6-2.1,2.8-1.6,5C45,567.7,45.5,567.9,45.9,567.9z M163.8,665.1
			c1.4-2.1,2.8-3.9,4.1-6c-0.7-0.2-1.4-0.7-2.1-0.9c-1.4,1.6-2.8,3.2-4.1,4.8C161.9,664.6,161.9,664.6,163.8,665.1z M135.7,613.1
			c0.9,1.6,1.9,3,2.8,4.3c1.4-0.7,3.2-0.2,3.7-2.1c-0.9-0.9-1.9-1.9-2.6-2.5C138.5,613.1,137.3,613.1,135.7,613.1z M94.4,624.4
			c-0.9,0.7-1.6,1.6-2.3,2.3c-0.2,0.9-0.5,1.4-0.5,1.9c0.5,0.7,1.2,1.2,1.6,1.9c2.1-1.4,3-2.5,3-3.9c-0.2-0.5-0.5-0.9-0.7-1.4
			C95.1,624.9,94.6,624.7,94.4,624.4z M98.1,658.4c-1.6,2.5-3,5-3.5,7.6c0.7,0.7,1.2,1.2,1.6,1.6c0.9-2.5,2.1-5.3,3-8
			C98.8,659.1,98.3,658.9,98.1,658.4z M185.3,595.7c-0.9,0.9-1.9,2.1-3,3c-1.2,0.7-2.5,1.4-3.2,2.8c0.5,0.5,1.2,0.9,1.9,1.6
			c1.9-2.3,4.3-3.7,5.5-6.4C186,596.1,185.8,595.9,185.3,595.7z M124.5,581c-1.6,0.2-3.2,0.5-4.8,0.7c0,0.7,0,1.6,0,2.3
			c1.4,0.2,2.1,1.6,3.7,1.2C124.5,584.2,124.9,582.6,124.5,581z M59.9,585.6c1.2-0.7,0.9-1.6,0.7-2.8c-0.9,0.5-1.4-0.7-2.6-0.2
			c-0.9,0.5-2.1,0-3.5,0c-0.2,0.7-0.5,1.2-0.7,1.9C55.8,585.6,57.9,585.6,59.9,585.6z M43.6,560.8c-0.9,0-1.9,0-2.3,0
			c-1.2,1.6-0.7,3.2-0.9,4.6c0.5,0.5,0.7,0.7,1.2,0.9C44.5,563.8,44.8,562.8,43.6,560.8z M50.3,595.7c1.4,1.4,2.8,2.8,4.3,4.3
			c1.2,0.2,1.6-0.7,2.1-1.4c-0.9-0.9-1.9-1.9-2.8-2.8C52.6,594.5,51.6,594.5,50.3,595.7z M74.9,634.3c1.2-1.6,1.2-1.6,0-3
			c-2.1,0.2-4.1-0.5-6.2,0.7c0.2,0.5,0.5,0.9,0.7,1.4C71.2,633.9,73.3,634.1,74.9,634.3z M92.5,632.5c-0.9-0.7-1.2-2.1-2.8-2.5
			c-0.5,0.9-1.2,1.9-1.9,2.5c0.9,1.9,0.9,1.9,2.3,2.8C91.9,634.8,91.9,634.8,92.5,632.5z M177.3,593.9c1.9-0.7,3.5-1.2,5-1.9
			c0.2-0.5,0.5-0.9,0.7-1.4c-2.1-0.2-3.9-0.5-5.7-0.7c-0.5,0.7-0.7,1.2-0.9,1.6C176.6,592.3,176.8,593,177.3,593.9z M50.6,573
			c2.8,0,3.9-1.9,5.3-3c-0.2-1.4-0.2-1.4-1.9-2.5C52.3,568.6,51.4,570.6,50.6,573z M168.3,671.7c0.7-0.7,1.4-1.2,1.6-1.6
			c0.5-1.9,1.2-3.5,1.6-5.3c0.2-0.5,0-0.9,0-1.6c-2.1,0.2-1.6,2.3-2.6,3.2c-0.9,0.7-0.9,2.3-1.2,3.7
			C167.6,670.3,168.1,671,168.3,671.7z M59.1,581.2c1.2-0.7,1.4-1.6,1.2-2.3c-0.2-0.5-0.7-0.9-1.4-1.6c-1.4,1.6-3.9,1.4-5.5,3.2
			C55.6,581,57.4,581,59.1,581.2z M121.3,590.4c0.9-0.9,1.4-1.4,2.1-2.1c0-0.2-0.2-0.7-0.5-1.2c-1.4,0-2.8-1.4-4.1-0.5
			c-0.2,0.7-0.5,1.2-0.7,1.9C118.9,589.3,119.9,590.4,121.3,590.4z M195.4,558.5c-1.4,0.5-1.9,1.9-2.3,2.8c0.2,0.5,0.5,0.9,0.5,1.4
			c0.5,1.6,1.2,1.9,2.8,0.7c0-1.4,0-2.8,0-3.9C196.1,559.2,195.9,559,195.4,558.5z M104,622.1c0.2-0.7,0.5-1.6,0.7-2.5
			c-0.9-0.7-0.2-2.3-1.9-2.5c-0.7,0.5-1.4,0.9-2.3,1.4c0.7,1.4,1.2,2.5,1.6,3.5C102.6,622.1,103.3,622.1,104,622.1z M135.5,593.2
			c0.7-0.2,1.2-0.5,1.6-0.7c0-0.7,0-1.6,0-2.5c-0.9-0.5-1.6-1.2-2.3-1.6c-0.7,0.2-1.2,0.5-1.4,0.7c0,0.5,0,1.2,0,1.6
			C134.1,591.4,134.8,592.3,135.5,593.2z M182.5,582.2c-0.9-2.1-2.8-2.3-4.1-3.2c-1.2,0.7-1.2,1.6-0.9,2.8c1.4,0.2,2.6,1.6,3.9,0.9
			C181.9,582.4,182.3,582.2,182.5,582.2z M90,639.8c0.2-0.7,0.7-1.2,0.9-1.9c-0.9-0.9-1.9-1.6-2.8-2.5c-0.2,0-0.5,0-0.9,0
			c-0.2,0.9-0.5,2.1-0.7,3c0.7,0.5,1.4,0.9,2.1,1.4C88.9,639.8,89.3,639.8,90,639.8z M60.1,655.2c0.9,2.8,1.6,4.8,2.6,7.1
			c0.9-0.5,1.6-0.9,2.5-1.6C63.2,659.1,62.9,656.6,60.1,655.2z M148.8,648.3c-1.4-1.6-2.6-1.6-4.1-0.2c-0.9,0.9-1.9,2.3-1.4,2.8
			c0.5,0,1.2,0,1.6,0C146.3,650.2,147.5,649.2,148.8,648.3z M144.7,618c-0.9,0.9-1.6,1.6-2.6,2.3c0.5,1.2,1.6,1.6,2.8,2.1
			c0-0.9,0-1.9,0-2.8c0.7,0,1.2,0,1.6,0s0.9,0.2,1.6,0.5c-0.2-0.7-0.5-1.4-0.9-1.4C146.3,618.2,145.1,618.2,144.7,618z M70.5,619.3
			c0.2-1.2-0.7-1.6-1.4-2.5c-1.4,1.2-3,2.3-4.3,3.5c-0.2,0.2-0.2,0.7-0.2,1.2C66.4,620.7,68.4,620,70.5,619.3z M197.3,559.4
			c0.9,1.6,0.2,3.9,2.8,3.7c0.2-0.5,0.5-0.9,0.7-1.4c0-0.9,0-1.9,0-3.2C199.5,558.7,198.6,559,197.3,559.4z M133.9,640
			c-0.2,1.6-0.5,3.2-0.7,4.8c1.9-0.7,2.3-2.3,3.5-3C136.4,639.3,135.7,638.9,133.9,640z M112.3,563.1c1.9-1.2,3.9-1.9,5.3-3.5
			c-1.2-0.7-0.9-0.9-2.6-0.7c-0.9,1.4-2.8,2.1-3.5,3.7C111.8,562.8,112.1,562.8,112.3,563.1z M93.9,607.4c0.5-0.5,0.7-0.7,0.9-0.9
			c0.2-1.6-0.2-3.2,0.5-4.6c-0.2-0.2-0.7-0.5-0.9-0.9c-1.4,1.6-1.4,3.7-2.1,5.5C92.5,606.7,93.2,607,93.9,607.4z M148.6,670.8
			c1.2,0,2.1,0,3.2,0c0.2-0.9,0.5-1.6,0.7-2.5c-1.4-1.6-2.6-0.5-3.7,0C148.6,669.2,148.6,669.9,148.6,670.8z M130.5,601.9
			c0.7,0,1.2,0,1.9,0c0.2-0.2,0.5-0.5,0.7-0.7c-1.4-1.2-2.3-2.8-4.1-3c-0.2,0.5-0.7,0.9-0.9,1.4C128.6,600.3,129.5,601,130.5,601.9z
			 M74.9,666.7c-0.9,0-1.6,0-2.6,0c-0.9,0-1.9,1.2-2.1,2.3c1.6-0.7,2.8,1.2,4.1,0.2C74.7,668.2,74.9,667.6,74.9,666.7z M38.1,559.4
			c-0.7,0.7-1.2,1.2-1.6,1.4c0.2,1.4-0.5,2.8,0.9,3.5C39.7,562.1,40,561.1,38.1,559.4z M73.5,659.4c-1.4-0.5-2.1-1.6-3-2.5
			c-0.9,0.9-1.9,1.9-1.9,3.2c1.4,0,2.8,0,4.1,0C73,659.8,73.3,659.6,73.5,659.4z M69.1,666.5c0.2-0.9,0.5-2.1,0.7-3
			c-1.2,0-1.9,0-2.6,0c-0.2,0.5-0.7,0.7-0.9,0.9c0.2,0.5,0.5,0.9,0.7,1.2c-0.2,0.2-0.5,0.7-0.5,0.9c0.2,0.2,0.7,0.7,0.9,0.9
			C67.9,666.9,68.4,666.7,69.1,666.5z M132.1,648.8c1.6,0.5,0.5,2.3,2.3,3c0.7-0.9,2.1-0.7,3-2.1
			C135.5,649.5,134.6,647.6,132.1,648.8z M89.6,668.5c-1.4-0.7-1.9-0.9-2.6-1.2c-0.9,0.7-1.9,1.4-2.6,2.1c0.5,0.5,0.5,0.5,0.7,0.9
			c0.7,0,1.6,0,2.3,0c-0.2-0.2-0.2-0.2-0.5-0.5C88,669.2,88.4,668.9,89.6,668.5z M136.2,586.7c1.2,0.7,1.2,2.8,3.2,3.2
			c-0.2-0.7-0.5-0.9-0.5-1.4c0-0.7,0-1.2,0-1.9c-0.7-0.5-1.2-1.2-1.9-1.6C136.9,585.6,136.6,586.1,136.2,586.7z M33.6,563.5
			c0.2,0,0.5,0,0.7,0c0.2-0.9,0.7-2.1,0.9-3c-0.7-1.2-1.9-1.2-2.8-0.9C31.9,561.3,33.3,562.1,33.6,563.5z M65.7,669.9
			c0.7-1.6-0.2-3-0.9-4.3c-0.2-0.2-0.5-0.5-0.9-0.7c0,1.2,0,1.9,0,2.5c0.5,0.9,0.9,1.9,1.4,2.5C65.2,669.9,65.5,669.9,65.7,669.9z
			 M132.5,638.9c-1.2,0-1.9,0.2-2.8,0.2c0.2,0.7,0.7,1.2,0.7,1.6c0,0.5,0,0.9,0,1.6c1.4,0,1.6-0.9,2.1-1.4
			C132.5,640,132.5,639.6,132.5,638.9z M203.9,561.3c0-0.9,0-1.6,0-2.6c-0.9-0.5-1.6,0-2.3,0.9c0.2,0.9,0.5,1.9,0.9,2.8
			C203.2,562.1,203.5,561.8,203.9,561.3z M80.6,667.4c-0.9-0.2-1.6-1.2-2.8-0.5c0.2,1.2,0.5,2.1,0.7,3c0.7-0.2,1.4-0.5,2.1-0.7
			C80.6,668.7,80.6,668,80.6,667.4z M151.8,632.9c0-0.7,0-1.2,0-1.9c-0.2,0-0.2,0.2-0.5,0.2c-0.2-0.5-0.2-0.9-0.5-1.2
			c-1.9,0.5-1.2,1.9-1.9,2.8C150.2,632.9,150.9,632.9,151.8,632.9z M149.7,623.3c-0.7-0.7-0.9-1.4-1.4-1.9c-0.7,0.7-1.6,1.2-2.3,1.9
			C147.2,623,148.8,625.4,149.7,623.3z M72.1,662.3c-0.7,0.5-0.9,1.2-0.5,2.1c1.4-0.2,2.6-0.2,3.2-2.1
			C73.7,662.3,73,662.3,72.1,662.3z M48.5,613.8c1.6-0.9,0.9-2.3,1.2-3.7c-0.7,0.5-1.2,0.9-1.9,1.2C48,612,48.2,612.9,48.5,613.8z
			 M68.2,670.3c-0.2,0.7-0.7,1.2-1.2,1.9c0.7,0,1.2,0,1.4,0s0.7,0.2,0.9,0.5c0.2-0.5,0.5-0.9,0.7-1.4
			C69.6,671,69.1,670.8,68.2,670.3z M83.6,667.2c0.5-0.5,0.7-0.9,1.2-1.4c-0.5-0.5-1.2-1.2-2.1-0.5c-0.2,0.2-0.5,0.7-0.7,1.2
			C82.9,666.7,83.2,666.9,83.6,667.2z M108.6,559.4c0.5,0.5,0.7,0.7,0.9,1.2c0.7-0.2,1.4-0.7,1.9-0.9c0-0.2,0-0.5-0.2-0.9
			C110.4,559,109.7,559.2,108.6,559.4z M88.9,671.2c0.7,1.6,1.6,0.9,2.8,1.2C91.2,670.8,90,671.2,88.9,671.2z M78.5,663.4
			c0.5,0.9,1.2,1.2,2.1,0.7C80.2,663.4,79.5,663.2,78.5,663.4z M82.7,672.2c0-0.2,0-0.2,0-0.5c-0.2,0-0.7,0.2-0.9,0.2v0.2
			C82.2,672.2,82.5,672.2,82.7,672.2z M145.8,641.9v0.2c0.5,0,0.7,0,1.2,0v-0.2C146.5,641.9,146.3,641.9,145.8,641.9z"/>
		<path d="M319,674c-10.8,0-20.9,0-31.5-0.2c0-15.4,0.2-30.8,0.2-45.9c-0.5-0.5-0.7-0.7-0.9-0.9c-0.2,0-0.7,0-1.2,0
			c-12.2,0-24.3-0.2-36.7-0.2c-0.9,0-2.1,0.2-3.2,0.5c0,15.4-0.2,30.8-0.2,45.9c-0.5,0.5-0.7,0.7-0.9,0.9c-10.4,0-20.6,0-31.2-0.2
			c0-6,0-11.7,0-17.7c0-1.9,0-3.5,0-5.3c0-0.7,0.2-1.4-0.5-2.1c-0.2-0.2-0.2-0.9,0-0.9c0.9-1.2,0.5-2.5,0.5-3.7
			c0.2-20.9,0.2-41.8,0.2-62.4c0-1.4,0.5-2.8-0.5-4.1c-0.2-0.2-0.2-1.2,0-1.4c0.9-0.9,0.5-1.9,0.5-2.8c0-0.9-0.5-1.9,0-3
			c0.2-0.9,0-2.1,0-3.2c0-1.2,0-2.3,0-3.2c0-1.2,0-2.3,0-3.2c0-1.2,0-2.3,0-3.5c0.5-0.2,1.2-0.5,1.6-0.5c1.9,0,3.9,0,5.7,0
			c8,0,16.1,0,24.3,0.2c0,14.7-0.2,29.1-0.2,43.7c0.9,1.2,2.1,1.2,3.2,1.2c7.6,0,15.1,0,22.9,0c0.9,0,1.6-0.2,2.8-0.2
			c0.5,0,1.4,0.5,1.9,0.2c2.1-0.7,4.1-0.2,6.2-0.2c0.2,0,0.2,0.2,0.5,0.2c1.2-1.2,2.8,0,3.9-0.7c0.5-0.7,0.7-1.6,0.7-2.8
			c0-10.8,0-21.6,0.2-32.6c0-0.7,0.2-1.6-0.7-2.3c1.2-1.9,0.2-4.1,0.7-6c0.2-0.2,0.5-0.7,0.9-0.9c0.2,0.2,0.7,0.2,0.9,0.5
			c1.4-0.5,19.3-0.7,30.1-0.2c0,0.9,0,1.9,0,2.8c0,13.8-0.2,27.4-0.2,41.1c0,0.9-0.5,2.1,0.5,2.8c0.2,0.2,0.2,0.9,0,1.4
			c-0.9,1.2-0.5,2.5-0.5,3.9c-0.2,20.6-0.2,41.3-0.2,62C319.2,671.5,319,672.6,319,674z M307.7,598.7c-0.9,1.4-1.9,2.5-2.8,3.9
			c0.7,0.5,1.4,0.7,2.1,1.2c0.9-1.4,1.9-2.5,3-3.9c-0.9-0.5-1.4-0.7-2.5-0.9c0-0.5,0-0.9,0-1.4c-0.5-0.5-0.9-0.9-1.4-1.4
			c-0.9,0.7-2.1,1.6-3,2.3c0,0.9,0,1.4,0,2.1C305.2,601,305.9,598.9,307.7,598.7z M218.2,613.1c0-0.7,0-1.6,0-2.8
			c-0.9,0-1.9,0-2.6,0c0,1.9,0,3.7,0,5.5C217.2,615.9,217,614.1,218.2,613.1c0.2,1.4-0.5,2.5-0.9,3.7c-0.2,0.5-0.5,1.2,0.5,1.6
			c1.4-2.1,2.3-4.6,4.8-5.7c0.2,0.7-0.2,1.2-0.7,1.6c-1.6,1.4-2.8,2.8-3,5c1.4-0.7,2.5-1.2,3.7-1.9c0.2,1.4-1.6,1.6-1.6,3.2
			c0.5,0.2,1.2,0.7,1.6,0.9c2.3-1.6,4.1-3,6.2-4.3c0.2,0,0.5,0,0.5-0.5c0.2,2.3-1.9,1.9-2.8,2.8c-1.2,0.9-2.1,2.1-3.2,3.2
			c0.7,0.5,0.9,0.7,1.6,0.9c0.7,0,1.6,0,2.3,0c2.3-0.9,4.1-2.3,5.7-3.9c-1.2-0.9-2.3-1.9-3.5-2.5c-0.5-0.7-0.9-1.4-1.4-2.3
			c-2.1-0.2-3.5,0.7-4.3,2.8c-0.2,0-0.5,0-0.9,0c0-0.2,0-0.7,0.2-0.9c0.7-0.9,1.6-1.6,2.5-2.1c0.2,0,0.2-0.2,0.5-0.5
			c-0.5-0.5-0.9-0.9-1.2-1.4c-0.7,0-1.4,0-2.1,0c0-0.2,0-0.7,0-0.9C220.7,611.3,219.3,612,218.2,613.1z M312.4,663.9
			c-0.2-1.6,0.2-2.5,1.2-3.5c0.7-0.9,1.2-1.9,1.2-2.8c0-0.2-0.2-0.5-0.2-0.7c-0.7,0-1.2,0-1.6,0c-0.9,1.6-2.1,3.5-3.2,5.3
			C310.5,662.8,311.2,663.2,312.4,663.9c0.9,0.9,1.9,1.6,3.2,1.6c1.4-1.6,2.3-3.2,2.5-5.3c-0.5-0.2-1.2-0.7-1.6-0.9
			C314.1,660,314.1,662.5,312.4,663.9z M307.5,618.7c1.4-0.2,1.6,1.2,2.5,1.6c1.4,0.2,1.6-0.9,2.5-1.6c-0.7-1.2-1.2-2.3-1.6-3.5
			c0.2,0,0.5,0,0.5,0c0.7,0.9,1.2,1.6,1.9,2.3c0.7,0,0.9,0,1.6-0.2c-0.9-0.9-0.7-1.9-0.7-3c0.7,0.9,1.2,1.9,1.9,2.8
			c0.7-0.2,1.4-0.7,1.9-0.7c0-1.2,0-2.3,0-3c-0.2-0.2-0.5-0.5-0.7-0.7c-0.9,0-2.1,0-3,0c-0.2,0.5-0.2,0.7-0.5,1.2
			c-0.5-0.5-0.9-0.7-1.4-1.4c-0.7,0.2-1.6,0.5-2.1,0.7c0.2,0.9,0.2,1.6,0.5,2.3c-0.5-0.5-1.2-0.7-1.6-1.2c-0.7,0.5-1.6,0.9-2.3,1.4
			c0.2,1.2,0.5,2.1,2.3,5c-1.2-1.2-2.1-2.1-3.2-3.5c-0.7,0.7-0.9,1.4-1.6,2.1c0,0.2,0,0.7,0,1.2c0.7,1.6,2.3,1.6,3.2,2.1
			c0.5,0.2,0.9,0,1.4,0l0.2-0.2C309.1,621.9,309.1,621.4,307.5,618.7z M259,614.5c0.9,0.5,1.6,1.2,2.3,1.6c0.9-0.2,1.4-0.5,1.9-0.5
			c0.2-0.7,0.5-1.2,0.7-1.2c-0.2-1.4-0.5-2.3-0.5-3.5c-0.2-0.2-0.5-0.5-0.7-0.7c-0.9,0-1.6,0-2.3,0c-0.7,0.7-1.2,1.2-1.9,1.9
			C259.3,612.9,258.8,613.8,259,614.5c-0.5-0.7-0.9-1.4-1.6-2.1c-1.4,0.2-1.9,0.5-2.8,1.6c0.5,0.9,0.7,1.9,0.9,3
			c-0.7-0.7-1.4-1.4-2.3-2.3c-2.5,0.9-4.3,3-6,5.5c0.2,0.5,0.5,0.7,5.7,3.9c-2.1-1.2-3.9-2.1-6-3.2c0.2,1.6-2.1,1.9-1.2,3.5
			c2.1,1.4,4.1,0.5,6.2,0.9c0.5-0.5,0.7-0.7-4.1-3.9c0.9,0,1.6,0,2.8,0c0.2,0.2,0.5,0.7,0.9,1.2c0.7,0,1.2,0,2.1,0
			c0.2,0.7,0.7,1.4,0.9,2.1c1.2-0.9,0.9-1.9,0.5-2.8c-0.5-1.4-1.9-1.9-2.5-3.7c1.6,1.2,2.5,1.9,3.5,2.5c0.5-0.2,0.9-0.5,1.2-0.7
			c-0.2-1.2-1.2-2.1-1.2-3c0.2,0,0.7,0,0.9,0c0.2,0.5,0.2,0.9,0.5,1.2c0.7,0,1.2,0,1.9,0l-0.2-0.2c0.5-0.2,0.9-0.5,1.2-0.5
			C259.3,616.2,259.3,615.5,259,614.5z M226.7,593c-0.9,0-1.9,0-2.8,0c-0.5,0.9-0.9,1.6-1.4,2.3c1.2,1.6,2.1,3,3,4.1
			c1.9,0.9,2.6-0.9,3.7-1.2c0-0.5,0-1.2,0-1.6c-0.5-0.9-1.9-1.2-1.6-2.5c0.2,0,0.9,0,0.9,0.2c0.7,0.9,1.6,1.2,2.8,0.9
			c1.6-1.9,1.9-2.1,1.9-3.9c-1.4-1.2-2.8-2.1-3.9-3c-0.9,0-1.9,0-2.8,0c-0.5,0.9-0.9,1.6-1.2,2.5C225.5,591.6,226.9,591.8,226.7,593
			z M312.4,575.7c0.7,0,1.2,0,1.6,0c1.2-0.9,2.1-1.9,3.2-2.8c0.2-0.2,0.5-0.5,0.9-1.2c-1.4,0-2.3,0-3,0c0-0.9,0-1.4,0-2.3
			c0.9,0,1.9,0,2.5,0c0-1.4,0-2.5,0-3.7c-0.5,0-0.9,0-1.4,0c-1.4,1.4-2.8,3-3.9,4.3c-2.1,2.3-3.5,5-4.8,7.6
			c-0.2,0.5-0.2,1.2-0.2,2.3c1.4-1.4,2.5-1.4,3.5-0.5c0.9-1.2,1.9-2.3,2.5-3.5C312.7,576.4,312.7,576.2,312.4,575.7z M301.3,655.4
			c0-0.7,0-1.4-0.2-1.9c-1.9-2.1-2.3-5-3.9-7.3c-0.2-0.2-0.2-0.7-0.5-0.9c-0.2-1.9-0.9-3.5-1.4-5.3c-0.2-1.2-0.2-2.5-0.2-3.7
			c0.2-1.2,0.7-2.3,1.2-3.5c0.7-1.6,1.6-3.2,2.1-5c0.2-1.9,1.9-3.5,1.9-5.3c1.4-1.4,1.4-3.7,2.8-5.3c1.2-1.2,2.3-2.5,3.5-3.7
			c1.4-1.4,2.8-2.5,4.3-3.9c-0.2-1.4-1.9-1.4-2.3-2.5c-0.5-0.7-1.4-0.9-2.1-1.4c-0.7-0.5-1.6-0.9-2.1-1.6c-1.2-1.9-2.5-3.5-3.7-5.3
			c-1.9-2.5-2.3-4.6-2.3-7.1c-1.4-2.1-1.2-4.3-2.1-6.4c0.2-0.2,0.2-0.2,0.5-0.5c-0.2-0.2-0.5-0.5-0.5-0.7c0.2-0.9,0.5-1.6,0.5-2.3
			c0-1.2-0.2-2.5,0-3.7c0.9-3.7,2.3-7.1,4.6-10.1c0.9-1.2,1.9-2.1,2.6-3.5c0.5-0.7,1.2-1.4,1.9-1.9c1.6-1.2,3.2-2.6,4.6-3.9
			c0.2-0.2,0.2-0.5,0.2-0.9c-1.6,0-3.2,0-4.8,0c-2.5,2.8-6,4.6-8.5,7.8c-2.5,3-5.7,5.5-7.6,9.2c0,3,0,6.4,0,9.9
			c1.2,0.5,1.9-0.2,2.3-0.9c1.4,0,1.4,0,2.5,0.7c0,0.7,0,1.2,0,1.4c-0.7,0.9-0.9,1.4-1.4,1.9c-1.2-0.2-2.3-0.5-3.5-0.7
			c0,2.1,0,3.9,0,6c1.9,2.1,3.7,4.3,5.5,6.6c0.2,0.2,0.5,0.7,0.7,1.2c0.7,1.6,2.1,2.8,3.5,3.9c1.2,0.9,2.3,1.9,3.7,2.8
			c-0.7,0.9-1.4,1.9-2.1,2.8c-0.2,0.5-0.7,0.7-0.9,1.2c-2.8,5.3-6.2,9.9-9.2,14.9c-0.7,1.4-1.4,2.8-1.4,4.3c0,6.4,0,12.6,0,18.6
			c0.9,2.3,2.1,3.7,3.5,5c0.2,0.2,0.5,0.5,0.7,0.7c1.2,1.9,2.5,3.7,4.3,5.5c0.9,0.9,2.1,1.9,3,2.5c1.6,1.6,3.5,2.8,4.6,5
			c0.2,0.5,0.7,0.9,1.2,1.2c0.9,0.2,1.9,0.7,2.3,1.6c0.2,0.2,0.7,0.2,1.2,0.5c0.2-0.2,0.5-0.2,0.5-0.5c0.9,0.2,1.9,0.7,2.3,0.5
			c1.4-0.7,2.5-0.5,3.9-0.5c0.2,0,0.2,0,0.5-0.2c0-0.2,0-0.7,0-1.2c-0.7-0.7-1.4-1.9-2.5-2.5c-2.3-1.4-4.6-2.8-6.2-4.8
			c-0.7-0.7-1.6-1.2-2.3-1.9c-0.5-0.7-1.4-1.4-1.9-2.3C303.4,658,302.5,656.6,301.3,655.4z M219.8,608.1c0.7,0.5,1.2,1.2,1.9,1.2
			c3.2,0.5,5.3,2.8,7.6,4.6c3.2,2.5,5.5,6,7.6,9.7c1.9,3.5,2.6,6.9,2.8,10.8c0.7,0,1.2,0,1.9,0c0.5,0,1.2,0.2,1.9,0.2
			c1.2-3,0.2-6.2,0.7-9.2c-0.5-0.7-0.7-1.2-0.9-1.6c-0.7,0.7-1.4,0.7-2.1,0.2c-0.7-0.5-1.4-0.7-2.1-1.2c-0.5-0.9-1.2-1.9-1.9-2.3
			c-0.5-0.2-0.7-0.7-0.9-1.2c-0.5-2.1-1.9-3.2-3.7-3.9c-1.2-2.1-4.6-5.5-7.8-7.6c0.5-0.7,0.7-1.4,0.9-1.9c0.7-0.2,0.9-0.7,1.4-0.9
			c2.8-1.4,5.3-3.5,7.8-5c3.2-2.1,5.5-5,9.2-6.6c-0.2-1.6,0.5-3.2-0.5-4.8c-0.2-0.5-0.2-1.4,0.2-2.1c0.7-1.6,0.5-3.2-0.7-4.8
			c-1.2,0.9-2.3,0.7-3.5,0.7c-0.2-0.9-0.2-1.9,0.9-2.8c0.7,0,1.9,0.2,2.8,0.2c0.2-0.2,0.5-0.9,0.7-1.6c-1.9-2.5-2.8-6-5.5-7.8
			c0.2-1.4-0.7-1.9-1.4-2.6c-0.2-0.2-0.7-0.2-0.9-0.7c-1.2-1.4-1.6-3-3-4.3c-1.4-1.4-2.8-2.8-4.1-4.1c-0.2-0.2-0.2-0.2-0.2-0.2
			c-2.1,0-3.9,0-5.7,0c0.7,0.7,1.6,1.2,2.3,1.6c1.4,0.9,3,1.6,3.7,2.8c1.4,1.9,3,3.5,4.3,5.3c1.4,2.1,1.9,4.3,2.8,6.6
			c-0.5,3.2,0.7,6.4,0.5,9.7c-0.2,1.9-0.5,3.5-0.7,4.8c-0.7,1.4-0.9,2.5-1.6,3.5c-2.1,3.2-4.8,6.2-7.6,9
			C225,604.4,222.3,606.3,219.8,608.1z M276.5,603.3c-7.3,0-14.9,0-22.3,0c-0.9,0-1.9,0.5-2.8,0.2c-1.6-0.5-3.2-0.2-4.8-0.2
			c-0.7,0-1.6,0.5-2.3,0.7c-0.2,0.7-0.5,1.2-0.7,1.6c0.2,0.2,0.5,0.5,0.5,0.7c0,4.3,0,9,0,13.1c0.5,0.7,0.7,0.9,0.9,1.2
			c1.6-2.1,3.2-4.1,4.8-6.4c-0.5-0.5-0.7-1.2-1.6-0.9c-0.9,0.2-1.6-0.2-1.9-1.4c1.2-1.2,2.3-2.8,4.3-2.6c0.2,0.9,0.2,1.9,0.5,2.8
			c0,0,0.2,0.2,0.7,0.7c2.8-1.2,5-3,7.8-3.9c0.9-0.2,1.9-1.2,2.5-0.9c0.9,0.2,1.9-1.6,2.8-0.2c2.1-1.4,3.9,0.7,6,0
			c0.9,0.9,2.3,0.2,3.2,0.7s2.1,0.5,3,1.2c0.2,0,0.5,0,0.5,0c1.2,1.2,2.3,1.6,3.7,2.3c0.2,0,0.2,0.2,0.5,0.5
			c0.5,0.5,0.9,0.9,1.4,1.4c1.6,1.4,3,3,3.9,5c0.5-0.5,0.9-0.7,1.2-0.9c0.5-1.4-0.2-2.8,0.7-4.1c0.5-0.7,0.5-2.1,0-3
			c-0.7-1.2-0.5-2.5-0.5-3.7c0-0.9,0-1.9,0-3c-2.3-1.2-4.6-0.2-7.1-0.7c-0.2,0.9-0.5,1.6-0.7,2.5l-0.2-0.2c-0.7,0.7-1.4,1.4-2.1,2.1
			c-0.5-0.5-1.2-0.9-1.6-1.6c0.2-0.7,0.5-1.4,0.7-1.9C277,603.7,276.7,603.5,276.5,603.3z M311.7,623c-2.1,0-3.5,1.2-4.1,2.5
			c-0.6,1.4-1.6,2.3-2.1,3.9c-0.5,1.4-1.6,2.8-1.9,4.1c-0.2,1.9-0.5,3.7,0,5.3c0.9,2.5,1.4,5.5,3,7.8c0.2,0.2,0,0.7,0,0.9
			c0.9,0.2,1.4,0.7,1.9,1.6c0.5,1.2,1.2,2.1,2.3,2.5s2.3,1.9,3.2,2.5c0.2-0.9,0.7-1.9,0.9-2.5c0.7-0.5,1.4-0.7,1.9-0.9
			c0.2-0.9,0.5-1.6,0.9-2.3c-1.2-0.7-1.9-2.1-3-3c-0.9-1.2-1.9-2.3-2.5-3.5c-1.6-2.3-1.9-5-1.6-7.8c1.6-2.3,3-5,5.3-6.9
			c0.2,0,0.7,0,0.9,0c0.2-0.5,0.5-0.9,0.7-1.4c0-0.2-0.2-0.2-0.5-0.5c0.9-1.9,0.5-3.7,0.5-4.8c-0.5-0.9-0.7-1.4-0.7-1.9
			C315.1,620.3,312.1,619.8,311.7,623z M224.6,666.2c0.7-0.7,0.9-1.4,1.9-1.9c0.9-0.5,1.9-0.9,2.8-1.6c1.2-0.9,2.3-1.9,3.2-2.8
			c1.2-0.9,2.1-2.1,3.2-3c0.9-0.9,2.1-1.9,3-2.8c1.4-1.2,2.5-2.8,4.1-3.7c0.9-0.7,1.2-1.4,1.4-2.3c0.2-0.7,0-1.4,0-1.9
			c-0.9-1.9-2.1-0.5-3-0.5c-0.5-0.5-0.7-0.7-1.2-1.2c0.7-0.5,1.4-0.9,2.1-1.6c0.2,0,0.7,0,1.2,0l0.2-0.2c0.9-2.1,0.9-4.1,0-6.2
			c-0.2,0.2-0.7,0.7-0.7,0.7c-1.6,0.5-2.8-0.2-3.5,1.2c0.2,2.1-0.7,4.3-1.2,6.4c-0.7,3.5-2.3,6.4-4.6,8.7c-2.1,2.1-4.1,4.3-6.2,6.2
			c-2.1,1.9-4.1,3.5-6.6,4.6c-0.9,0.5-1.9,1.2-2.8,1.9c1.6,0.9,3.2,1.4,4.3,2.5c2.1,2.3,2.1,2.1,5.5,3.2c0.2-0.2,0.5-0.5,0.7-0.7
			C227.1,669.6,225.7,667.9,224.6,666.2z M220.5,650.9c0.9-0.7,2.3-0.9,2.5-2.3c-0.7-0.5-1.6-0.7-2.5-1.2c0.2-0.9,0.5-1.6,0.7-2.1
			c1.6-0.9,2.5,0.2,3.5,1.2c1.2-1.2,2.1-1.9,2.3-3.5s0.9-3,0.9-4.6c0-1.4,1.4-3,0-4.6c-0.5-3.7-2.1-6.9-5-9.2
			c-1.4-1.2-3-2.3-4.6-3.2c-0.9-0.5-1.9-1.2-2.8-0.7c0,0.9,0,2.1,0,3c1.2,0,2.3,0,3.2,0.2c0,0.7,0,1.4,0,1.9
			c-0.2,0.2-0.5,0.5-0.9,0.9c-0.7,0-1.6,0-2.3,0c0,0.7,0,1.4,0,1.9c1.2,0.7,2.5,1.4,3.5,2.1c0.5,0.9,1.2,1.4,1.6,2.1
			s0.9,1.4,1.4,1.9c0.5,1.6-0.7,3.5,0.7,4.6c1.2-0.2,2.1-0.5,3-0.5c0.5,0.5,0.7,0.9,0.9,1.4c-0.7,0.5-1.2,0.9-1.6,1.4
			c-1.2-0.5-2.1-0.7-2.8-0.9c-0.5,1.6-1.2,3-1.6,4.1c-2.1,1.4-4.3,2.1-5.5,3.9c0,0.7,0,1.2,0,1.9c1.4-0.2,2.8-0.5,3.9-0.7
			C219.8,650.2,220.2,650.6,220.5,650.9z M225.3,658c0.7,0,1.2,0,1.6,0c0.9-0.9,1.9-1.6,2.3-2.3c0-0.9-0.2-1.6-0.2-2.3
			c0.5,0.5,0.7,0.7,0.9,0.7c1.6-0.7,2.8-1.6,3.7-3c-0.5-0.5-0.7-0.7-0.9-0.9c-0.5-0.5-0.9-0.7-1.2-1.2c-0.2-0.2-0.9-0.5-0.7-0.9
			c1.6-0.9,2.1,1.6,3.5,0.9c1.4-1.2,1.9-3,1.9-4.8c-1.2-0.7-2.3-1.6-3.5-2.1s-2.3-0.9-3.7-1.4c-0.2,1.2-0.5,2.3-0.7,3.9
			c0.5,0.5,1.2,1.2,1.6,1.6c-0.2,0-0.5,0.2-0.5,0.5c-0.5-0.5-0.9-0.7-1.2-0.9c-0.7,0.5-1.4,0.9-1.9,1.2c0,0.7,0,1.4,0,1.9
			c-1.4,0-2.1,0.2-2.3,1.9c0,0.9-0.5,1.6-0.2,2.8C224.1,655.2,224.8,656.6,225.3,658z M221.2,572.5c-0.2-0.5-0.5-1.2-0.7-1.4
			c-0.5-0.5-0.9-0.9-1.4-1.4c-1.2,0.5-2.3,0.9-3.5,1.2c0,1.2,0,1.9,0,2.8c1.9,1.4,3.5,3,4.6,5c0.5,0,1.2,0,1.6,0
			c1.2,1.9,1.2,1.9-0.7,3c-0.2,0.9-0.2,2.1,0.9,2.6c0.5,0,1.2,0,1.6,0c0.2,0.5,0.5,0.9,0.7,1.4c-0.2,0.2-0.5,0.5-0.7,0.7
			c-0.9,0-1.9,0-2.8,0c-0.9,2.8-1.9,5.5-5.3,6.2c0,0.7,0,1.2,0.2,1.6c0.7-0.2,1.4-0.7,1.4-0.7c0.7,0.2,1.2,0.5,1.9,0.9
			c-0.9,0.7-1.2,1.2-2.1,1.4c-1.2,0.2-1.2,0.5-0.9,2.1c1.6,0,2.1-1.6,3.2-2.1c1.6-0.5,2.3-1.9,3.5-3c-0.7-0.7-1.4-1.2-1.9-1.9
			c0-0.2,0-0.5,0.2-0.9c0.7,0.2,1.6,0.5,2.3,0.7c0.7-0.9,1.4-1.9,1.9-2.5c0-1.2,0-2.1,0.5-3.2c0.5-0.9-0.5-2.1,0.7-3
			c0.2-2.8-0.7-5-2.1-7.1c-0.2-0.5-1.2-0.7-1.9-1.2c-0.2,0.5-0.7,0.9-0.9,1.2c-0.9,0-1.6,0-2.3,0c0-0.5,0-0.9,0-1.4
			C219.6,573.4,220.2,573,221.2,572.5z M318.1,593.7c-0.7-0.5-1.4-1.4-2.3-1.6c-1.9-0.7-3.2-1.9-3.9-3.5c-0.2-0.2-0.5-0.5-0.9-0.7
			c-0.5,0.7-0.9,1.4-1.2,1.9c-0.7-0.2-1.6,0.2-2.8-0.5c0.9-0.9,1.6-1.6,2.1-2.3c0.5,0.2,0.7,0.5,1.4,0.7c0-0.5,0-0.9,0.2-1.2
			c0.2-0.5,0.2-0.7,0.2-0.5c-0.2-1.9-0.2-3.2-0.5-4.6c-1.4,0.2-2.5,0.5-3.7,0.7c0,0-0.2,0.2-0.7,0.5c-0.2,3,0,6,0.5,8.7
			c0.5,0.9,0.7,1.9,1.4,3.2c0.2,0.5,0.7,1.2,1.4,1.9c0.5,0.7,1.2,1.4,1.9,1.9c1.6,1.2,3.2,2.1,4.8,3.2c0.9,0.7,1.9,0.5,2.3-0.9
			c0.2-0.5,0-0.9,0-1.4c-0.5-0.5-0.9-0.9-1.4-1.4c-0.5,0-0.7,0-1.2,0l0.2-0.2c-0.5-0.2-0.9-0.2-1.2-0.5
			C315.5,595.4,318.3,596.1,318.1,593.7z M302,597.8c1.2-1.9,3.9-1.4,3.9-3.9c-0.7-0.5-1.2-0.7-1.6-1.2c1.2-0.9,0.5-2.1,0.7-3.2
			c-0.5-0.2-0.9-0.5-1.2-0.7c0.9-0.7,0.9-1.6,0.5-2.3c-0.5-0.9-0.5-1.4,0-2.1c0.2-0.2,0-0.7,0-0.9c-0.2-0.5-0.5-0.7-0.7-0.9
			c-0.9,0.2-1.6,0.5-2.3,0.5c-0.7,0-1.6,0-2.5,0c-0.2,0.7-0.5,1.4-0.7,1.9c1.9,0.7,2.8,0.9,4.1,0.2c0.2,0.2,0.7,0.5,0.9,0.7
			c-1.6,1.4-3.5,0.7-5.3,0.9c0.2,0.7,0.7,0.9,0.9,1.6c1.2-0.2,2.5-0.5,3.7-0.5c0,0.2,0,0.2,0,0.5c-1.2,0.5-2.3,0.7-3.2,1.2
			c0,1.9,0,1.9,2.1,4.6c-0.2,0.7-0.7,1.2-0.9,1.6C301.1,596.1,301.3,596.8,302,597.8z M260.7,625.1c0.2-0.7,0.2-1.4,0.5-1.9
			c0.2-1.4,0.9-2.5,2.1-3c1.2-0.5,2.1-1.2,3.2,0c1.4-0.5,1.9,1.4,2.8,1.4c0.9,1.2,1.4,2.3,2.1,3c1.9,0,3.5,0,5,0
			c-0.2-0.9-0.5-1.4-0.7-2.1c-1.4,0-2.5,0-4.3,0c0.9-1.2,1.6-1.9,2.3-2.8c-0.7-0.5-1.2-1.2-1.6-1.6c-0.5,0.7-0.9,1.6-1.6,2.3
			c-0.7,0-1.4-0.2-2.1-0.2c0.5-1.2,0.9-2.1,1.4-3c-1.6,0-3,0-4.3,0c-0.7,0.7-1.4,1.4-2.1,2.1c-1.2-1.4-2.1,0-3.2,0.2
			c0,0.7,0,1.6,0,2.5c-0.7,0-1.4,0-1.6,0c-0.9,0.7-1.4,0.9-1.6,1.4c0,0.5,0,0.9,0,0.9C257.9,625.4,259,625.1,260.7,625.1z
			 M304.7,578.4c0.5-0.9,1.9-1.4,1.2-2.5c-1.6-0.9-3.2-2.1-4.8-3.2c-1.2,0.9-1.9,2.1-1.6,3.5c1.2,0.2,2.1,0.7,3.7,0.9
			c-0.9,0.2-1.6,0.9-1.9,0.7c-1.2-0.5-1.9,0.2-2.8,0.2c0,1.4,0,2.6,0,3.7c2.1,0,3.9,0,6,0c0.2-0.9,0.7-1.6,0.9-2.5
			C305.2,578.9,304.9,578.7,304.7,578.4z M263.8,610c0,1.9,0.2,3.5,1.4,4.8c0.9-0.2,1.6-0.7,2.3-0.9c0-0.5,0.2-0.9,0.2-2.1
			c0.5,2.5,2.1,2.8,3.7,3.2c0.7-1.6,3-1.9,3.2-4.1c-0.5-0.2-0.9-0.5-1.6-0.9c-2.3,0-4.8,0-7.1-1.2
			C265.5,609.5,264.8,609.7,263.8,610z M227.4,564.2c-2.6,0.9-4.3,2.8-6,4.6c0.5,0.5,0.7,0.7,0.9,0.9c2.1-1.2,3.9-2.5,6.9-2.8
			c-0.7,0.9-1.2,1.6-1.4,1.6c-1.6,0.2-2.5,1.2-3.5,2.1c-0.2,0.2-0.5,0.7-0.5,1.2c3.2,0.7,5.7-0.7,8.3-1.6c0-0.5,0-0.9,0-1.2
			c-0.9-0.7-1.9-1.2-2.5-2.1C229.2,565.9,228.3,565.2,227.4,564.2z M235.9,584.2c-0.9-0.5-1.9-1.2-2.6-1.2c-0.9,0.2-1.6-0.2-2.5-0.2
			s-2.1,0-2.8,0c-1.2,0.9-0.9,1.9-0.7,2.8c2.1,1.4,4.3,2.8,6.6,4.1C234.7,588.1,235.2,586.3,235.9,584.2z M236.8,637.3
			c-1.4-0.2-2.3-0.5-3.5-0.7c-1.2-0.2-2.3,0-3.5,0c0,0.9,0,1.9,0,3c1.9,1.2,3.7,2.3,5.7,3.2c0.5,0.2,1.4-0.2,1.6-0.5
			c0.5-1.4-0.5-2.8,0.7-3.7C237.5,637.9,237,637.5,236.8,637.3z M228.1,580.8c2.3,0.2,4.3,1.6,6.6,1.2c0.2-0.2,0.7-0.5,0.9-0.9
			c-0.2-0.5-0.5-0.9-0.7-1.4c0.2-0.5,0.5-0.7,0.7-1.4c-0.7-0.5-1.4-0.9-2.1-1.4c-1.9,0.9-3.9,0-5.7,0.5c-0.2,0.2-0.5,0.5-0.7,0.7
			C227.4,579.1,227.6,579.8,228.1,580.8z M226.7,576c2.5,0,4.8,0,7.1,0c1.2-1.9,0.9-2.3-0.9-4.3c-2.3,0.9-4.6,1.6-6.9,2.5
			C226.2,574.6,226.4,575.3,226.7,576z M221.9,603.9c1.2-0.7,2.8-0.7,3.2-2.1c-0.7-1.4-1.2-3-1.9-4.3c-0.9-0.2-1.6-0.5-2.3-0.7
			c-0.5,0.9-0.9,1.6-1.4,2.3c0.5,1.4,0.9,2.5,1.4,3.9C220.9,603,221.4,603.5,221.9,603.9z M304.7,568.6c-0.7,0-1.4,0-2.1,0
			c-0.2,1.2-0.5,2.1-0.7,3c1.2,1.2,2.3,2.1,3.2,3c0.5,0,0.9,0,1.6,0c0.5-0.7,0.7-1.4,1.2-2.1C307,571.1,305.9,569.8,304.7,568.6z
			 M216.1,600.5c0,2.3,0,4.1,0,6c1.4,0.2,2.8,0,3.7-0.7c0.2-0.7,0.5-1.2,0.7-1.2c-0.2-1.2-0.2-1.9-0.5-2.5c0,0,0-0.2,0,0.2
			c-0.9-0.9-1.4-1.6-2.1-2.5C217.2,600.3,216.8,600.5,216.1,600.5z M280.6,614.3c-1.9,1.4-4.3,1.6-5,3.7c0.5,0.9,0.7,1.4,1.2,1.9
			c2.5,0,3.7-2.3,5.7-2.3c0-0.7,0-1.4,0-1.9C282,615,281.5,614.8,280.6,614.3z M309.3,654c-1.2,1.4-2.3,2.8-3.2,3.9
			c-0.2,1.4,0.9,1.6,1.4,2.3c0.7,0,1.4,0,1.9,0c0.5-0.7,1.2-1.4,1.6-2.1c0.5-0.7,0.7-1.6,1.2-2.5C311,654.9,310.3,654.5,309.3,654z
			 M229.7,634.1c2.5,1.4,5,2.1,7.8,1.9c0.2,0,0.2-0.2,0.5-0.2c0-0.9,0-1.6,0-2.3c-2.5-2.1-5-0.2-7.3-0.2
			C230.1,633.6,230.1,633.9,229.7,634.1z M301.8,638.4c-1.4,1.4-3.7,1.2-4.6,3.2c0.9,0.9,0.2,2.5,1.9,3.2c1.4-1.2,2.5-2.1,3.9-3
			C302.7,640.5,302.2,639.6,301.8,638.4z M221.9,652.6c-0.5,0.7-0.7,0.9-1.2,1.4c-0.5,2.5,1.2,4.6,1.2,7.1c0.5,0,0.9,0,0.9,0
			c0.7-0.5,1.4-0.9,1.9-1.4C223.6,657.7,223.6,654.9,221.9,652.6z M229.4,631.1c0,0.2,0.2,0.5,0.2,0.5c1.2,0,2.5-0.5,3.5,0
			c2.1,1.2,3.2-0.2,4.8-0.7c-0.5-0.9-0.7-1.9-1.2-3c-1.2,0.2-2.1,0.5-2.8,0.7c-0.9,0.5-1.9,1.2-3.2,1.2
			C230.4,629.9,229.9,630.6,229.4,631.1z M303.2,631.8c-2.3-1.9-2.3-1.9-4.6-0.7c-0.2,1.4-0.5,2.8-0.7,4.1c1.6,0,2.8,0,3.9,0
			C302.2,634.1,302.7,632.9,303.2,631.8z M235.6,624.9c-2.8,0.2-5,1.4-7.3,3c-0.2,0.2-0.2,0.5-0.2,0.9c1.9,0,3.2,0,4.6,0
			c1.4-0.7,2.6-1.4,3.9-1.9C236.1,626.3,235.9,625.8,235.6,624.9z M304.1,647.4c-0.9,0.9-1.9,1.9-2.8,2.8c0,0.5,0,0.9,0.2,1.4
			s0.5,0.9,0.7,1.4c1.6,0.2,2.3-1.4,3.5-1.9c0.5-0.2,0.5-0.9,0.7-1.6c-0.2-0.5-0.5-1.2-0.7-1.4C304.7,647.8,304.3,647.6,304.1,647.4
			z M233.8,621.6c-0.7,0.2-1.4-0.2-2.1,0.5c-0.5,0.5-1.2,0.9-1.6,1.2c-0.7,0.5-1.4,0.7-2.1,1.2c-0.5,0.5-1.2,0.9-1.9,1.6
			c1.4,0.2,2.5,0.2,3.5-0.5c0.7-0.5,1.4-0.5,2.1-0.7c0.7-0.2,1.4-0.5,2.3-0.5C235.2,623.3,234.7,622.6,233.8,621.6z M311,568.2
			c0.7-0.7,1.2-1.2,1.9-1.6c0-0.2,0-0.9,0-1.4c-0.2,0.2-0.2,0.2-0.5,0.5c-0.9-0.9-1.6-1.9-2.3-2.6c-0.7,0.7-1.4,1.4-2.3,2.1
			C308,566.8,310,567,311,568.2z M218.2,656.6c-0.5,1.9,0.2,3.7-0.7,5.5c-0.5,0.7,0.2,1.4,1.2,1.6c0.7-0.2,1.4-0.5,2.1-0.7
			c-0.9-2.1,0-4.3-0.5-6.4c-0.2-0.2-0.7-0.5-0.9-0.9C218.6,655.9,218.4,656.1,218.2,656.6z M274.6,617.5c1.4-1.2,2.8-2.5,4.1-3.7
			c0-0.2,0-0.5,0-0.9c-0.5-0.2-1.2-0.5-1.6-0.9c-2.1,0.9-3.5,2.3-4.3,4.3C273.3,616.6,274,617.1,274.6,617.5z M225,563.8
			c0.2-0.7-0.2-1.4-1.4-1.9c-0.9,0.5-2.1,0.9-3,1.4c-0.7,1.2-1.4,2.3-2.1,3.7c0.9,0,1.4,0,2.1,0C222.1,566.1,223.4,564.9,225,563.8z
			 M304.9,656.8c1.2-0.9,2.3-2.1,3.5-3c-0.2-1.6-0.2-1.6-1.9-2.5c-1.2,1.4-2.8,2.3-3,4.1C303.9,655.9,304.3,656.3,304.9,656.8z
			 M278.6,622.6c2.3-0.7,4.3-1.2,6.2-1.6c0-0.9,0-1.4,0-2.1c-1.6-0.2-3-0.2-4.3,0.7c-0.9,0.7-1.6,1.4-2.6,1.9c0,0,0,0.2-0.2,0.5
			C278.1,621.9,278.1,622.1,278.6,622.6z M300.4,649c1.6-1.2,2.8-2.1,3.7-2.8c0-0.7,0-1.4,0-2.1c-0.7-0.2-1.2-0.5-1.6-0.7
			c-1.2,0.9-2.1,1.9-3,2.8C299.7,646.9,299.9,647.8,300.4,649z M303.4,621.6c-0.5,0.5-0.9,0.9-1.4,1.2c-0.2,0.9-0.5,1.4-0.5,2.3
			c0.9,0.2,1.9,0.9,2.5,0.9c0.7,0,1.4-0.5,2.1-0.7c0-0.5,0-1.2,0-1.6C305.2,622.8,304.3,622.1,303.4,621.6z M313.4,565.2
			c1.2-0.9,2.1-1.6,3-2.1c-0.5-0.5-0.9-0.9-1.2-1.4c-0.2-0.5-0.5-0.9-0.7-1.2c-0.7,0-1.2,0-1.9,0c0.2,0.2,0.2,0.2,0.5,0.5
			c-0.7,0.2-1.4,0.5-2.3,0.9C312.1,563.1,312.7,564,313.4,565.2z M312.6,602.6c-0.5-0.9-0.7-1.4-0.9-1.6c-2.1,0.7-3.2,1.9-3.7,3.7
			c0.7,0.5,1.2,0.9,1.9,1.6C311.2,604.9,312.6,603.9,312.6,602.6z M306.8,565.9c-0.9-0.2-1.6,0-1.9,0.9c0.5,2.1,2.8,2.5,3.9,4.3
			c0.5-0.7,0.9-1.2,1.2-1.4C308.9,568.4,308,567.2,306.8,565.9z M278.8,624.7c2.5,0,4.8,0,6.9,0c0-0.7,0-1.4,0-2.1
			c-1.6,0.2-3,0.2-4.6,0.7C280.6,623.3,279.9,624,278.8,624.7z M220,560.6c-2.5,0.7-2.8,2.8-3.5,5.3c2.3-1.2,3.2-2.8,4.8-4.3
			C220.9,561.1,220.7,560.8,220,560.6z M314.1,603.3c-1.2,0.7-1.4,1.9-1.9,2.8c-0.7,1.4-0.7,1.4,1.2,2.5c0.7-1.4,1.4-2.8,2.1-4.1
			C315.1,603.9,314.6,603.5,314.1,603.3z M316,605.1c-0.2,1.4-0.5,2.8-0.7,4.1c0.2,0.2,0.5,0.5,0.7,0.7c0.5,0,0.9,0,1.4,0
			c0.2-0.7,0.5-1.2,0.7-1.6c-0.2-0.5,0-0.9-0.2-1.4c0-0.7-0.5-1.2-0.5-1.9C316.9,605.1,316.5,605.1,316,605.1z M301.1,629.7
			c1.4,0.2,2.8-0.2,3.2-1.6c0-0.2,0-0.2,0-0.5c-0.2-0.2-0.5-0.5-0.7-0.7c-1.2,0-2.3,0-3.5,0C300.1,628.1,299.9,628.8,301.1,629.7z
			 M297.6,639.1c0.7-0.2,1.6-0.5,2.3-0.7c-0.2-0.2-0.2-0.2-0.5-0.5c0.5-0.2,0.9-0.7,1.4-0.9c-0.2-0.2-0.2-0.2-0.5-0.5
			c-0.9,0-1.9,0-3.2,0c-0.2,0.7-0.5,1.2-0.7,1.9C297.1,638.6,297.4,638.9,297.6,639.1z M217,657.5c-0.7-0.2-1.2-0.5-1.6-0.7
			c0,2.1,0,4.1,0,5.9c0,0,0.2,0-0.2-0.2c0.5-0.5,0.9-0.9,1.4-1.4c0,0-0.2-0.2,0,0C216.5,659.8,216.8,658.7,217,657.5z M220.9,670.8
			c-1.4,0-2.5,0-3.7,0c0,0.2,0.2,0.2,0.2,0.5c-0.2,0-0.7,0.2-0.9,0.2c0.5,0.5,0.7,0.7,0.7,0.7c1.6-0.7,1.6-0.7,3.2,0.2
			c0.2-0.2,0.7-0.5,0.9-0.7C221.6,671.2,221.4,671,220.9,670.8z M214.9,654c1.4,0.2,2.3,0.5,3-0.7c-0.7-0.5-1.4-0.9-2.1-1.4
			C215.6,652.4,215.4,653.1,214.9,654z M215.8,562.4c1.2-0.5,1.9-0.9,1.6-1.9c-0.2-0.7-0.5-1.2-1.6-1.2
			C215.8,560.4,215.8,561.1,215.8,562.4z M315.5,559.9c0.7,0.5,1.2,0.9,2.1,1.4c0-1.2-0.2-1.9-0.2-3
			C316.7,559,316.2,559.4,315.5,559.9z M217,668.5c-0.9,0-1.9-0.7-1.6,0.5c0.2,0.5,0.2,0.7,0.5,1.4
			C216.3,669.6,216.5,669.2,217,668.5z M315.5,655.6c0.5-0.2,0.7-0.5,1.6-0.9c-0.9,0-1.4,0-1.6,0
			C315.5,654.9,315.5,655.2,315.5,655.6z"/>
		<path d="M475.4,567.2c0-1.4,0-3,0.5-4.6c0.5-1.4-0.2-3,0.5-4.3c0.5-0.9,0-2.1,0.2-3s0.5-2.1,0.9-3c0.9-2.3,1.9-4.3,3-6.4
			s2.3-4.1,3.7-6c2.3-2.8,4.8-5,7.3-7.3c2.8-2.5,6-3.7,9-5.7c1.9-1.2,4.1-1.2,5.7-2.8c2.1-0.2,3.9-1.6,6.2-1.6c1.6,0,3-0.7,4.6-1.2
			c1.4-0.5,3-0.2,4.3-0.9c0.5-0.2,1.2,0,1.6,0c4.1,0,8.5-0.2,12.6,0.2c2.8,0.2,5.5,0.2,8.3,1.6c2.5-0.2,4.6,1.9,7.3,1.9
			c3.5,2.3,7.3,3.2,10.4,6c0.9,0.9,2.5,1.4,3.5,2.5c2.1,2.3,4.6,4.1,6.4,6.6c1.6,2.3,3.2,4.3,4.8,6.6c0.9,1.6,1.9,3,2.3,4.8
			c0,0.2,0.2,0.5,0.5,0.7c1.2,2.6,1.9,5.3,2.5,8c0.2,1.6,0.5,3.5,0.9,5c0.5,1.6,0.2,3.5,0,5.3c0,1.4-0.5,2.8-0.5,4.1
			c0,1.3-0.5,2.5-0.9,3.7c0,0.2-0.2,0.2-0.2,0.5c0.5,3-1.4,5-2.5,7.6c-0.9,2.3-2.8,4.3-4.1,6.4c-1.6,2.1-3.5,3.7-5,5.5
			c-2.5,2.5-5.5,4.1-8.5,6.2c-0.7,0.5-1.6,0.9-2.5,1.4c-3,1.9-6.2,2.5-9.4,4.1c-0.2,0.2-0.7,0-0.9,0c-0.5,0.5-0.9,0.9-1.4,1.4
			c0,4.1,0,8.5,0,13.1c-1.9,0-3.5,0-5.3,0c-0.9,0-2.1-0.5-2.8,0.5h-0.5c-3.9-1.2-8-0.2-12.2-0.7c-1.4,0-2.8-0.2-4.1,0
			c-3.7,0.9-7.3,0.2-11,0.5c-0.2,0-0.5,0-0.7,0c-0.2-0.2-0.5-0.5-0.7-0.7c0-12.8,0.2-25.7,0.2-38.8c1.2-0.2,2.1,0,3.2,0.5
			c2.3,0.9,3.9,0.9,7.6,0c0.5,0,0.9,0,1.4,0c1.4,0.2,2.8,0,3.9-0.7c0.7-0.2,1.4-0.5,2.1-0.5c1.2-0.2,2.3-0.2,3.5-1.2
			c0.7-0.7,1.9-1.2,2.8-1.4c2.1-0.7,3.7-2.3,5-3.9c0.5-0.5,1.2-1.2,1.6-1.9c0.9-1.2,1.6-2.3,1.9-3.7c0.7-2.3,1.4-4.3,0.9-6.6
			c-0.2-2.1-1.2-3.9-2.1-5.7c-0.9-1.9-2.3-3.2-3.9-4.1c-2.5-1.4-5-2.3-7.8-2.3c-2.5,0-5.5,1.2-7.6,3c-0.9,0.9-1.6,1.6-2.3,2.3
			c-0.7,1.6-1.9,3-1.9,4.3c0,1.6-0.9,3-0.7,4.8c-0.5,0.2-1.2,0.5-1.6,0.7c-0.7-0.2-1.4-0.5-2.1-0.5c-3,0-6,0-8.7,0
			c-0.7,0-1.2,0-1.6,0.5c-0.5,0.7-0.7-0.9-1.6-0.2c-0.2,0.2-1.2,0.2-1.9,0c-2.1-0.5-2.1-0.5-4.3,0c-0.5,0.2-1.2,0.2-1.6,0
			c-2.3-0.2-4.6,0.5-6.6-0.5c-2.5,1.2-5,0.2-7.6,0.5C477.4,568.4,476.3,568.4,475.4,567.2z M497.9,533c0.2-2.1,2.1-1.6,3.5-2.3
			c0-0.2-0.2-0.5-0.2-0.9c-2.1-0.2-3,1.4-4.8,2.3C497.2,532.5,497.4,532.8,497.9,533c0.7,3,3.5,3.2,5.3,4.6c0.2-0.9,0.5-1.9,0.7-2.5
			c1.2,0,1.9,0,2.8,0c0,0.7,0,1.4,0,1.9c-0.5,0.7-1.4,0.7-0.9,1.9c1.6,0,3,0,4.6,0c0.2-0.2,0.7-0.5,0.9-0.7c-0.9-0.9-0.5-2.1-0.5-3
			c0.9,0,1.4,0,1.9,0c1.2,0.7,0.9,1.6,0.5,2.5c0.2,0.2,0.5,0.5,0.7,0.7c1.4-0.7,3-1.4,4.3-2.3c1.6-0.9,2.8-2.3,3.9-3.9
			c2.3-3.2,2.3-3,2.1-4.6c-0.9,0.5-2.1,1.4-3-0.2c0-0.7,0-1.2,0-1.9c0.7-0.2,1.2-0.5,1.9-0.7c0.7,0.7,1.2,1.4,1.6,2.1
			c0.7-1.6,1.4-3.5-0.9-5c-1.4,0.5-2.8,1.2-4.1,1.6c-0.2,3-1.6,5.3-3.7,6.9s-4.6,2.8-7.6,2.3c-1.9-0.2-3.7-0.7-5.7-1.2
			c-0.5,0.5-1.2,1.2-1.9,1.9C500,533.7,499,533.2,497.9,533z M551.6,527.3c-0.7-1.4-2.3-0.9-3-1.9c-1.2,1.2-1.9,2.1-2.3,3.7
			c-0.2,1.4,0,2.8-0.7,3.9c-0.7,1.4-0.7,2.8-0.2,3.7c0.7,1.6,0,3.5,1.2,5c1.4,1.9,2.8,3.7,4.3,5.7c1.6,2.1,3.7,3.2,6.2,4.1
			c1.9,0,3.9,0,6,0c2.5,0,4.8-0.9,6.9-2.8c0.9-0.9,2.1-1.9,3-3c0-0.7,0-1.2,0-1.6c-1.2-1.6-2.3-3-3.5-4.1c-2.1,1.4-4.6,1.4-6.2,2.1
			c-2.3-0.7-4.3-1.2-6-1.6c-2.1-3-2.5-6.2-3.5-9.2c1.4-2.6,1.4-2.6,0.2-3.9C553.2,527.3,552.3,527.3,551.6,527.3z M549.5,582.9
			c0.9-2.3,1.6-4.1,2.5-5.7c1.4-2.8,3-5.3,4.6-7.8c0.7-1.2,1.2-2.1,2.1-3c1.2-1.2,2.5-1.6,3.5-3c0-0.2,0.5,0,0.7-0.2
			c1.2-0.7,2.1-1.6,3.7-2.8c-1.6,0-2.8,0-3.9,0c-3.7,0-7.3,0-10.8-1.2c-2.3-0.7-6.4-2.1-8.3-3.5c-1.6-1.4-3.2-3.2-4.6-5
			c-2.1-3-3.5-6-4.8-9.4c-0.7-1.9-1.4-3.7-1.4-5.7c0-0.9,0-2.1,0-3c-0.2,0-0.5-0.2-0.5-0.2c-2.1,2.1-3.2,4.8-5.3,6.9
			c-2.1,2.3-5,3.7-7.3,5.7c0,0.9,0,1.9,0,2.8c-0.7,0.2-1.4,0.5-2.1,0.5c-0.5-0.5-0.9-0.7-1.4-1.2c0-0.5,0-0.9,0-1.4
			c-0.9,0-1.6,0-2.3,0c-0.7,0-1.6,0.5-2.3,0.5c-3,0.5-6-0.7-9.2-0.7h-0.2c-2.1-0.9-4.1-0.9-6.2-1.6c-0.7-0.2-1.4-0.2-1.9-0.7
			c-1.2-1.2-3-1.6-4.1-2.5c-0.7-0.5-1.6-0.7-2.3-0.9c-3,2.5-4.6,5.7-6.2,9c-0.5,0.7-0.5,1.4,0,2.3c2.3-1.4,3.9-3.7,6.6-4.6
			c-0.9-0.5-1.4-0.9-1.9-1.2c0-0.9,0-1.4,0-2.1c0.9,0,1.9,0,2.8,0c-0.2,1.2-0.5,2.1-0.7,3.2c0.5,0,0.9,0,1.4,0
			c0.7-0.2,1.4-0.7,2.1-0.5c0.7,0.2,1.2-0.9,1.9-0.2c0.5,0.5,1.4,0.2,2.1,0.2c3,0,5.5,1.2,8,2.5c2.3,1.4,4.6,2.8,7.1,4.3
			c0-0.9,0.2-1.6,0.2-2.1c0.5-0.7,0.9-1.2,1.4-1.6c0.7,0,1.2,0,2.1,0c0.2,0.7,0.5,1.2,0.7,1.6c-0.9,0.9-1.4,1.6-2.1,2.3
			c-0.5,0-0.9,0-1.4,0c1.4,1.6,2.5,3,3.9,4.6c0.5-0.5,0.7-0.9,0.9-1.6c0-0.5,0-1.2,0-1.9c1.4-1.4,3-2.8,4.3-4.3
			c1.2-1.6,2.5-3.5,3.9-5c0.7-0.7,1.2-1.4,1.6-2.3c0.7-1.4,1.4-2.8,3-3.7c0.5,0.5,0.7,0.9,0.9,1.4c0.5,1.9,1.2,3.9,2.6,5.3
			c1.4,1.6,2.5,3.5,3.5,5.3c0.5,1.2,1.4,1.9,2.5,2.8c1.9,1.4,3.7,3,4.6,5.5c4.1,1.9,4.1,1.9,8.7,1.9c1.6,0,3.2,0,4.6,0
			c0.2,0.2,0.5,0.5,0.7,0.7c0,0.7,0,1.4,0,2.1c-3.2,2.5-6.6,5.3-9.7,7.6c-0.2,2.3-0.5,4.1-0.7,6c-0.2,2.3-0.5,4.8-0.7,7.1
			c0,0.2,0,0.5-0.2,0.5c-0.7,0.7-0.2,1.4-0.5,2.1c-0.2,0.7-0.5,1.4-0.5,2.1c-0.5,1.9,0.2,3.9-0.5,5.9c-0.7,1.9-0.2,3.9-0.7,5.7
			c-0.2,1.2-0.5,2.3-1.6,3.2c-0.7-0.2-1.6-0.5-2.3-0.7c0.9,1.9,1.4,3.7,2.3,5c0.9,1.6,0.7,3.7,2.5,5c0-0.7,0.2-1.2,0.2-1.6
			c-0.2-1.9,0.2-3.5,0.7-5.3c0-0.7,0.5-1.4,0.5-2.1c-0.2-2.5,0.9-4.8,0.7-7.1c0-0.2,0.2-0.5,0.2-0.7c0.2-1.2,0.7-2.5,0.9-3.7
			c0.2-0.9,0.2-2.1,0.2-3c0.2-0.9,0.7-1.9,0.9-2.8c0.2-0.9,0.2-2.1,0.7-2.8C549.5,584.2,549.5,583.3,549.5,582.9z M578,580.3
			c0.5-1.4,0.5-2.8,0.9-3.9c0.9-2.5,1.2-5.3,1.4-8c0.2-2.3-0.2-4.6-0.5-6.9c-0.2-0.9-0.2-1.9-0.5-2.8c-0.2-0.9-0.5-2.3-1.9-2.3
			c-0.5,0.7-0.9,1.4-1.2,1.6c0.5,3.2,0.9,5.7,1.4,8.7c0.5,0.5,0.9,0.9,1.6,1.6c-0.7,0.7-1.4,1.2-2.3,1.4c-2.8,0.7-5.3,2.3-8,3.5
			c-1.6,0.7-3.2,1.9-4.8,3.2c-1.4,0.9-2.5,2.1-3.5,3.5c-1.2,1.4-1.9,3.2-3,4.8c-0.5,0.7-0.5,1.6-0.5,2.3c-0.7,3.2-0.9,7.8,0,10.1
			c0.7,1.6,0.7,3.2,1.2,4.8c1.4,0,1.6,0,3.2-0.9c2.5-1.6,4.8-3.2,6.9-5.5c-1.6-1.4-2.8-2.8-3.2-4.8c-0.7-2.1,0.2-3.7,0.7-5.5
			c-0.9-0.2-1.9-0.7-2.5-0.9c-0.2-0.5-0.5-0.9-0.7-1.2c0.5-0.5,0.9-0.9,1.4-1.4c1.2,0.5,2.3,0.9,3.5,1.4c1.2-0.9,2.3-1.4,3-2.3
			c0.7-0.7,1.4-0.7,2.1-0.5C574.5,580.8,576.2,580.1,578,580.3z M530.7,621.9c0.2-3.5-1.6-6.2-3-9c-0.5-0.9-1.2-1.9-1.9-2.5
			c-0.9-1.2-1.9-2.5-3-3.5c-1.6-1.2-3-2.5-4.3-3.9c-2.1-2.1-4.8-3-7.6-3.9c-0.2,0.5-0.5,0.7-0.9,0.9c0,3.9,0,8,0,12
			c0.2,0.5,0.5,0.7,0.7,0.9c1.6,0,3,0,4.1,0c3.7,1.4,3.5,4.8,4.6,7.3c0.5,0.7,0.9,1.2,1.2,1.6C524.3,621.9,527.3,621.9,530.7,621.9z
			 M560.6,567.2c-1.2,1.4-1.9,2.5-2.8,3.5c-1.6,1.9-2.5,4.1-3.5,6.2c-0.5,1.6-0.9,3-1.6,4.6c-0.5,1.2-0.9,2.3-1.6,3.2
			c-0.7,1.2-0.7,2.3-1.2,3.5c-0.7,2.3-1.9,4.6-1.2,7.1c2.1-0.2,4.1,0.5,5.7-0.7c0.2-0.9,0-1.9-1.2-2.1c-0.9-0.2-1.9-0.5-2.8-0.7
			c0-0.2,0-0.5,0-0.7c1.2-0.5,2.1,0,3,0.5c0.2-0.2,0.5-0.7,0.7-0.9c0.2-1.2,0.5-2.3,0.7-3.2c0-1.6-2.1-1.4-2.1-3
			c0.9-0.9,1.6,0.5,2.5,0.2c0.5-0.7,0.9-1.4,1.4-2.1c0-0.5,0-0.9,0-1.6c-0.2-0.2-0.7-0.5-0.9-0.9s-0.5-0.9-0.9-1.2
			c1.4-1.2,2.1,0.5,3,0.9c0.7-0.7,1.4-1.6,2.1-2.3c-0.5-0.9-0.7-1.6-1.2-2.3s-1.2-1.2-1.9-2.1c0.5-0.2,0.9-0.2,1.4-0.5
			c0.7,0.7,1.6,1.6,2.5,2.5c1.2,0,2.1,0.2,2.5-1.4C563.3,571.8,562.4,569.6,560.6,567.2z M545.2,549.3c-1.2,0.9-2.1,1.6-2.8,2.3
			c0.5,0.7,0.7,1.2,1.2,1.9c2.1-1.4,4.6-1.9,5.7-3.9c-0.2-1.2-1.2-2.8-2.5-4.1c-0.7,0.2-1.6,0.2-2.8,0.5c0.5-0.7,0.9-1.4,1.2-1.9
			c0-0.7,0-1.2,0-1.9c-0.5-0.2-0.7-0.5-0.9-0.7c0-1.2,0-1.9,0-2.8c-0.2,0-0.2,0.2-0.5,0.2c-0.2-0.5-0.2-0.9-0.5-1.4
			c-1.2,0.9-2.1,0.9-3,0.5c1.2-1.2,3.2-0.2,3.9-1.9c-0.5-0.7-0.7-1.2-0.9-1.6c-1.6,0-3.5,0.5-5,0.7c-1.4,0.2-3.2,0.2-4.1,1.9
			c0.5,1.6,0.9,3,1.4,4.6c0.2,0.2,0.7,0.7,0.9,0.9c0.5,0,0.9,0.2,1.9,0.2c-0.7,0.5-1.2,0.9-1.9,1.4c0.7,1.2,1.4,2.1,1.9,2.6
			c1.2,0,1.9,0,2.5-0.2c0.7-0.2,1.2-0.5,2.5-0.7c-1.4,1.6-3.5,1.2-3.7,3c0.2,0.5,0.5,1.2,0.9,1.9c0.5-0.2,1.2-0.5,1.6-0.7
			c1.4-0.9,3-1.6,4.8-1.6c0.2,0,0.2,0.2,0.5,0.2c-0.2,0.2-0.5,0.5-0.7,0.7C546.1,549.3,545.6,549.3,545.2,549.3z M495.3,555.5
			c-2.1,0.7-3.9,0.7-5.5,1.9c0.9,0.9,1.9,1.9,1.2,3.2c-0.7,0.2-1.2,0.5-1.9,0.7c-0.7-0.7-1.2-1.6-1.6-2.1c-0.5,0.2-0.9,0.5-1.2,0.7
			c-0.5,0.9-0.9,1.9-1.6,3c1.2,0,2.1,0,2.8,0c0.5,0.5,0.7,0.9,0.9,1.2c-0.7,0.7-1.2,1.4-2.1,2.1c1.6-0.2,2.8,0.5,3-1.2
			c-0.2-0.2-0.2-0.5-0.5-0.7c0.9-0.9,1.6-1.6,2.3-2.3s1.6-1.2,2.5-1.2c0.5,0,0.9,0.2,1.4,0c1.9-1.2,3-0.2,4.1,0.9
			c1.4,1.4,2.3,3,3.7,4.6c0.7,0,1.6,0,2.3,0c0.2-1.4,0-2.8-0.7-3.7c-0.7-0.2-1.2-0.5-1.6-0.7s-1.2-0.5-1.6-0.7c0-0.7,0-1.4,0-2.1
			c-0.9-0.7-1.9-1.4-3-2.1c-0.5,0.9-0.9,1.6-1.2,2.3c-0.7,0-1.2,0-1.6,0c0.2-0.2,0.2-0.2,0.5-0.5c-0.7-0.2-1.4-0.7-1.9-0.7
			C494.9,557.4,495.1,556.7,495.3,555.5z M534.4,531.4c0,0.9,0,1.6,0,2.3c0.2,0.2,0.5,0.5,0.7,0.7c3.2,0.2,6.2-0.7,9.2-1.6
			c-0.5-2.3,0.7-4.1,1.2-6c-3.5-0.7-6.6-0.9-9.9-0.7c-0.2,0.5-0.2,0.7-0.5,0.9c-0.2,0.2-0.2,0.7-0.2,0.7c0.5,0.5,0.7,0.7,0.9,1.2
			c2.5,0,4.8,0,7.3,0c0,0.5,0,0.7,0,0.9c-2.5,0-5,0-7.3,0C535.3,530.5,534.8,530.9,534.4,531.4z M539.7,602.6
			c-0.2-0.5-0.2-0.7-0.5-0.9c-1.4-2.1-2.5-4.1-3.7-6.2c-0.9-1.9-2.5-3.5-3.9-5.3c-0.7-0.7-1.6-1.2-2.1-2.1c-0.7-0.9-1.9-1.4-2.5-2.1
			c-2.3,0.5-4.6,0.9-7.3,1.4c0,0-0.2,0.2-0.7,0.7c2.5,0.9,5,1.4,7.6,1.4c0.7,0.7,1.2,1.6,1.4,2.1c2.1,1.2,4.1,2.1,5.3,3.9
			c1.4,2.3,3.5,3.9,4.3,6.4C538.1,602.4,538.5,603,539.7,602.6z M569.1,571.3c-0.5-2.8-1.4-5.3-2.5-7.6c-0.7,0-1.2,0-1.4,0
			c-1.2,1.2-2.1,1.9-3,3c0.7,2.3,2.1,4.3,3.7,6.6C567,572.7,567.9,572,569.1,571.3z M538.3,609c0-1.2,0-2.1,0-2.5
			c-0.9-1.2-1.9-0.9-2.8-0.5c-0.7,0.5-1.6,0.5-2.3,0.9c-1.9,0.9-3.9,1.9-5.3,3.5c0.7,0.9,1.2,1.6,1.9,2.3
			C532.8,611.3,535.5,610.2,538.3,609z M494.9,541c0.9-1.2,1.6-2.1,2.3-3c0.7,1.6-0.7,2.5-0.9,3.7c0.9,0.9,0.9,0.9,3,0.7
			c-0.2-1.4,1.9-1.6,1.4-3.2c-1.6-1.4-3-2.5-4.3-3.9c-1.6,1.4-4.1,2.1-4.6,4.8C493,540.6,493.9,540.8,494.9,541z M568.1,562.1
			c-0.7,1.4,0,2.3,0.5,3.2c0.7,0.9,0,1.9,0.9,2.8c0.7,0.7,0.7,1.9,1.9,2.5c0.7-0.2,1.4-0.7,2.1-0.9c-0.2-2.1-0.7-3.9-0.9-5.7
			c0-1.4-0.2-2.5-1.4-3.5C569.8,561.3,568.8,561.8,568.1,562.1z M526.3,608.1c2.3-0.2,4.1-1.2,5.9-2.3c0.5-0.2,0.9-0.2,1.4-0.5
			c0.9-0.5,2.5-0.2,3.2-1.6c-0.5-0.7-0.9-1.4-1.6-2.3c-0.5,0.2-1.2,0.2-1.9,0.5c-2.5,1.2-5,2.3-7.3,3.9c-0.2,0-0.2,0.2-0.5,0.7
			C525.9,607.2,526.1,607.7,526.3,608.1z M541.7,614.5c-0.7-0.9-1.6-0.9-2.5-0.5c-1.4,0.5-2.8,1.2-4.1,1.4c-1.4,0.2-2.3,1.2-3.2,2.1
			c0.2,0.7,0.7,1.2,0.9,2.1c3-0.9,6-1.2,9-2.3C541.7,616.2,541.7,615.5,541.7,614.5z M523.9,605.6c3-1.6,5.7-3,8.7-4.3
			c0.5-0.2,0.9-0.7,1.2-1.2c0.2-0.2,0.2-0.5,0.2-0.5c-0.5-0.7-0.9-1.4-1.2-1.9c-0.7,0-1.4,0-1.9,0c-2.5,2.3-6,3.7-8,6.6
			C523.2,604.9,523.6,605.1,523.9,605.6z M522.9,602.6c2.3-2.3,5-4.1,8-5.7c-0.2-0.7-0.7-1.2-0.9-1.9c-2.8-0.5-5.5,2.3-9.2,6.4
			c0,0.2,0,0.7,0,1.2C521.5,602.6,522.2,602.6,522.9,602.6z M526.8,595c0-0.9,0-1.4,0-1.9c-0.9-0.2-1.6-0.5-2.3-0.7
			c-0.9,0.5-1.2,1.6-2.1,2.1c-0.9,0.5-1.9,1.6-2.5,2.5c-0.7,0.7-1.2,1.6-1.9,2.8c0,0.2,0,0.7,0.2,1.2c1.4,0.2,2.3-0.5,3-1.2
			C522.7,597.5,524.7,596.1,526.8,595z M520.4,591.1c-1.9,0.9-2.8,2.1-3.5,3.5c-0.7,1.2-2.3,2.3-1.9,4.1c0.5,0.2,0.9,0.5,1.4,0.7
			c0.5-0.2,1.2-0.7,1.6-1.2c0.7-0.9,1.2-2.1,1.9-2.8c1.2-0.9,1.4-2.5,3-2.8c0,0,0.2-0.2,0.2-0.7c-0.2-0.2-0.7-0.2-1.2-0.5
			c0-0.2,0.2-0.2,0.2-0.5C521.5,591.1,520.8,591.1,520.4,591.1z M539.2,609.7c-1.2,0.7-2.1,1.2-3.2,1.4c-1.2,0.2-2.3,1.2-3.5,1.6
			c-1.2,0.5-2.1,1.2-1.6,3c0.9-0.5,2.1-0.7,2.5-0.9c2.5-0.7,4.6-1.2,6.9-1.6c0.2-0.5,0.5-0.9,0.5-1.2
			C540.2,611.1,539.7,610.4,539.2,609.7z M533.7,621.9c3.5,0,6.9,0,10.1,0c-0.7-1.2-1.4-2.3-1.9-3.2c-2.5-0.7-4.8,1.4-7.1,1.2
			c-0.7,0-1.2,0.7-1.9,1.2C533,621.4,533.2,621.6,533.7,621.9z M514.2,562.6c-0.7-1.4-0.9-2.5-1.4-3.5c-1.9,0.9-3.7,1.6-5.3,2.3
			c-0.2,0.5-0.5,0.9-0.5,1.2c0.2,0.5,0.2,0.7,0.5,1.2c0,0.2,0.2,0.7,0.2,1.4C509.6,563.5,512.1,564,514.2,562.6z M556,598
			c-2.5,1.6-5.5,1.9-8,3.2c0,0.9,0,1.9,0,2.5c2.1-0.7,3.9-1.2,6-1.6c0.9-1.2,2.1-2.1,3-3.2C556.5,598.7,556.2,598.2,556,598z
			 M575.2,568.9c0.5-0.2,0.9-0.5,1.6-0.9c-0.5-2.8-0.9-5.5-1.4-8.5c-1.2-0.2-2.1-0.2-2.5,0.7c0.2,1.9,0.5,3.5,0.7,5.3l0,0
			C574.1,566.5,574.8,567.7,575.2,568.9z M518.1,542c2.6,0.9,2.6,0.9,5-1.9c-0.9-1.2-1.9-2.1-3-3.2c-1.9,0-2.8,1.2-3.5,2.5
			C517.1,540.4,517.6,541,518.1,542z M482.3,552.8c1.6,1.9,3,3.5,5.7,2.8c0.2-2.1-0.5-3.7-1.4-5.3
			C484.5,550,483.7,551.6,482.3,552.8z M512.1,598c3-1.6,3.7-4.8,5.9-6.4c0-0.5,0-0.9,0-1.2c-0.7-0.2-1.4-0.5-2.1-0.7
			c-1.9,1.6-2.8,4.1-3.9,6.4C511.9,596.4,512.1,597.1,512.1,598z M521.5,536c1.4,1.2,2.3,2.5,3.2,2.5c1.2-1.2,2.1-2.1,3.2-2.8
			c-1.2-0.9-2.5-1.9-3.9-2.8C522.9,534.2,522.2,535.1,521.5,536z M502.9,550.9c-1.6-0.7-3-1.9-4.8-1.2c0,1.4,0,2.8,0,3.9
			c0.7,1.2,1.6,0.9,2.3,0.9c0.9-0.7,1.6-1.4,2.5-2.1C502.9,552.1,502.9,551.6,502.9,550.9z M493,549.3c0,1.4-0.2,2.8,0.7,4.1
			c0.9,0,1.6,0,2.5,0c0.7-1.2,1.4-2.3,1.2-3.7c0-0.5-0.5-0.9-0.7-1.2c-1.2,0-2.1,0-2.8,0C493.5,548.9,493.3,549.1,493,549.3z
			 M481.6,559c1.4,0,2.5,0,3.7,0c0-0.7,0-1.4,0-1.9c-1.2-1.2-2.3-2.3-4.1-2.6c-0.7,0.9-1.4,1.6-2.1,2.8
			C480,557.8,480.9,558.3,481.6,559z M503.4,557.6c1.6-0.9,3-1.9,4.3-2.5c-0.5-0.7-1.2-1.2-1.9-1.9c-0.9,0-2.3-0.2-3.2,0.5
			c-0.7,0.9-1.2,1.6-1.6,2.5C501.8,556.7,502.7,557.1,503.4,557.6z M491.7,549.3c-1.4-0.9-2.5-0.7-4.1,0.7c0.7,1.4,1.6,2.8,2.1,4.1
			c0.9,0,1.4,0,1.9,0c0.2-0.7,0.5-0.9,0.7-1.2C492.1,551.4,491.9,550.2,491.7,549.3z M556.7,601.7c-0.7,0.2-1.4,0.2-1.9,0.7
			c-2.1,1.6-4.6,2.3-6.9,3.2c-0.2,0-0.2,0.2-0.5,0.7c0.2,0,0.7,0.2,1.4,0.5c2.5-1.2,6.2-1.9,8.7-4.3
			C557.4,602.4,557.2,601.9,556.7,601.7z M561.7,558.7c0-1.2,0-1.9,0-2.8c0.2-0.7,0.9-1.4,0.2-2.3c-0.9,0-1.9,0-3.2,0
			c0.5,1.6-2.5,3-0.2,4.8C559.9,558.7,560.6,558.7,561.7,558.7z M506.4,560.1c0.2,0,0.5-0.2,0.7-0.5c1.4-0.5,2.8-0.7,4.1-1.2
			c0.2,0,0.2-0.2,0.2-0.5c-0.2-0.5-0.5-1.2-0.7-1.6c-0.5-0.2-1.2-0.5-1.6-0.7c-1.6,0.7-3,1.6-4.3,2.3c0,0.5,0,0.9,0,1.4
			C505.5,559.7,505.9,559.9,506.4,560.1z M527.3,525c0.9,0.2,1.9,0.5,2.8,0.7c0.9-1.2,2.1-0.2,3.2,0c0-1.2,0-1.9,0-2.8
			c-1.2-0.9-2.5-0.7-3.7-0.2c-0.2-0.2-0.5-0.2-0.7-0.5c-0.2,0.2-0.5,0.5-0.7,0.5c-0.2,0.2-0.7,0.2-0.9,0.2
			C527.3,523.6,527.3,524.3,527.3,525z M512.3,540.4c0,1.2,0,2.3,0,3.2c0.2,0.2,0.5,0.5,0.7,0.7c0.9,0,2.1,0,3,0
			c1.6-1.6,0.2-3-0.7-4.3C514.4,539.9,513.5,540.1,512.3,540.4z M577.6,553.5c-0.9-2.1-1.9-3.9-2.8-5.7c-0.9-0.2-1.6,0-2.1,1.2
			c0.5,1.4,1.2,3.2,1.9,4.6c0.7,0.2,0.9,0.5,1.4,0.7C576.4,554.1,576.9,553.9,577.6,553.5z M505.7,541.7c0,0.7,0,1.4,0,1.9
			c0.2,0.2,0.5,0.5,0.7,0.7c1.6,0,3.2,0.2,4.8,0c-0.5-1.4-0.9-2.6-1.4-3.9c-1.2,1.4-2.5,0.5-3.7,0.9
			C506.4,541,506.2,541.3,505.7,541.7z M547.7,598.5c0.7,1.2,1.6,1.4,2.8,0.9c1.6-0.7,3.2-1.4,4.6-1.9c0,0,0.2-0.2,0.2-0.5
			c-0.2-0.2-0.5-0.5-0.9-0.7c-0.5,0-0.9,0.2-1.2,0.2c-0.5,0-1.2,0.5-1.4,0.2c-0.9-0.7-1.9-0.2-2.8-0.5
			C548.7,597.1,548.2,597.8,547.7,598.5z M529.3,533.9c0.5-0.9,0.9-1.6,1.2-2.5c-1.6-0.7-3-1.2-4.3-1.9c-0.5,0.7-1.6,1.2-1.4,2.1
			c0.7,0.9,1.4,1.6,1.9,2.1C527.7,533.7,528.4,533.9,529.3,533.9z M553.2,557.4c0.9,0.5,1.9,0.7,2.8,0.9c0.9-1.2,1.6-2.5,1.9-3.9
			c-0.9-0.9-0.9-0.9-3-0.7C554.6,554.6,553.9,556,553.2,557.4z M526.6,526.8c0.2,0.7,0.2,1.4,0.7,1.6c1.4,0.7,2.8,1.4,4.6,0.7
			c0.2-0.7,0.7-1.6,0.9-2.3c-0.2-0.2-0.5-0.5-0.7-0.7C530.3,526.4,528.4,526.6,526.6,526.8z M551.8,550.7c-1.2,0-1.9,0-2.6-0.2
			c-1.4,1.4-2.8,2.8-4.1,4.1c0.2,0.2,0.5,0.5,0.7,0.7c0.7,0,1.2,0,2.1,0C549.1,553.9,550.2,552.6,551.8,550.7z M477.4,561.3
			c1.4,1.4,3,1.4,4.8,1.4c0.9,0,1.2-0.5,1.4-1.4c-1.4-0.2-2.5-0.7-3.7-1.9c-0.2-0.2-1.2,0-1.9-0.2
			C477.9,560.1,477.6,560.8,477.4,561.3z M544.3,524.7c-2.5-1.4-5-2.3-8.3-1.9c0,0.5,0,0.9,0,1.4
			C538.8,525.2,541.5,525.2,544.3,524.7z M552.3,552.1c-0.7,0.9-1.6,1.4-2.1,2.6c-0.5,1.4-0.7,1.4,1.2,2.5c0.9-1.4,2.1-2.5,3-3.9
			C553.9,552.3,553.2,552.1,552.3,552.1z M562.9,558.3c0.9,0,1.9,0,2.8,0c0.2-0.2,0.5-0.5,0.7-0.7c0.2-1.6,0-3-1.2-4.1
			c-0.7,0.5-1.2,0.9-1.4,1.2C563.3,556,563.1,556.9,562.9,558.3z M511.2,594.1c0.2,0,0.5-0.2,0.7-0.2c0-1.6,2.1-2.5,1.9-4.1
			c-0.5-0.5-0.5-0.5-0.7-0.7c-1.6,0-1.6,0-2.5,0.9c0,1.2,0,2.3,0,3.2c0.2-0.2,0.2-0.2,0.5-0.5C510.9,593.2,511.2,593.7,511.2,594.1z
			 M500.4,542.7c0.5,0.5,0.9,0.7,1.2,0.9c0.7,0,1.6,0,2.3,0c0.2-0.2,0.5-0.5,0.7-0.7c0-0.9,0-1.6,0-2.3c-0.7-0.2-1.2-0.5-1.9-0.9
			C502,540.6,501.3,541.5,500.4,542.7z M570.4,556c-1.4-1.2-0.2-3.7-2.8-3c-0.5,0.2-0.9,0.5-1.2,0.5c0.5,0.7,0.7,0.9,0.7,1.4
			c0,0.5,0,1.2,0,1.6c0.7,0.2,1.2,0.5,1.9,0.7C569.5,556.9,570,556.7,570.4,556z M493.9,533.7c-1.6,1.4-3,2.5-4.6,3.9
			c0,0,0,0.2,0,0.5c0.5,0.2,0.7,0.5,1.2,0.9c0.9-0.9,1.6-1.9,2.5-2.5c0.7-0.7,1.9-1.2,2.5-2.3C494.9,533.7,494.4,533.7,493.9,533.7z
			 M482.5,565.2c-1.6-1.2-3.2-1.6-4.8-1.2c0,0.7,0,1.4,0,2.1c1.4,0,2.8,0,4.1,0C481.8,565.9,482,565.6,482.5,565.2z M509.3,565.4
			c0,0.2,0,0.5,0.2,0.7c1.6,0,3.2,0,4.8,0c-0.2-1.4-0.2-1.4-0.9-2.1C512.1,564.7,510.9,564.9,509.3,565.4z M569.8,551.4
			c0.7,1.2,1.2,2.1,1.6,3c0.5,0,0.9-0.2,1.4-0.2c0,0,0-0.2,0.2-0.5c-1.2-0.7,0-2.8-1.2-3.2C570.9,550.9,570.4,551.2,569.8,551.4z
			 M484.8,564.2c-0.2,0.7-0.7,1.2-0.9,1.6c0.7,0,1.2,0,1.9,0C485.4,565.4,485.2,564.9,484.8,564.2z"/>
		<path d="M324.3,556.7c3.2,0,5.7,0,8,0c9,0,17.9,0,26.7,0c0.9,0,1.9-0.2,3-0.5c1.9,1.2,3.2,3.2,4.3,5.5c1.4,2.8,3.7,4.8,5.3,7.6
			c0.2,0.5,0.5,1.2,0.9,1.9c1.9,2.3,3.7,4.8,5.3,7.6c1.4,2.5,3.9,4.8,5,7.6c1.4,0.5,2.1-0.7,2.5-1.4c1.9-3,4.1-5.7,5.7-8.5
			c1.9-3,3.9-5.7,6-8.5c1.6-2.3,3-4.6,4.6-6.6c1.2-1.6,1.9-3.2,3.5-4.3c3,0,6.2,0,9.4,0s6.2,0,9.4,0c3.2,0,6.4,0.5,9.4-0.2
			c3,0.7,6,0,9.2,0.5c-1.2,1.9-2.1,3.7-3.5,5.3c-2.1,2.3-3.5,5-5.3,7.6c-1.9,2.5-3.7,5.3-5.7,7.8c-2.1,2.5-3.9,5.5-5.7,8
			c-1.4,2.1-2.8,4.1-4.6,6c-0.2,0.5-0.2,1.2-0.5,1.4c-1.9,2.5-3.7,4.8-5.7,7.3c-0.2,2.1-2.5,3-3.2,4.8c-0.7,1.9-2.5,3-3.2,4.8
			c-0.5,0.9-1.6,1.6-2.3,2.8c-0.5,0.9-1.2,1.6-1.9,2.5c-0.7,0.9-1.4,2.1-2.1,3c0,15.1-0.2,30.3-0.2,45.4c0,3.5,0.5,6.9-0.7,10.4
			c-2.1,0.5-24.3,0.5-31.2,0c0-0.7,0-1.2,0-1.9c0-6.4,0-12.8,0-19.3c0-1.9,0.5-3.7-0.5-5.3c-0.2-0.5-0.2-0.9,0-1.4
			c0.9-2.1,0.5-4.3,0.5-6.4c0-7.1,0-14.2,0.2-21.6c-1.2-1.6-2.3-3.2-3.5-5c-0.9-1.9-2.5-3.5-3.9-5.3c-1.6-2.1-3.2-4.3-4.8-6.6
			c-1.4-2.1-2.5-4.1-4.3-5.9c-1.2-1.2-1.6-2.8-2.8-4.1c-1.6-2.1-2.8-4.3-4.8-6.4c-1.2-0.9-1.6-2.5-2.5-3.7c-1.9-3-4.1-6-6.2-8.7
			c-2.8-3.9-5.7-7.6-8-11.7C326.3,559.2,325.4,558,324.3,556.7z M390.2,622.1c-0.9-0.9-0.9-2.5-2.1-2.1c-0.9,0.9-1.6,1.4-2.3,2.1
			c0,0.7,0,1.2,0,1.6c0.5,0.5,0.9,1.2,1.4,1.4c0.7,0,1.2,0,1.6,0c0.5-0.5,0.9-0.9,1.4-1.4c0-0.5,0-1.2,0.2-1.9c1.6,0,3.5,0,5-1.6
			c-0.7-1.2-1.4-2.1-1.9-2.8c-1.4,0.7-2.5,1.2-3.7,1.9C389.7,620.3,389.9,620.9,390.2,622.1z M361,586.9c0-0.2,0-0.5,0-0.9
			c-0.9-0.5-1.6-0.9-2.3-1.2c-3.7-0.7-6.9,0.2-9.9,2.3c0.2,1.9,1.6,3,2.8,4.3l0.2,0.2c0.7-0.2,1.2-0.7,1.9-0.9
			c1.6,0.2,3.5-0.5,5.3,0.9c1.9,1.6,2.5,3.9,2.8,6.2c0.9,0.7,1.6,1.2,2.6,1.9c-0.9,0.7-1.9,1.2-2.6,1.9c-0.7,0.7-0.9,1.9-1.4,2.8
			c0.7,0.7,1.2,1.2,1.9,1.6c1.4-2.1,2.8-3.7,3.7-5.7c0.9-2.3,0.9-4.3,0-6.6c-0.7,0.9-1.6,0.5-2.5,0.7c-0.2-0.7-0.5-1.2-0.7-1.9
			c0.7-0.2,1.2-0.5,1.4-0.7c0.7,0.2,1.2,0.2,1.6,0.5c0.2-2.5-1.9-3.7-3-5C361.9,586.9,361.5,586.9,361,586.9z M348.4,577.1
			c1.4,0,2.3,0,3.2-0.2c1.9-0.7,3.7-0.9,5.7-0.9c0.9,0,1.9,0,2.8,0c4.8,0,8.3,2.3,11,6.2c0.9,1.4,2.1,3,3.5,5c0.5-1.9,2.1-1.4,3-2.1
			c0.5,0.5,0.9,0.9,1.4,1.2c-0.2,0.5-0.5,0.9-0.7,1.4c-0.7,0.2-1.2,0.7-1.9,0.7c-0.7,0-1.2-0.2-2.1-0.5c0,1.4-0.2,2.8,0.2,3.7
			c0.5,1.2,0.2,2.3,0.2,3.5c0.2,1.2-0.2,2.3,0.7,3.2c-0.2,0.5-0.5,0.9-0.7,1.2c-0.7,2.5-1.4,5-2.3,7.6c-0.7,1.9-0.5,3.9-2.1,5
			c0.5,1.4-1.6,2.5,0,3.9c0,2.3,0.9,4.3,1.6,6.4c0.5,1.4,0.7,3,1.6,4.3c0.9,1.3,1.6,3,2.1,4.6c0.2,1.2,1.2,2.1,1.2,3
			c0.2,2.3,1.4,4.3,1.9,6.6c0.2,0.9,0.7,1.6,0.5,2.3c-0.7,0.5-1.4,0.9-2.1,1.4c-1.4-1.2-3.2-1.6-4.3-3.2c-0.9-0.2-2.1-0.5-3.2-0.7
			c0,1.2,0,2.1,0,3.5c3.7,1.2,7.6,2.3,11.3,4.3c3.9,2.1,7.1,4.8,9.9,8.3c0.5,0,1.2,0.2,1.9,0.2c-0.2,1.4,0.5,2.5,0.9,3.5
			c0.9,1.4,1.2,3.2,1.6,4.8c0.7,1.9,0.2,3.9,1.4,6c0.2-0.2,0.5-0.7,0.7-0.9c0.2-2.8-0.5-6,0.7-9c0.2-0.7,0.2-1.4,0-1.9
			c-0.2-0.5-0.7-0.9-0.9-1.6c-0.5,0.2-0.7,0.5-1.2,0.7c-0.5-0.2-1.2-0.7-1.9-0.9c0.7-0.7,1.2-1.2,1.6-1.9c0.7,0,1.2,0,1.9,0
			c0.2-0.7,0.5-1.4,0.9-2.3c-0.2-0.2-0.7-0.7-0.9-0.9c-0.2-0.2-0.7-0.5-0.9-0.7c-0.9,0.9-1.6,1.6-2.3,2.3c-0.7-0.5-1.4-0.7-1.9-1.2
			c0.5-0.9,0.9-2.1,1.2-2.8c-2.3-2.1-5.3-2.3-7.1-4.6c-2.1-2.1-4.1-4.1-6.2-6.2c0-2.1,0-3.9,0-5.5c0.2-1.9,0.5-3.7,0.7-5.3
			c2.3-7.6,8-11.5,14.7-14c-0.2-0.9-0.7-2.1-0.9-3c-0.5-1.4-1.4-2.5-1.6-3.7c-0.2-1.4-1.4-2.3-1.4-3.9c0-0.7-0.5-1.6-0.7-2.5
			c-0.5-1.9-1.2-3.9-0.7-5.7c0.5-1.6,0.2-3,0.5-4.1c0.5-0.7,0.7-1.2,1.2-1.4c1.4-1.9,2.1-3.9,3.9-5.3c0.7-0.5,1.6-1.2,2.3-1.9
			c1.9-1.4,3.7-2.8,6-3.7c3-1.2,6-1.2,9.2-0.2c0.2-0.2,0.5-0.5,0.7-0.7c-0.2-0.5-0.5-0.9-0.5-1.4c0.2-1.4-0.5-2.6-0.7-3.7
			c-0.2-0.7-0.5-1.4-0.5-2.1c0-1.2,0-2.3,0-3.7c0.2-2.3,0.9-4.6,2.3-6.4c0.7-0.9,0.7-2.1,1.4-3c-2.5,0-4.6,0-6.4,0
			c-0.2,0.9-0.7,1.9-0.7,2.8c-0.2,0.9-0.7,1.9-0.7,3c0.2,0.9,0.2,1.9-0.5,2.8c1.2,0.9-0.5,1.6-0.2,2.8c0.2,0.9,0.2,2.1,0.5,3
			s0,2.1,0,3l-0.2-0.2c-0.2,0.5-0.5,0.9-0.5,1.2c-0.9-0.2-1.4-0.7-2.1-0.7c-5.5-0.2-6.6,0.2-12.2,2.5c-0.7,0.2-1.4,0.7-1.9,1.4
			c-1.4,1.9-2.5,3.9-3.7,6c1.4-0.2,2.5-0.5,3.7-0.5c0.5,0.5,0.7,0.7,0.9,1.2c-0.9,0.7-1.9,1.2-2.5,1.6c-0.9-0.5-1.9-0.9-2.8-1.2
			c-0.9,1.2-1.9,2.1-2.8,3.2c-1.6-2.1-3.2-4.1-4.8-6.2c0.2-1.6-1.9-2.3-2.5-3.9c-1.2,0.2-2.1,0.2-3.5,0.5c-0.7-0.2-0.9-0.9-0.7-2.1
			c0.5-0.2,1.2-0.7,1.6-1.2c-0.5-1.9-1.4-3.2-2.5-4.6c-1.9,0.2-3.9-0.5-5.7,0.5c-0.9-0.2-1.9-0.7-2.5-0.5c-1.2,0.7-2.5,0.5-3.7,0.5
			c-1.9,0.2-3.7-0.2-5.3,0.5c-0.5,0.2-0.9,0-1.2,0c0.2-2.1,0.2-4.1,0.5-6c0-2.1-0.9-3.9-0.5-5.7c0.2-1.4-0.2-2.5-1.4-3.5
			c-1.6,0.2-3.2,0.5-4.6,0.7c0.2,0.5,0.7,1.2,0.9,1.6c1.4,2.1,1.6,4.3,2.1,6.4c0.2,0.7,0.5,1.4,0.5,2.1c0,0.7-0.2,1.4-0.5,2.1
			c-0.7,1.6-1.2,3-1.2,4.8C349.1,576.2,348.6,576.7,348.4,577.1z M411.5,589.5c-1.4,0-2.5,0-3.9,0c-2.8,0-5.3,0.7-7.6,2.5
			c-1.6,1.2-3.5,3.9-3.2,6c0,1.4,0,3,0,4.6c0.2,0.2,0.7,0.7,1.2,0.9c0,0.9,0,1.6,0,2.3c0.7,1.2,1.9,1.6,2.3,3
			c0.2,0.7,1.2,1.6,2.3,1.2c2.1-2.1,2.5-2.8,2.5-4.6c-0.5-0.5-0.9-0.9-1.4-1.4c-0.7,0-1.6,0-2.3,0c-0.5-0.5-0.9-0.9-1.4-1.4
			c0.9-0.7,1.6-1.4,2.3-1.9c0-0.9,0-1.6,0-2.3c-0.7-0.2-1.4-0.7-2.1-0.9c0-0.5,0-0.7,0-0.7c0.7-0.7,0.9-1.4,1.4-1.9
			c0.5,0,0.7,0,1.2,0c0.5,0.5,0.7,1.2,0.9,1.6c1.2-0.7,2.1-1.4,3.2-1.9c-0.7-2.1-0.7-2.1,0.2-2.8c0.9,0,1.6,0,2.8,0
			c-0.2,1.2-0.2,2.1-0.5,3.2c0.2,0.2,0.5,0.5,0.9,0.7c0.2-0.5,0.2-0.7,0.5-1.2c0.5-0.2,1.2-0.5,2.1-0.7c0.2,0,0.7,0.2,0.9,0.5
			c0.2-0.5,0.5-0.7,0.9-0.9C413.6,591.8,413.1,590,411.5,589.5z M423.9,571.8c0-0.7,0-1.6,0-2.3c-0.7-0.7-1.2-1.4-1.9-2.1
			c0.5-0.5,0.9-0.9,1.2-0.9c1.6,0.2,2.8-0.7,3.9-1.4c2.1-0.9,3.7-0.9,5.5-0.2c0.5,0.2,0.9,0.2,1.6,0.5c0.7-1.2,1.2-2.3,1.9-3.2
			c0.9-0.9,1.9-1.9,2.1-3.2c-0.5-0.2-1.2-0.7-1.6-0.9c-1.6,0.7-3,0.9-4.6,0c-9.4,4.1-7.8,2.3-11.5,9.7c0,2.5,0,4.8,0,7.1
			c0.2,0.2,0.5,0.5,0.7,0.7c0.9,0,1.6,0,2.3,0.2c0.7,1.9-1.2,2.1-1.6,3.2c0,0.5,0,0.7,0.2,1.2c0.5,0,0.9,0,1.4,0
			c-0.2-1.2,1.2-1.4,1.6-2.3c0.5-0.9,1.4-1.6,1.2-3c-0.5-0.2-1.2-0.5-1.6-0.9C424.6,573.4,424.4,572.7,423.9,571.8z M376.2,671
			c0.7,1.2,1.4,1.2,2.1,0.9c0.5,0,0.9-0.5,1.4-0.7c-1.2-1.2-0.7-1.9,0.2-2.3c0.7,0,1.4,0,2.1,0c0,0.5,0,0.9,0,1.2
			c-0.2,0.5-0.7,0.7-1.2,1.2c0.2,0.2,0.5,0.5,0.9,0.9c0.5-0.2,1.2-0.5,1.9-0.7c-0.2-3-1.6-5-3-7.3c-1.2,0.5-2.3,0.9-3.2,1.4
			c-0.2-0.2-0.5-0.5-0.9-0.9c0-0.5,0-0.7,0-0.9c0.7-0.5,1.2-0.9,1.9-1.4c-1.4-3-4.3-3.2-6.4-5c-0.2-0.2-1.2,0-1.6,0
			c-0.9,1.6-0.9,2.5-0.2,2.8c0.5-0.2,0.9-0.5,1.4-0.7c0.5,0.7,0.9,1.4,1.4,2.1c-0.5,0.5-0.7,1.2-1.4,1.9c3.2,0.7,4.1,3,5.3,6
			C376.2,669.2,376.2,670.1,376.2,671z M390.2,635.2c-0.7-2.8,2.1-1.6,2.3-3c0.5-1.2,0.7-2.3,1.2-3.5c-0.2-0.5-0.7-1.2-0.7-1.2
			c0.5-0.9,0.9-1.6,1.2-2.3c1.2,0.5,1.9,0.9,2.8,1.4c0.5-1.4,1.6-2.8,0-3.9c-1.2,0-2.3-0.2-3.2,0.5c-1.4,1.2-2.8,2.1-4.1,3.5
			c-0.7,0.9-1.4,1.9-1.9,3c-0.7,1.9-0.2,3.5-0.5,5c1.2,2.1,2.1,4.1,3.7,5.5c0.9-0.5,1.6-0.9,2.3-1.4
			C393,636.8,391.8,635.9,390.2,635.2z M409.3,581.2c-1.9-0.7-3-0.5-4.6,0.7c0,1.9,0,3.5,0,5c1.4,1.9,2.5-0.2,3.9,0.2
			c0.5-1.6,0.9-3,1.4-4.3C410,582.4,409.7,581.9,409.3,581.2z M374.8,656.6c0.5,0.5,0.9,1.4,2.3,1.2c1.4-1.9,3.7-3,4.6-5.3
			c-0.7-0.7-1.2-1.2-1.9-1.9c-0.7,0-1.2,0-1.9,0c-0.9,1.2-1.9,2.3-2.8,3.5C375,654.9,375,655.6,374.8,656.6z M383.3,664.8
			c3.2-0.2,6.2,0.5,9-1.6c-0.5-0.9-1.2-1.9-1.6-2.8c-0.9,0-1.9,0-2.8,0c-0.5,0.9-1.4,0.9-2.3,1.2c-0.9,0.2-1.6,1.2-2.3,1.6
			C383.3,663.9,383.3,664.1,383.3,664.8z M386.2,654.9c-1.4-0.7-2.5-1.2-3.7-1.9c-1.6,1.9-3.2,3.7-4.8,5.5c0,0,0,0.2,0,0.5
			c0.2,0.2,0.7,0.5,0.9,0.7c1.4,0.5,2.3-0.7,3.5-1.2C382.6,658.7,385.8,655.6,386.2,654.9z M364.9,586.7c1.6-1.4,3.9-1.4,5-3.2
			c-0.7-0.9-1.2-1.9-1.9-2.8c-1.2,0.2-2.3,0.5-3.5,0.9c-0.9,0.5-1.6,1.6-1.9,2.8C363.3,585.2,364,585.9,364.9,586.7z M392.3,664.8
			c-1.6,0.9-3,1.4-4.8,1.2c-1.2-0.2-2.1,0.5-2.8,1.2c-0.2,0.2-0.2,0.5-0.2,0.7c0.2,0.5,0.7,0.7,0.9,1.2c2.8-0.5,5.5,0.7,7.8-0.7
			c0-0.9,0-1.6,0-2.3C393,665.3,392.7,665.1,392.3,664.8z M382.1,629c-0.9,2.1-0.9,3.9-0.7,5.7c1.2,0.2,2.3,0.5,3.5,0.9
			c0.2-0.2,0.5-0.5,0.9-0.9c0-1.4,0-2.8,0-4.1C384.5,630.4,383.3,629.7,382.1,629z M372.9,655.6c2.1-1.6,2.3-4.1,3.9-5.7
			c-0.5-0.5-0.7-0.7-0.9-0.9c-0.7,0-1.6,0-2.3,0c-1.6,1.6-2.3,3.7-2.5,6C371.8,655.2,372.2,655.4,372.9,655.6z M399.4,585.6
			c-0.5-0.2-0.9-0.5-1.2-0.5c-1.2,1.2-2.1,1.9-3,3c0.5,0.9,1.2,2.1,1.6,3c1.6,0.5,2.1-1.2,3.2-1.2
			C400.1,588.3,399.8,587.2,399.4,585.6z M386.5,656.6c-1.9,1.6-3.7,3-5.3,4.3c0,0.7,0,1.2,0,1.9c2.8-1.4,5.3-2.8,7.6-3.9
			C388.1,658.2,387.4,657.5,386.5,656.6z M418.5,586.3c-0.9-0.9-1.9-1.9-2.8-2.8c-0.9,1.6-1.9,3.2-1.9,5c0.9,0.5,1.9,0.9,2.5,1.2
			c0.7-0.7,1.4-1.2,1.9-1.6C418.5,587.4,418.5,586.5,418.5,586.3z M418.2,570.9c0.5-0.9,0.7-1.4,0.9-2.1c-1.6-1.4-2.5-3.2-4.8-3.2
			c-0.2,0.2-0.5,0.5-0.7,0.7c0,1.2,0,2.1,0,3C415.2,570,416.6,570.4,418.2,570.9z M396.6,594.8c-1.2-1.9-0.7-4.1-2.8-5.5
			c-0.7,1.2-1.4,2.1-1.9,2.8c0,0.7,0,1.4,0,1.4c1.2,0.9,1.9,1.6,2.8,2.3C395.2,595.2,395.9,595,396.6,594.8z M359,582.6
			c0.7-1.6,1.4-2.8,1.2-4.1c-0.7-0.2-1.4-0.5-2.1-0.5c-0.7,0-1.4,0.2-2.1,0.5c0,0.9,0,2.1,0,2.8c0.5,0.5,0.9,0.9,1.4,1.4
			C357.6,582.6,358,582.6,359,582.6z M410.8,587.2c0.7,0,1.4,0,1.9,0c0.5-0.9,0.9-1.6,1.2-2.5c0-0.9,0-1.9,0-3c-0.9,0-1.6,0-2.5,0
			c-0.5,1.6-0.7,3.2-1.2,4.6C410.4,586.7,410.6,586.9,410.8,587.2z M419.1,566.3c0.2-0.7,0.7-1.2,0.5-1.6c-0.7-1.6-1.2-3.2-3-4.1
			c-0.7,1.2-1.2,2.3-1.9,3.5C416.1,564.7,417.5,565.6,419.1,566.3z M370.9,606.5c-1.4-1.2-3-2.8-5.5-2.3c0.2,2.8,3.2,3,4.1,4.8
			C370.2,608.4,371.1,607.9,370.9,606.5z M335.3,561.3c-0.2,2.1,1.9,1.9,2.3,3c0,0,0.2,0,0.5,0.2c0.5-0.2,1.2-0.5,1.4-0.7
			c0.2-0.5,0.5-0.9,0.7-1.4c-0.7-0.9-1.2-1.6-1.9-2.3c-0.7,0-1.4,0-1.6,0C336.2,560.6,335.8,560.8,335.3,561.3z M370.4,585.4
			c-1.9-0.2-3,0.9-4.1,2.1l-0.2,0.2c0.2,0.2,0.5,0.7,0.7,0.9c0.7,0,1.4,0,2.1,0c1.2,0.2,2.3-0.5,3-1.2c0.2-0.2,0.2-0.5,0.2-0.7
			C371.5,586.5,371.1,586.1,370.4,585.4z M386.7,627.4c-0.2-1.9-0.9-2.8-2.5-3.2c-1.2,1.9-1.2,1.9-1.2,4.1c0.7,0.2,1.4,0.5,2.1,0.9
			C385.8,628.5,386.2,628.1,386.7,627.4z M363.7,607.4c0,0.7,0,1.4,0,1.6c1.4,1.9,2.5,3.5,3.9,5.3c0.7-0.5,0.9-0.7,1.4-0.9
			c-1.4-2.1-2.5-3.9-3.7-5.7C364.7,607.4,364.4,607.4,363.7,607.4z M369.1,647.8c0,1.9,0,3.5,0,5.3c1.9-0.9,1.9-3.2,3.5-4.3
			c-0.2-0.7-0.5-1.2-0.7-1.6C370.6,647.1,369.9,646.9,369.1,647.8z M386,637.5c-1.9-0.9-1.9-0.9-5-0.7c0.5,1.2,0.7,2.1,1.2,3
			c1.6,0.5,2.8,0,3.9-1.2C386,638.4,386,637.9,386,637.5z M420.9,563.1c1.6-2.3,1.9-2.8,0.5-4.3c-1.2,0.5-2.5-0.7-3.5,0.9
			c0.5,0.9,0.9,1.6,1.2,2.1C420,562.1,420.5,562.6,420.9,563.1z M400.8,586.5c0.5,0.5,0.9,0.9,1.4,1.4c0.5,0,0.9,0,1.4,0
			c0-1.6,0-3.2,0-4.6c-0.2-0.2-0.7-0.7-1.2-1.2c-0.5,0.7-0.9,1.4-1.6,2.3C400.8,584.5,400.8,585.4,400.8,586.5z M372.2,589.3
			c-2.3,0-4.1,0.9-4.6,2.5c1.6,0.2,3,0.5,4.6,0.9c0-0.2-0.2-0.2-0.2-0.5c0.5-0.2,0.9-0.2,1.2-0.5
			C372.9,590.9,372.7,590.2,372.2,589.3z M368.4,597.1c0,0.7,0,1.2,0,1.4c1.2,0.9,2.1,1.6,3.5,2.5c0.5-0.2,0.9-0.5,1.4-0.7
			c0-0.7,0-1.4,0-2.1C371.5,597.8,370.2,596.8,368.4,597.1z M344.3,568.2c1.2,0,2.3,0,3.2,0.5c0.2,0.2,0.7,0,0.9,0
			c0-0.9,0-1.9,0-2.8c-1.2-0.2-2.3-0.5-3.2-0.5c-0.9,0.7-1.4,0.9-1.6,1.4C343.8,567.2,344,567.7,344.3,568.2z M361.3,583.1
			c1.9-1.2,3.2-2.1,4.8-3.2c-1.4-0.7-2.5-0.9-3.5-1.4c-0.5,0.2-0.9,0.5-1.4,0.7C361.3,580.1,361.3,581.2,361.3,583.1z M386,671.2
			c0.2,0.2,0.5,0.5,0.7,0.7c1.9,0,3.9,0,5,0c0.9-0.7,1.4-0.9,1.9-1.4c-0.5-0.5-0.7-0.7-0.7-0.7c-2.1,0.2-4.1,0.5-6.4,0.5
			C386.5,670.8,386.2,671,386,671.2z M395.7,602.4c-1.2-1.4-2.3-2.5-4.3-1.9c0.2,0.9,0.5,1.6,0.7,2.5l0.2-0.2
			c0.5,0.5,0.7,1.2,0.9,1.4C395.2,604.2,395.2,604.2,395.7,602.4z M418.6,573.9c0-0.2-0.2-0.5-0.2-0.7c-1.9-0.2-3-2.1-5.3-1.9
			c0.2,1.2,0.7,2.3,0.9,3.2c1.4,0,2.5,0,3.5,0l-0.2-0.2C417.8,574.1,418.2,573.9,418.6,573.9z M387.9,644.8c0.2,0.5,0.5,0.9,0.7,1.2
			c0.7,0.2,1.6,0.5,2.3,0.7c0.5-0.7,0.9-1.6,1.4-2.3c-0.7-0.5-1.2-0.9-1.6-1.4c-0.7,0-1.4,0-1.9,0
			C388.5,643.7,388.1,644.1,387.9,644.8z M398.4,610.9c-0.7,0.9-1.2,1.9-1.9,3c0.5,0.5,0.7,0.7,0.9,0.9c0.2,0,0.7,0,0.7,0
			c1.2-1.2,1.9-1.9,3-2.8C401,610.7,399.8,610.9,398.4,610.9z M418.8,576.4c-1.4,0.2-2.3-1.2-3.7-0.5c-0.2,0.2-0.5,0.5-0.7,0.9
			c0.5,0.7,0.9,1.6,1.4,2.3c0.7,0,1.4,0,1.4,0c0.9-0.7,1.4-0.9,1.9-1.2C418.8,577.1,418.8,576.9,418.8,576.4z M353.4,578.1
			c-0.7,0.2-1.2,0.7-1.9,0.9c-0.2,1.4,0,2.5,0.7,3.5c0.5,0.2,0.9,0.5,1.4,0.7c0.2-0.2,0.5-0.5,0.7-0.7c0-1.2,0-2.3,0-3.5
			C354.1,578.7,353.9,578.4,353.4,578.1z M388.1,640.3c-0.5-0.2-0.9-0.2-1.2-0.5c-0.9,0.7-2.3,0.9-2.5,2.3c0.7,0.7,1.2,1.9,2.3,1.2
			c0.7-0.7,1.2-1.2,1.9-1.9C388.5,641.2,388.3,640.7,388.1,640.3z M330.7,562.1c0.7-0.2,1.4-0.7,1.9-0.9c0.2-0.9,0.5-1.6,0.7-2.6
			c-1.6,0-3,0-4.8,0C329.3,560.1,329.7,561.1,330.7,562.1z M391.6,595.4c0,0.2-0.2,0.5-0.5,0.9l-0.2-0.2c0,0.7,0,1.2,0,1.6
			c0.5,1.2,1.4,0.7,2.3,0.9c0.7,0.2,1.4,0.9,2.1,0.2C394.1,597.8,393,596.8,391.6,595.4z M343.6,563.8c1.2,0,2.5,0,3.9,0
			c-0.5-0.9-0.9-1.9-1.4-2.5c-1.2,0-2.3,0-3.5,0C343.1,562.1,343.3,562.8,343.6,563.8z M347.9,570c-1.6,0-2.8,0-3.9,0
			c-0.2,0.9,0,1.9,0.7,2.1c0.7,0.2,1.6,0.5,2.8,0.7c0.2-0.2,0.5-0.7,0.9-1.2C348.4,571.1,348.1,570.6,347.9,570z M341.7,566.1
			c-1.2,0-1.9,0-2.5,0c0.2,1.6,0.5,3,0.7,4.6c0.7-0.2,1.4-0.5,1.9-0.7C341.7,568.6,341.7,567.5,341.7,566.1z M343.8,580.3
			c1.9-0.2,1.9-0.2,2.1-1.9c-0.7-0.7-1.4-1.4-1.9-1.9c-0.5,0-0.9,0-1.4,0c0,0.9,0,1.6,0,2.3C342.9,579.4,343.3,579.8,343.8,580.3z
			 M371.8,593.9c-1.2,0-2.5,0-3.7,0c0,0.5,0,0.9,0,1.6c1.9-0.9,3,1.6,4.8,0.9C373.6,594.8,372.2,594.5,371.8,593.9z M393.6,642.4
			c0.7,0.5,1.4,0.9,1.9,1.4c0.5,0,1.2,0,1.6,0c0-0.9,0-1.6,0-2.5c-0.7-0.2-1.6-0.5-2.3-0.9C394.3,641.2,394.1,641.7,393.6,642.4z
			 M367.5,601.2c0.5,0.7,0.9,1.6,1.4,2.3c0.9,0.5,2.1,1.2,3.2,0.2C370.9,602.4,369.5,601.5,367.5,601.2z M348.6,579.8
			c-0.2,0.2-0.5,0.7-0.9,1.2c1.2,0.7,0.2,3.5,3.2,2.5c-0.2-1.2-0.5-2.1-0.7-2.8C349.5,580.3,349.1,580.1,348.6,579.8z M347.2,575.7
			c-0.5-0.7-0.9-1.4-1.2-1.9c-1.2-0.2-1.9-0.5-2.8-0.7c0.5,1.9,2.3,2.3,2.5,3.9C346.5,576.7,346.7,576.2,347.2,575.7z M395.2,605.3
			c-0.5,0.2-1.2,0.5-1.6,0.7c0,0.9,0,1.4,0,2.1c0.7,0,1.4,0,1.9,0c0.5-0.5,0.9-0.9,1.4-1.4C396.4,606.3,395.9,605.8,395.2,605.3z
			 M396.6,611.3c0.5-0.7,1.6-1.2,1.9-2.5c-1.9-0.5-3,0.7-3.9,2.1c0,0,0,0.2,0.2,0.5C395.2,611.3,395.9,611.3,396.6,611.3z M395,646
			c-0.7-0.5-0.9-0.7-0.9-0.7c-0.7,0.5-1.2,0.9-1.6,1.2c0.7,0.7,1.2,1.2,1.6,1.6c0.2,0,0.7-0.2,0.9-0.5C395,647.1,395,646.4,395,646z
			 M338.5,573.4c0.7,0.7,0.5,1.9,2.1,2.1c0.2-0.5,0.5-1.2,0.9-1.9c-0.9-0.5-1.4-0.7-2.1-0.9C339.2,573,338.9,573.2,338.5,573.4z
			 M395.7,618.5c0.7,0.7,1.2,1.2,1.6,1.6c0.7-0.7,0.7-1.6,0.5-2.5c-0.7,0-1.4,0-2.1,0.2C395.7,618.2,395.7,618.5,395.7,618.5z
			 M397,649.5c-0.2-0.9,0.2-1.9-0.5-3c-0.5,0.5-0.9,0.7-1.2,0.9c0,0.7,0,1.4,0,2.1C396.1,649.5,396.6,649.5,397,649.5z M418.8,580.1
			c-0.2,0-0.7,0.2-1.4,0.2c0.5,0.7,0.9,0.9,1.2,1.4c0.7,0,1.4,0,1.9,0C420,581.2,419.5,580.8,418.8,580.1z M343.8,559
			c-1.2,0-2.3,0-3.5,0c0.7,1.2,1.6,1.2,2.5,0.9C343.1,559.7,343.3,559.4,343.8,559z M346.5,584.5c0.2,0,0.5,0,0.5-0.2
			c0-0.5,0-1.2,0-1.9c-0.7,0-1.2,0.2-1.9,0.2C345.8,583.5,346.3,584,346.5,584.5z M424.2,559.7c0.7-0.2,1.2-0.5,1.6-0.7l-0.2-0.2
			c-0.7,0-1.4,0-2.1,0c0,0.2,0,0.7,0,0.9C423.9,559.7,424.4,559.7,424.2,559.7z M420.5,582.9c-0.7,0.5-1.2,0.7-1.9,0.9
			c0.7,0.2,1.2,0.5,1.9,0.7C420.5,584,420.5,583.5,420.5,582.9z"/>
		<path d="M505.2,647.4c0.9-1.6,1.6-3.2,2.3-4.6c1.2-3,3-5,5.5-7.1c2.1-1.9,4.6-3.2,7.1-4.1c2.1-0.9,4.1-1.6,6.4-1.6
			c1.4,0,2.6,0,3.9,0c4.3,0,8,1.6,11.7,3.9c1.4,0.9,3,1.9,3.7,3.7c2.5,1.2,3.5,3.7,4.3,6.2c0.7,1.9,1.2,3.5,1.6,5.3
			c0.5,2.1,0.5,4.1,0.5,6.2c-0.2,2.8-0.7,5.5-1.9,8c-1.2,2.5-2.5,4.6-4.3,6.4c-0.9,0.9-1.9,2.1-2.8,3c-1.9,1.6-3.9,2.5-5.9,3.5
			c-0.9,0.5-2.3,0.2-3.5,1.4c-3,0-6.2,0.2-9.2,0c-1.9-0.2-3.5-0.7-5.3-1.4c-3.5-1.2-6.4-3.7-9.2-6.9c-1.6-1.9-2.3-3.9-3.5-5.7
			c-0.5-0.9-0.9-1.9-1.2-2.8c-0.5-1.6-0.9-8.7-0.5-10.1C505,649,505,648.1,505.2,647.4z M508.9,652.9v-0.2c0.7-0.2,1.6-0.2,2.5-0.5
			c-0.7-0.7-0.9-1.4-1.6-1.6c-0.9-0.5-1.9-0.7-2.8-0.9c-0.5,0.5-0.7,0.7-0.9,0.9c0,0.9,0,2.1,0,3c0.5,0.2,0.7,0.2,0.9,0.5
			c-0.9,1.6-0.9,1.6-0.9,3.2c2.3-0.5,4.6-0.7,6.9-1.2c0-1.2,0.2-2.3-0.9-2.8C511.4,652.9,510.3,652.9,508.9,652.9z M524.5,660.9
			c-0.7-1.2-1.2-2.1-1.9-2.8c-0.9-1.2-1.4-2.3-1.2-3.7c0.5-1.6,0.5-3.2,1.6-4.6c0.9-0.5,1.9-0.9,2.8-1.4c0.7,0,1.9,0.5,2.3,0
			c1.4-0.9,2.1-0.2,3,0.2c0.9,0.5,1.6,0.9,2.3,1.6c0.5-0.7,0.9-1.2,1.2-1.6c0.7,0,1.4,0,1.9,0c0.2,0.7,0.5,1.2,0.7,1.9
			c-0.5,0.5-0.9,1.2-1.4,1.4c-0.9-0.2-1.6-0.5-2.5-0.7c0.9,1.9,0.2,3.5,0.7,4.8c0.2,0.2,0.5,0.5,0.7,0.7c0.7,0,1.6,0,2.3,0
			c0,0.9,0,1.9,0,2.5c-0.5,0.2-0.9,0.5-1.4,0.7c-0.7-0.5-1.4-0.9-1.9-1.2c-0.7,0.5-1.2,0.9-1.9,1.4c0.5,0.7,0.9,1.2,1.4,1.6
			c0,0.5,0,1.2,0,1.6c1.6,0.5,2.3-0.7,3.2-1.6c1.4-1.4,2.8-2.8,3.2-4.8c0.7-2.8,0.7-4.8-0.2-8c-0.5-1.9-1.4-3.2-2.3-4.8
			c-1.2-0.9-2.1-2.1-3.2-2.8c-1.2-0.7-1.9-2.1-4.1-2.3c-2.3-0.7-5,1.4-8,1.2c-0.5,0.7-1.9,0.5-2.1,1.6c-0.2,0.7-0.5,0.9-1.2,1.2
			c-0.7,0.2-1.2,0.7-1.9,1.2c-0.7,2.1-2.5,3.9-2.3,6.4c0,2.3-0.5,5,1.6,7.1c0.5-0.7,0.9-1.2,1.6-1.9c0.5,0,1.2,0,1.6,0
			c0.5,0.7,0.5,0.9,0.7,1.4c-0.5,0.5-0.9,0.9-1.2,1.2c-0.9,0.2-1.4,0.2-2.1,0.2c1.4,1.4,2.5,2.5,4.1,4.1
			C522.5,662.8,523.4,661.4,524.5,660.9z M516.7,636.3c0.7,1.2,1.4,2.3,2.1,3.7c1.6-0.7,3.2-1.4,4.6-1.9c0.2-2.1,0-3.9-0.7-5.5
			c-0.7,0-1.4,0-1.9,0.2c-2.8,2.1-6.4,3.5-8.7,6.4c1.4,1.4,1.9,3.5,3.7,4.6c0.7-1.2,1.4-2.1,2.1-2.8c-0.9-1.4-1.6-2.3-2.6-3.5
			C515.8,636.8,516.3,636.6,516.7,636.3z M514.2,658.2c-0.5-0.5-0.7-0.7-0.9-0.9c-1.2,0-2.3-0.5-3.2,0c-1.2,0.7-2.1,0.2-3,0.5
			c-0.7,1.9,1.4,3,1.2,4.1c0.7,0.7,1.2,1.2,1.6,1.6c1.6-1.4,4.3-0.7,5.5-3c0-0.5,0-0.7-0.2-1.2c-0.9,0.2-1.6,0.5-2.5,0.7
			C513,659.4,513.5,658.9,514.2,658.2z M535.3,666c0.2,2.5,1.6,4.6,2.3,6.9c2.1,0,3.2-1.4,4.3-2.8c-0.7-1.2-1.2-2.5-2.1-3.2
			c-1.2-0.9-1.2-2.5-2.8-3C536.7,664.6,536,665.3,535.3,666z M515.4,670.6c1.2-1.6,2.1-3.2,3.2-5c-0.7,0.2-0.9,0.2-1.2,0.5
			c-0.9,0.9-1.9,1.9-3,3c-0.2,0.2-0.5,0-0.9,0c0-0.5,0-0.9,0-1.6c1.4-0.9,2.1-2.8,3.7-3.7c0-0.5,0-0.9,0-1.2c0,0,0-0.2-0.2-0.5
			c-2.8,0.2-5,1.6-6.9,3.7c0.7,1.2,1.4,2.1,2.1,3C512.8,669.6,513.7,670.6,515.4,670.6z M538.5,662.8c1.2,3,3,4.8,5.5,5.7
			c0.7-0.7,1.2-1.2,1.9-1.6c0-0.5,0-0.9,0-1.6c-0.9-0.7-2.1-1.4-2.8-2.3c-0.7-1.2-1.9-1.2-2.8-1.6
			C539.7,661.8,539.2,662.3,538.5,662.8z M528.9,668.5c0,1.9,0,3.9,0,6.2c0.2,0.2,0.5,0.5,0.7,0.7c0.7,0,1.6,0,2.3,0
			c0.2-0.2,0.5-0.5,0.7-0.7c0.7-2.1-0.5-4.1-0.5-6.2c-0.5-0.7-0.9-1.4-1.6-2.3C529.8,667.2,529.3,667.9,528.9,668.5z M527.7,674
			c-0.7-2.1,1.2-3.9,0-5.7c-0.5-0.5-0.7-0.9-1.2-1.2c-0.2,0-0.5,0.2-0.9,0.5c-1.6,2.3-1.4,5-1.4,8c0.7,0,1.4,0,1.9,0
			C526.8,675,527.3,674.5,527.7,674z M548.7,660.9c-1.6-1.2-3.7-1.6-5.3-3c-0.2-0.2-0.9,0-1.4,0c-0.2,0-0.2,0.2-0.5,0.2
			c-0.2,0.5-0.5,0.9-0.7,1.4c1.2,2.3,4.1,2.8,6,4.8C548.2,663.2,548.7,662.3,548.7,660.9z M542.6,656.1c0.5,0.2,0.9,0.5,1.4,0.9
			c0.9,0.9,2.1,1.4,3,1.9c1.2,0.7,2.1,0.5,2.5-0.5c0-1.4,0-2.5,0-3.7c-2.3,0-4.6,0-6.9,0C542.6,655.2,542.6,655.6,542.6,656.1z
			 M541.9,651.5c0,0.2-0.2,0.5-0.2,0.7c0.5,0.2,0.9,0.2,1.4,0.5l-0.2,0.2c2.3,0.2,4.6,0.5,6.6,0.7c0.5-0.5,0.7-0.7,0.9-0.9
			c-0.2-0.5-0.5-0.9-0.5-1.4s0-0.9-0.2-1.6C547,650.2,544.5,650.9,541.9,651.5z M525.9,661.1c-0.2,1.4-0.5,2.5-0.9,3.9
			c2.1-0.2,4.3,0.7,6.4-0.9c-0.2-0.9-0.5-1.6-0.7-2.1C529.3,660.7,527.9,661.4,525.9,661.1z M519.7,665.3c-1.2,2.5-3.5,3.9-3.9,6.6
			c0.7,0.5,1.4,0.9,2.1,1.2c0.2-0.2,0.5-0.2,0.5-0.5c0.5-1.6,1.2-2.8,2.3-3.9c0.5-0.5,0.5-1.6,0.9-2.5
			C521.1,666,520.6,665.5,519.7,665.3z M507.1,647.6c1.6,0.7,3.2,1.4,4.6,2.1c0.5-0.2,0.9-0.5,1.6-0.7c0-0.2,0-0.7,0-1.2
			c-1.4-1.2-2.5-3-4.6-3.7C508.2,645.1,507.8,646.2,507.1,647.6z M547,641.7c-2.8,0.7-4.6,2.5-6.9,4.1c0.7,0.5,0.9,0.9,1.4,1.2
			c2.3-0.7,4.1-1.4,6.4-2.3C547.5,643.9,547.3,643,547,641.7z M522,675c1.4-2.3,1.4-5,2.3-7.3c-0.5-0.2-0.7-0.7-1.2-0.9
			c-1.6,0.7-0.9,2.5-2.3,3.2c0.2,1.6-1.2,2.5-1.9,3.9C520.1,674,521.1,674.5,522,675z M538.8,643.7c2.5-0.2,4.6-1.4,6.6-2.3
			c0-0.5,0-0.9,0-1.4l-0.2,0.2c-0.5-0.7-0.7-1.2-1.2-1.9c-2.3,0.7-3.9,2.1-5.3,3.7C538.8,642.6,538.8,643,538.8,643.7z M536,674.5
			c0-1.2-0.5-2.1,0-3.2c0.2-0.9-0.5-1.9-0.7-3c-0.2-0.9-0.9-1.9-2.1-2.3c-0.2,0.5-0.7,0.7-0.9,0.9c0.9,2.5,1.6,4.8,2.5,7.3
			C534.8,674.5,535.3,674.5,536,674.5z M549.3,648.1c-0.2-0.5-0.5-1.2-0.7-1.6c-3-0.7-5,0.9-7.3,2.3c0,0.5,0,1.2,0.2,1.6
			c2.3-0.9,4.6-1.4,6.6-1.2C548.9,648.8,549.1,648.5,549.3,648.1z M537.6,641c1.9-1.2,3.5-2.3,5.3-3.7c-1.2-0.7-2.1-1.4-3.2-2.3
			c-1.4,1.9-2.5,3.5-3.7,5C536.7,640.5,537.1,640.7,537.6,641z M533.4,638.6c0.7,0,1.2,0,1.9,0c1.2-1.2,2.8-2.3,3-4.1
			c-0.2-0.2-0.7-0.7-0.9-0.9c-0.9,0-1.6,0-2.5,0C534.4,635.2,533,636.6,533.4,638.6z M512.8,641.4c-0.7-0.2-1.2-0.5-1.6-0.7
			c-0.5,0.5-0.9,0.9-1.4,1.4c0,0.5,0,0.7,0,0.9c1.4,1.2,2.8,2.1,3.7,3c0.7-0.2,1.2-0.5,1.4-0.5C514,643.9,513.3,642.8,512.8,641.4z
			 M530,632c-0.9,0-1.4,0-2.1,0c-0.2,1.4-0.2,2.8-0.5,4.3c0.2,0.2,0.9,0.5,1.4,0.7c0.5-0.5,0.7-0.7,0.9-0.9
			C530,634.8,530,633.6,530,632z M524.1,632.5c0.2,0.7,0.5,1.2,0.5,1.6c0,1.2,0,2.1,0,3.2c0,0,0.2,0.2,0.5,0.5
			c0.5-0.2,0.7-0.7,1.2-0.9c0-1.6,0-3.2,0-4.8C525.4,632,524.7,632.2,524.1,632.5z M533.9,633.9c0.2-0.9,0-1.6-0.9-1.9
			c-0.7-0.2-1.4,0.2-1.6,0.7c0,1.4,0,2.5,0,3.9C532.4,635.4,533,634.8,533.9,633.9z"/>
		<path d="M172.5,585.9c0.7,0.7,0.9,0.9,1.2,1.2c-0.2,1.4-1.2,2.3-2.3,3.2c-0.7-0.7-1.6-1.2-1.6-2.5
			C170.2,586.5,171.6,586.5,172.5,585.9z"/>
		<path d="M136.4,632.9c0.2,0.5,0.5,0.7,0.7,0.9c-0.5,0.7-0.9,1.4-1.6,2.3c-0.5,0-0.9,0-1.6,0c-0.2-0.5-0.5-1.2-0.9-1.6
			c0.2-0.5,0.5-0.9,0.7-1.6C134.6,632.9,135.5,632.9,136.4,632.9z"/>
		<path d="M112.1,610.2c-0.7,0-1.2,0-1.9,0c-0.2-0.7-0.7-1.2-0.9-1.9c0.2-0.2,0.5-0.5,0.9-0.9c0.7,0,1.6,0,2.3,0
			c0.2,0.2,0.5,0.5,0.9,0.9C113.2,609,112.8,609.5,112.1,610.2z"/>
		<path d="M123.6,593.7c0.7-0.2,1.4-0.5,2.1-0.7c0.9,0.5,1.4,1.2,1.2,2.1c-0.5,0.5-1.2,0.7-1.9,1.2c-0.7-0.5-1.4-0.7-1.9-1.2
			C123.3,594.5,123.3,594.4,123.6,593.7z"/>
		<path d="M97.6,593.2c0.2-0.2,0.5-0.5,0.7-0.7c0.7,0,1.4,0,2.3,0c0.2,0.5,0.7,0.9,1.2,1.4c-0.5,0.2-0.9,0.7-1.6,1.2
			c-0.2,0-0.7,0-1.4,0C98.5,594.5,98.1,593.9,97.6,593.2z"/>
		<path d="M111.6,585.6c1.4,1.6,1.2,1.6,0.2,3c-0.7,0-1.2,0-2.1,0c-0.2-0.7-0.5-1.2-0.7-1.9C110,586.3,110.7,586.1,111.6,585.6z"/>
		<path d="M113.2,572.5c0.9,0.5,1.4,0.7,2.1,0.9c0,0.2,0,0.5,0,0.7c-0.2,0.7-0.5,1.4-0.7,2.1c-0.9-0.5-1.9-0.9-2.8-1.4
			C112.5,573.9,112.8,573.2,113.2,572.5z"/>
		<path d="M113,583.3c-0.7-0.2-1.4-0.7-2.6-1.2c0.7-0.7,1.2-1.2,1.6-1.9c0.7,0,1.2,0,1.9,0C114.6,581,114.2,582.2,113,583.3z"/>
		<path d="M104.3,594.1c-0.2-0.7-0.5-1.2-0.7-1.9c0.5-0.2,0.9-0.5,1.6-0.9c0.7,0.5,1.4,0.7,1.9,1.2
			C106.8,594.4,105.4,594.1,104.3,594.1z"/>
		<path d="M112.5,568.6c-0.5,0.5-0.9,0.9-1.2,1.2c-0.5-0.2-0.7-0.5-1.4-0.7c-0.2-0.5-0.5-0.9-0.9-1.9c1.2,0,2.3,0,3.5,0
			C112.5,567.7,112.5,568.2,112.5,568.6z"/>
		<path d="M166.9,648.8c-0.2-0.5-0.5-0.9-0.7-1.4c0.7-0.5,1.4-0.9,2.1-1.2c0.5,0.2,1.2,0.5,1.9,0.9c-0.2,0.7-0.2,1.2-0.5,1.9
			C168.6,648.8,167.9,648.8,166.9,648.8z"/>
		<path d="M171.3,655.6c-0.7-0.7-1.2-1.2-2.1-2.1c0.7-0.2,1.2-0.2,1.6-0.5c-0.2,0-0.2-0.2-0.5-0.2c0.7,0,1.2,0,1.9,0
			C172.5,654,172.5,654.9,171.3,655.6z"/>
		<path d="M50.1,584.5c0.2,0.7,0.5,1.2,0.7,1.9c-0.2,0.2-0.5,0.5-0.7,0.9c-0.9,0-1.9,0-3,0c0-0.9-0.5-1.9,0.7-2.5
			C48.5,584.5,49.2,584.5,50.1,584.5z"/>
		<path d="M93,644.8c0.2-0.2,0.7-0.7,1.2-1.2c0.5,0,1.2,0,1.9,0c0.2,0.5,0.5,1.2,0.9,1.9c-0.9,0.5-1.9,0.7-2.6,1.2
			C93.9,646,93.4,645.3,93,644.8z"/>
		<path d="M98.1,648.8c0.5-0.2,0.9-0.5,1.4-0.5c0.5,0.2,0.9,0.5,1.6,0.7c-0.2,0.7-0.5,1.2-0.7,1.9c-0.9,0-1.4,0-2.1,0
			C98.1,650.2,98.1,649.5,98.1,648.8z"/>
		<path d="M61.5,622.8c0,0.2,0,0.7,0,1.2c-0.5,0.5-0.9,0.9-1.4,1.4c-0.2,0-0.2,0-0.2,0c-0.5-0.2-1.2-0.5-1.6-0.9c0-0.5,0-0.7,0-1.2
			c0.7-0.5,1.2-0.7,1.9-1.2C60.6,622.3,61.1,622.6,61.5,622.8z"/>
		<path d="M106.3,624.4c0.5,0,1.2,0,2.1,0c0.2,0.5,0.7,1.2,0.5,1.9c-0.2,0.7-0.7,1.2-2.1,0.7c-0.2-0.2-0.5-0.9-0.9-1.4
			C105.9,625.4,106.1,624.9,106.3,624.4z"/>
		<path d="M294.9,636.3c-0.2,0.7-0.5,1.6-0.7,2.8c-1.2,0-2.1,0-3,0c-0.2-0.2-0.5-0.5-0.7-0.7c0-0.5,0-1.2,0-1.9
			c1.2-0.5,2.3-0.9,3.5-1.4C294.2,635.4,294.4,635.6,294.9,636.3z"/>
		<path d="M294.4,576.2c0,0.9,0,1.4,0,1.9c-0.5,0.5-1.2,1.2-1.6,1.6c-0.7-0.2-1.4-0.5-2.1-0.9c0-0.5,0-0.7,0-1.2
			c0.7-0.5,1.4-1.2,2.3-1.9C293,575.7,293.7,576,294.4,576.2z"/>
		<path d="M294.7,646c-0.5,0.5-0.9,0.9-1.2,1.2c-0.7,0-1.4,0-1.9,0c-0.7-1.4,0.5-1.9,1.2-2.5c0.7,0,1.2,0,1.9,0
			C294.7,645.1,294.7,645.5,294.7,646z"/>
		<path d="M238.6,589.5c-0.2-1.9,1.4-2.3,2.5-3c0.5,0.5,0.7,0.9,1.2,1.4c-0.2,0.5-0.2,1.2-0.5,1.9c-0.5,0.2-0.9,0.5-1.4,0.9
			C240,590.2,239.3,589.7,238.6,589.5z"/>
		<path d="M251.2,607.7c0.5-0.5,0.9-0.9,1.4-1.4c0.5,0,1.2,0,1.9,0c0.2,0.5,0.5,1.2,0.9,1.9c-0.7,0.7-1.2,1.2-1.9,1.6
			c-0.7-0.2-1.6-0.5-2.3-0.9C251.2,608.6,251.2,608.1,251.2,607.7z"/>
		<path d="M284.3,608.4c-0.2,0,0.5,0,1.2,0c-0.2,1.2-0.5,2.1-0.7,3c-0.5,0.2-0.9,0.5-1.4,0.7c-0.5-0.7-1.6-0.9-1.2-2.5
			C282.5,609.3,283.1,609,284.3,608.4z"/>
		<path d="M312.1,646.9c0.5,0.5,0.9,0.9,1.4,1.6c-0.2,0.5-0.5,1.2-0.7,1.9c-0.9,0-1.9,0-2.8,0c0-0.7,0-1.4,0-2.1
			C310.7,647.8,311.4,647.4,312.1,646.9z"/>
		<path d="M308.2,635.2c-0.7,0.7-1.2,1.2-1.6,1.6c-1.2,0.2-1.6-0.7-2.1-1.2c0.7-0.7,1.4-1.4,2.1-2.1c0.2,0.2,0.5,0.5,0.9,0.7
			C307.5,634.5,307.7,635,308.2,635.2z"/>
		<path d="M309.8,642.6c-0.5,0.9-0.7,1.4-0.9,1.9c-0.5,0.5-1.6,0-2.8-1.2c0.5-0.5,1.2-1.2,1.6-1.9
			C308.4,642.1,309.1,642.4,309.8,642.6z"/>
		<path d="M312.7,625.1c0.2-0.7,0.5-1.2,0.7-1.9c0.7,0,1.4,0,2.3,0c0,0.7,0,1.4,0,1.9c-0.5,0.2-0.9,0.5-1.4,0.7
			C313.9,625.6,313.4,625.4,312.7,625.1z"/>
		<path d="M309.8,631.5c-0.9,0.2-1.6-0.2-1.9-0.9c1.2-1.6,1.2-1.6,2.8-0.5C310.5,630.4,310,630.8,309.8,631.5z"/>
		<path d="M222.6,632.2c0.7-0.5,1.4-0.7,1.9-1.2c0.5,0.2,0.9,0.5,1.4,0.7c0.2,0.9,0.2,2.1-0.9,2.5c-0.2,0-0.7-0.2-1.2-0.2
			c-0.5-0.2-0.7-0.5-1.2-0.5C222.6,633.2,222.6,632.7,222.6,632.2z"/>
		<path d="M223,629c-0.2,0.2-0.5,0.5-0.7,0.7c-0.9,0-2.1,0.2-2.5-0.9c0.2-1.4,1.6-1.2,2.3-1.9C223,627.6,223.2,628.1,223,629z"/>
		<path d="M310,594.5c0.9-0.7,1.4-0.9,2.1-1.4c0,0,0.5,0.5,1.2,1.4C311.7,594.1,311.4,595.4,310,594.5z"/>
		<path d="M303.2,593.9c-0.2,0-0.7,0-0.9,0v-0.2c0.2,0,0.7-0.2,0.9-0.2C303.2,593.4,303.2,593.7,303.2,593.9z"/>
		<path d="M311.9,576.2c-0.5-0.2-0.9-0.5-1.4-0.7c0-0.2,0-0.7,0-1.2c0.5-0.2,1.2-0.5,1.9-0.9c0.2,0.5,0.5,0.7,0.9,1.6
			C313.2,575.5,312.4,575.7,311.9,576.2z"/>
		<path d="M227.6,594.1c-0.2,0-0.7,0-1.2,0c0-0.5,0-0.7,0-1.2c0.2,0,0.7,0,1.2,0C227.6,593.4,227.6,593.9,227.6,594.1z"/>
		<path d="M547.7,573.4c0.5-0.5,0.7-0.7,1.2-1.2c0.7,0.5,1.6,0.9,2.3,1.2c-0.2,0.7-0.5,0.9-0.7,1.6c-0.2,0-0.7,0-1.2,0
			C548.9,574.8,548.2,574.4,547.7,573.4z"/>
		<path d="M551.4,536.7c0.2,0.7,0.5,1.2,0.7,1.9c-0.9,0.5-1.6,0.9-2.5,1.6c-0.5-0.7-0.9-1.2-1.6-1.9c0.5-0.5,0.9-1.2,1.4-1.6
			C550,536.7,550.7,536.7,551.4,536.7z"/>
		<path d="M567,546.8c-0.7-0.5-1.2-0.7-1.9-0.9c0-0.2,0-0.7,0-1.2c0.5-0.2,0.9-0.7,1.6-1.2c0.5,0,0.9,0,1.6,0c0,0.7,0,1.4,0,2.1
			C567.9,545.8,567.4,546.3,567,546.8z"/>
		<path d="M551.4,527.3c0.5,0.9,0.9,1.6,1.4,2.5c-0.5,0.2-0.7,0.5-1.2,0.5l0.2,0.2c-0.5,0-1.2,0-1.6,0c-1.2-0.5-0.9-1.6-0.9-2.5
			C550,527.8,550.7,527.5,551.4,527.3z"/>
		<path d="M554.8,546.5c-1.2,0.2-2.1,0.5-3.2,0.7c0-0.7,0-0.9,0-1.2c0.7-0.7,1.6-1.4,2.3-2.3C555.1,544.1,554.6,545.5,554.8,546.5z"
			/>
		<path d="M559.9,549.3c-0.9-0.7-1.4-0.9-2.3-1.6c0.7-0.7,1.4-1.2,2.1-1.9c0.5,0.5,0.9,0.9,1.6,1.4C561,549.3,561,549.3,559.9,549.3
			z"/>
		<path d="M560.1,588.1c0.5-0.5,0.9-0.7,1.4-1.2c0.7,0.7,2.3,0.7,1.9,2.5c-0.5,0.2-0.9,0.9-1.4,1.4c-0.7-0.2-1.2-0.5-1.9-0.7
			C560.1,589.5,560.1,588.8,560.1,588.1z"/>
		<path d="M561.3,592.7c0.9,0.2,1.6,0.7,2.5,0.9c0,0.5,0,0.7,0,1.2c-0.5,0.5-0.9,0.9-1.6,1.6c-0.7-0.5-1.2-0.7-1.9-1.2
			C560.8,594.5,561,593.7,561.3,592.7z"/>
		<path d="M572.1,576.7c0,0.7,0,1.4,0,1.9c-0.7,0.2-1.2,0.5-1.9,0.9c-0.5-0.5-0.9-1.2-1.4-1.9c0,0,0-0.5,0-0.7
			c0.5-0.2,1.2-0.5,1.9-0.9c0.2,0.2,0.5,0.5,0.7,0.7C571.6,576.7,571.8,576.7,572.1,576.7z"/>
		<path d="M576.9,576.4c-0.5,0-0.9,0-1.6,0c-0.2-0.7-0.5-1.6-0.9-2.5c0.7-0.2,1.2-0.5,1.6-0.7c0.5,0.2,1.2,0.7,1.6,0.9
			C578,575.3,577.8,576,576.9,576.4z"/>
		<path d="M516.5,607.7c0,0,0.2,0.5,0.5,0.9c-1.4,1.9-2.8,0-4.3,0.2c0.2-0.7,0.5-1.4,0.5-1.9C514.2,606.3,515.1,606.5,516.5,607.7z"
			/>
		<path d="M524.1,612.7c0,0.7,0,1.4,0,2.1c-0.5,0.2-1.2,0.5-1.6,0.7c-0.7-0.7-1.2-1.4-1.6-2.1C521.5,612.7,522.7,612.4,524.1,612.7z
			"/>
		<path d="M519.9,612.2c-0.7-0.2-1.2-0.5-1.6-0.9c-0.2-0.5-0.5-1.2-0.7-1.9c0.9,0,1.9,0,3,0c0,0.5,0,1.2,0,1.9
			C520.4,611.5,520.1,611.8,519.9,612.2z"/>
		<path d="M525.6,619.1c-0.5,0.2-0.9,0.5-1.2,0.5c-0.5-0.5-0.9-0.9-1.4-1.4c0-0.2,0-0.7,0-1.2c0.9,0,1.6,0,2.8,0
			C525.6,617.8,525.6,618.5,525.6,619.1z"/>
		<path d="M517.4,531.2c0.5-0.2,0.9-0.5,1.4-0.7c0.5,0.2,1.2,0.5,1.6,0.7c-0.5,0.7-0.9,1.6-1.2,2.6c-0.9,0.2-1.9,0.2-2.5-0.9
			C516.9,532.3,517.1,531.9,517.4,531.2z"/>
		<path d="M540.9,541c0.7,0,1.4,0,2.3,0c-0.2,0.2-0.2,0.5-0.5,0.7c-1.2,0.7-2.5,0.9-4.3,1.2C539.5,542.2,539.9,541.7,540.9,541z"/>
		<path d="M539.7,538.5c-0.9,0.5-1.9,1.4-3.2,0.7C537.4,537.6,538.8,538.5,539.7,538.5z"/>
		<path d="M372,616.4c0.2-0.2,1.4,0,1.2-0.9c1.4-1.4,1.6-3.2,2.3-4.8c0.2-0.5,0.5-0.7,0.5-1.2c0.7-2.1,1.6-3.9,2.3-6
			c0-0.2,0-0.5,0.2-0.7c0.9-1.4,1.4-2.8,1.9-4.6c0.2-1.4,0.9-2.8,1.4-4.1c0.5-0.9,0.7-2.1,0.9-3.5c0.5,0.7,1.2,1.2,1.2,1.6
			c0,0.9,0.5,1.9,0.5,2.8c0,0.9,0.2,1.9,0.7,2.8c1.4,2.8,1.6,5.7,2.8,8.5c0.5,1.4,0.9,3,1.4,4.3c0.2,0.7,0.2,1.4,0.5,1.9
			c-2.3,1.2-4.6,1.4-6.9,1.9c-1.2,0.2-2.1,0.5-3,1.2c-1.9,1.2-3.7,1.9-5.5,2.5c-0.5,0.2-1.2,0-1.6,0C372,617.8,372,617.3,372,616.4z
			"/>
		<path d="M385.1,618.2c-0.2,0.2-0.5,0.5-0.7,0.7c-0.9,0-2.1,0.2-2.5-1.2c0.5-0.5,0.9-1.2,1.4-1.6
			C384.9,616.6,384.9,616.6,385.1,618.2z"/>
		<path d="M377.8,621.6c2.3,0.7,2.3,1.2,1.2,2.8c-0.9,0.2-2.1,0.2-2.8-0.9C376.6,623,377.1,622.3,377.8,621.6z"/>
		<path d="M393.6,581.5c0-0.2,0-0.7,0-1.2c0.7-0.2,1.4-0.7,2.3-0.9c0.2,0.7,0.5,1.2,0.7,1.6c-0.2,0.2-0.9,0.7-1.6,1.2
			C395,582.2,394.3,581.7,393.6,581.5z"/>
		<path d="M361.3,587.2c-0.9,2.1-2.3,2.1-4.1,2.1c0.2-0.5,0.2-0.7,0.5-1.2c0.2-0.2,0.2-0.7,0.5-0.9
			C359,587.2,360.1,587.2,361.3,587.2z"/>
		<path d="M350.9,588.1c1.2-0.7,1.9-0.9,2.5-1.4c0.5,0.7,0.9,1.2,1.4,1.6c-0.5,0.5-0.9,0.9-1.4,1.4
			C352.5,589.7,352.3,588.6,350.9,588.1z"/>
		<path d="M434.3,562.6c-0.7,0-1.2,0-1.9,0c0-0.7,0-1.4,0-2.1c0.7-0.5,1.2-0.7,1.9-1.2c0.5,0.2,0.9,0.5,1.4,0.7c0,0.5,0,0.7,0,1.2
			C435.1,561.8,434.8,562.1,434.3,562.6z"/>
		<path d="M525.9,645.3c-0.9-0.5-1.6-0.9-2.3-1.4c0.2-0.5,0.5-0.9,0.7-1.4c0.7,0,1.6,0,2.5,0c0.2,0.2,0.5,0.5,0.9,0.9
			c-0.2,0.2-0.5,0.7-0.7,0.9C526.3,644.6,526.1,645.1,525.9,645.3z"/>
		<path d="M533.7,645.8c-0.7,0.2-1.2,0.5-1.9,0.7c-0.5-0.7-0.7-1.4-0.9-1.9c0.7-0.7,1.2-1.2,1.6-1.6c0.5,0,0.9,0,1.4,0
			C533.7,643.9,533.7,644.6,533.7,645.8z"/>
		<path d="M517.1,649.9c0.5-0.9,0.7-1.4,0.9-2.1c0.7,0,1.2,0,1.9,0c0.2,0.2,0.7,0.7,1.2,1.2c-0.9,0.5-1.4,0.7-2.1,1.2
			c0,0.2,0.2,0.5,0.2,0.5C518.5,650.6,517.8,650.4,517.1,649.9z"/>
		<path d="M509.1,653.1c-0.5,0-0.7,0-1.2,0c0-0.2,0-0.2,0-0.5c0.5,0,0.7-0.2,1.2-0.2C508.9,652.9,508.9,653.1,509.1,653.1z"/>
	</g>
</g>
</svg>
