<?xml version="1.0" encoding="utf-8"?>
<!-- Generator: Adobe Illustrator 18.1.1, SVG Export Plug-In . SVG Version: 6.00 Build 0)  -->
<svg version="1.1" id="Layer_1" xmlns="http://www.w3.org/2000/svg" xmlns:xlink="http://www.w3.org/1999/xlink" x="0px" y="0px"
	 width="288px" height="200.9px" viewBox="0 0 288 200.9" enable-background="new 0 0 288 200.9" xml:space="preserve">
<g>
	<path fill="#FFFFFF" d="M152.6,74.3c-0.8-0.5-2,0-2,0s-3.6,1-7.7,5.4c-4.1,4.3-9.6,10.8-14.5,16.1c-1.7,1.9-4.7,4.5-6.6,6.3
		l0.5-1.3c0.7-1.5,1.4-2.9,2.1-4.4c2.4-5.3,4.9-10.6,7.3-15.9c0.7-1.5,0.9-3.4-0.7-4c-4.8-1.8-13.3,11.5-15.8,14l1.6-2.4
		C129,70.8,142.6,51.6,154.9,34c-2.7-0.1-5.8,3-6.9,4.5c-3.4,4.5-6.7,9.1-9.9,13.8c-1.5,2.2-3.1,2.8-6.4,1.9c-7.3-2-14.3-0.6-21.5,1
		c-12,2.6-23.6,7.1-34.8,12.1c-5.2,2.4-10.1,5.4-14.3,9.5c-3.1,3.1-2.6,7.4-0.5,9.9c1.4,1.7,6.7,5.4,6.7,5.4l18.7,11.9l13.1,9.1
		c7.5,5.9,24.1,19,27.9,23.5c3.9,4.9-0.8,9.6-3.3,10.8c-6.5,3.2-21,3.4-21,3.4c-1.3,0.1-17.3,0.6-23.4,0.6c-6.8,0-16.9-0.3-23.7-0.4
		c-13.2-0.2-21.5-1.2-34.4-3c-3.4-0.5-7-1.7-10.1-3c-3.4-1.5-4.7-4.1-1.9-6.7c2.8-2.6,6.3-3.7,9.8-4.6c5.1-1.4,10.4-2.5,15.6-3.6
		c1.5-0.3,4.2-0.7,6.1-0.9c-0.5-0.2-2,0-2.2,0c-7.2,0.4-14.4,1.2-21.3,3.3c-4.3,1.3-8.3,3-11.2,6.6c-1.7,2.1-2.1,4.4-0.7,5.9
		c1.3,1.3,3,2.4,4.6,3.1c8.2,3.5,16.5,4.6,25.4,5.6c2.1,0.2,4.3,0.4,6.5,0.5c7.4,0.4,14.9,0.9,22.3,1.1c6.7,0.2,13.4,0.3,20.1,0.3
		c4.7,0,9.4-0.3,14-0.4c2.6-0.1,17.6-1.4,18.9-1.6c5.3-0.8,10.6-1.9,14.9-5.5c1.2-1,5.2-5.2,1.3-11.5c-1.3-1.3-4.1-4.4-4.1-4.4
		c0,0-5.7-5.4-8.7-7.9c-4.1-3.5-8.2-6.9-12.4-10.2c-8.3-6.6-17.5-12.3-26.4-17.9c-4.8-3-9.5-5.8-14-9.3c-3.2-2.5-4.4-7.6,0.9-11
		c3.5-2.2,14.4-8,17.1-9.1c3.3-1.3,15.5-6.1,20.1-7.2c5.5-1.3,11.1-2.6,16.7-2.8c3-0.1,6.5,0,9.4,1c1.5,0.5,1.6,1,0.8,2.2
		c-3.6,5.4-8,11-11.6,16.4c-4.2,6.3-8.4,12.3-12.5,18.6c-2.4,3.6-3.9,7.2-6.2,10.9c-0.6,0.9-0.5,1.6-0.2,2c0.3,0.4,1.3,0.4,2,0.3
		c1.9-0.4,3.2-1.4,3.7-3.4c0.2-0.8,0.6-1.5,1.1-2.2c4.2-6.4,9.4-11.9,14.7-17.4c0.4-0.5,1.5-1.5,2-1.4c0.5,0-0.3,2.4-0.6,3.3
		c-1.4,3.4-2.9,6.7-4.4,10c-1.2,2.7-2.5,5.4-3.6,8.2c-0.7,1.7,0.4,2.7,2.1,2c1.3-0.5,2.4-1.4,3.6-2.2c0.6-0.4,1.1-0.9,2-1.7
		c-0.3,1.5-0.5,2.4-0.6,3.4c-0.2,2.2,0.6,3.1,2.7,2.6c1.5-0.3,3-1.2,4.4-2c1.3-0.8,2.3-1.9,3.5-2.9c0,1.7-0.5,3.2-0.7,4.7
		c-0.3,1.6,0.4,2.4,2,1.8c0.5-0.2,0.6-0.1,1.6-0.7c1.4-0.6,1.7-6.7,1.7-6.7s0.3-1.3,0.4-2.1c0.6-1.9,1.7-3.7,2.8-5.5
		c3.2-5.2,6.2-10.6,9.2-15.9c0.6-1,1.2-2.1,1.5-3.2C153.5,75.9,153.2,74.7,152.6,74.3z M129.2,105.3c-2.4-0.3-0.1-3.5,0.6-4.8
		c2.9-5.4,7.2-9.6,11.7-13.7c0.3-0.2,0.7-0.6,0.9-0.5C143.5,90.1,131.6,105.6,129.2,105.3z"/>
	<path fill="#FFFFFF" d="M248.7,147c-1-3.2-2.9-5.7-6.3-6.8c-4.5-1.4-9-1.5-13.5-0.5c-4.1,0.9-14.9,3-18.1,5
		c1.5-3.1,2.8-5.9,4.1-8.5c0.7-1.3,0.5-2.6-0.5-3.2c-0.7-0.5-2.3-0.7-3-0.3c-1.3,0.7-2.5,1.9-3.2,3.2c-1.2,2-1.7,4.5-3,6.5
		c-2,3.2-4.3,6.5-7.4,9.2c-15.1,13.5-8.9,1.6-4-4c3-3.4,5.5-7,8.4-10.5c1-1.3,0-2.1-0.5-3c-0.5-1-1.5-1-2.3-0.4
		c-1.6,1.3-7.1,8.1-8.4,10.1c-3.1,4.7-5.9,10-10.4,13.5c-0.9,0.7-9.3,5.1-0.1-6.4c1-1.2,2.1-2.3,3.1-3.5c2.8-3.4,5.6-6.7,8.4-10.2
		c0.4-0.5,0.7-1.5,0.4-1.9c-0.4-0.6-1.4-1.4-2-1.3c-1.2,0.2-2.5,0.8-3.4,1.6c-2,2-4,4.2-5.7,6.5c-3.4,4.8-6.9,9.6-11.8,13.1
		c-1.7,1.2-4.6,3.8-5.7,2.9c-1.2-4.7,10.6-16.2,15.8-21.8c1.5-1.6,2.9-3.2,4.1-5.1c0.4-0.7-0.1-3.7-2.3-2.8c-2.5,1.1-4.4,3.7-6,5.6
		c-2.6,3-5.7,5.8-8.5,9.6c0,0.1-5.7,8.3-6,11.6c0,0.1-1,1.8-1.8,3c0,0.1,0,0.1,0,0.2c0,1.2,2.1,3,2.6,3.5c5.2,0.6,7.2-3.5,11-5.5
		c-0.1,0.9-0.2,1.4-0.3,1.8c0,0.6-0.1,1.2-0.1,1.8c0,1.8,1.1,2.9,2.8,2.5c1-0.2,2-0.6,2.9-1.1c1.4-0.7,3.4-1.8,4.8-2.6
		c0,0,1.5,3.4,0.1,4.9c-5.2,5.3-8.4,9.1-11.4,13.5c-4.2,6.3-7.2,12-9.9,19.1c-1.3,3.2-0.2,5.2,3.2,4.5c4.4-1,21.2-17.5,27.3-25.1
		c5.4-6.7,10.9-16.2,13.6-24.1c0.8-2.3,5-3.7,5-3.7c5.1-2,17.1-5.1,22.6-4.7c7.3,0.5,10.3,3.4,9.9,11.6c-0.1,1.7-1.1,3.4-1.5,5.1
		c-0.1,0.5-0.1,1.4,0.2,1.6c0.8,0.6,5.4-1,5.8-2.1C249.4,155.3,249.9,151.2,248.7,147z M165.3,196.8c-0.9-0.2,0.3-2.7,0.9-3.7
		c2-4.1,4-8.2,6.3-12c2.6-4.3,5.5-8.5,8.5-12.6c1.8-2.4,3.9-4.6,7-5.8c3.2-1.2,5.9-3.7,8.8-5.6c1.2-0.8,2.2-1.7,3.3-2.6
		C198.5,163.8,171,195.1,165.3,196.8z"/>
	<path fill="#FFFFFF" d="M275.5,66.3c-3.5-2.2-7.1-3.5-11-4.2c-7.6-1.4-16.1,1.8-16.6,9.7c-0.2,3.9,2.3,7.2,5.8,6.8
		c2.1-0.3,2.4-1,1.1-2.8c-1.4-1.8-2.3-3.7-1.1-5.8c1.2-2.2,8.1-6.5,17.3-0.6c5,3.2,5.1,12-0.1,22.4c-2.3,4.7-8,11.4-12.3,15.4
		c-7.8,7.4-17.1,9.8-25.6,11.4c-2,0.4-12.8,0-9.9-9.4c1.3-4.2,14.9-21.2,13.2-23.6c-0.5-0.7-1.6-2.6-4.5-1.8
		c-2.6,0.7-4.1,2.6-5.9,4.5c-4,4-7.6,8.4-11.4,12.5c-1.3,1.4-4.8,5.2-6.5,6.9c-0.4,0.4-1.2,0-0.9-0.6c1.1-2.9,3.8-8.8,4.7-11
		c1.1-2.6,2.1-5.1,2.9-7.8c0.3-0.9-0.4-4.4-3.7-3.1c-5.4,2-9.2,6.2-12.6,10.8c-0.6,0.8-1.9,2.2-2.5,2.9c-0.3-0.5,0.4-1.6,0.5-1.9
		c1.7-3.2,3.4-6.5,5.3-9.6c1.6-2.6,3.6-5,5-7.7c2-4-1.6-3.7-2.4-3.4c-1,0.4-2.8,2.7-2.8,2.7s-1.4,2-2.2,2.7
		c-0.2-0.1,0.8-2.8,1.2-3.8c1.2-3.5,1.5-7.3,1.2-11c-0.3-3.9-1.2-6.5-4.5-8.4c-3-1.7-6.8-1.3-9.4,1.1c-2.3,2.1-3.4,4.7-3.4,7.7
		c0,1.6,0.9,2,2.2,1.6c0.7-0.2,1.4-0.7,1.8-1.2c0.8-1.1,2.1-3.7,2.1-3.7s0.6-1.2,1.1-1.3c0.2-0.1,0.4-0.2,0.7-0.2
		c6.4-0.4,3.5,17.3,3,19.1c-0.5,1.8-1.2,3.3-1.2,3.3c-0.4,0.8-0.8,1.5-1.2,2.3c-0.2,0.4-0.6,1-0.8,1.4c-0.6,1.1-2.3,3.9-2.3,3.9
		c-1.4,2.1-2.4,3.6-4.7,6c-5,5.1-9.3,8.8-15.6,11.9c-1.7,0.8-2.5,1.2-4.4,1.6c-2.4,0.5-4.8-1.2-5.4-3.6c-0.9-3.7-0.7-6.3,1.1-9.5
		c2-3.6,4.4-7.1,6.6-10.6c1.7-2.7,3.4-5.4,5-8.3c0.3-0.6,0.6-1.5-0.1-2.4c-0.2-0.3-1.6-0.6-1.6-0.6c-2-0.2-3.2,1.9-4,3.2
		c-2.4,3.8-4.7,7.8-6.6,11.9c-1.7,3.6-4,7-6.9,9.6c-1.3,1.2-2.8,2.6-4.1,2c-1.3-0.6-0.7-2-0.3-3.1c1.7-4.4,4.9-8,7.8-11.7
		c2.2-2.9,4.1-6,6-9.2c0.4-0.6,0.3-2.2-0.2-2.7c-0.5-0.5-2.2-0.6-2.8-0.2c-1.3,1-2.4,2.4-3.2,3.8c-3.9,6.2-7.7,12.4-11.6,18.6
		c0,0-1.5,2.3-1.7,3.9c-0.2,1.1,0.3,2.8,0.3,2.8c1.3,2.6,4,3.1,8.6,0.5c1-0.6,2.4-1.9,3.4-2.4c0.3,1.3,0.2,0.9,0.5,2.2
		c0,0.1,0.3,1.8,0.3,1.9c0.7,3.8,2.4,7.8,7.2,8.2c9.3-0.3,16.9-6.2,20.6-9.6c6.9-6.4,13.6-19.4,13.4-18.9c-0.3,0.7-0.5,1.3-0.7,1.9
		c-2,4.4-3.9,8.9-5.9,13.3c-1.9,4.1-4,8.2-6,12.3c-0.5,1-1.8,2-0.7,2.9c0.6,0.5,2.1,0.2,3.2-0.1c0.6-0.2,1.2-0.9,1.5-1.5
		c2.3-3.8,4.4-7.7,6.8-11.4c3.2-5,6.3-10.2,10.9-14.2c0.7-0.6,6-3.4,0.6,7c-6.4,12.3-6.3,15.5-6,15.8c1.4,1.8,4.7-0.4,6.1-0.9
		c1.3,3.2,3.5,3.3,5.8,2.2c2.2-1,3.9-2.6,6-3.8c0.4,1.3,0.8,2.5,1.2,3.7c1.5,4.8,5.6,7.3,10.2,7.1c5.1-0.2,9.9-1.4,14.6-3.2
		c18.2-7,30.6-20.4,35.8-38.6C281.6,75.8,280.8,69.6,275.5,66.3z M212.2,112.2c-0.9,0-1.5-1-1.4-1.7c0.1-2.2,5.6-7.3,8.8-10.9
		c1.7-1.9,5-5.7,7.6-5.5c0.7,0.1,1,0.9,0.8,1.5c-0.4,1.7-1.5,2.9-2.5,4.2c-1.7,2.1-3.3,4.1-5,6.2C218.4,108.2,215.5,112,212.2,112.2
		z"/>
	<path fill="#FFFFFF" d="M234.1,171.5c-0.3-0.2-1.7-0.6-1.7-1.3c0.4-1,0.7-1.3,1.2-1.7c0.8-0.5,1.7-1,2.6-1.2
		c1.1-0.3,1.8,0.2,2.2,1.3c0.4,1.3-0.5,1.6-1.3,1.9C236.3,170.8,235.4,171.2,234.1,171.5z"/>
	<path fill="#FFFFFF" d="M161.9,161.8c0.1-0.4,0-5.1-0.4-6.6c-0.1-0.1-3.2-2.9-8.6-3.3c-6.7-0.6-16.9,1.1-23.7,8.2
		c-1.5,1.6-1.6,5.1,1,6.7c1.4,0.9,4.1,1.5,7.6,1.5c1.8,0,10.2-1.2,11.1-2.8c0.2-0.4,0.5-1-0.1-0.9c-0.2,0-2.3,0.1-2.5,0.1
		c-1.4,0.1-6.9,0.2-8.1,0.2c-0.5,0-3.9-0.1-4.6-1.7c-0.5-1-0.1-1.9,0.5-2.8c3.5-5.4,20.6-8.3,23.4-3.5c4.1,7.1-5,17-5,17
		c-1.3,1.2-6.8,5.8-14.1,8.2c-0.6,0.2-20.5,6.1-26.7-1.9c-1.6-2-1.6-4.1-1.4-6.3c0.2-2.5,1.6-4.5,2.8-6.5c1.1-1.9,5.2-6.1,5.7-6.7
		c1.1-1,7.7-6.8,8.7-7.5c1.4-1,11.8-8,13.3-9c1-0.6,7-4.6,9.1-5.8c0.5-0.3,13.8-8.2,14.3-8.5c1.2-0.7,8.3-4.3,9.8-5.1
		c11.5-6.5,2.9,3.8,2.7,4.1c-0.1,0.1,6.7-2.4,7.9-5.1c0.6-1.3-2.7-9-13.5-2.1c-0.9,0.5-9.4,5.2-11,6.1c-2.2,1.2-12.2,7.4-13.5,8.3
		c-1.2,0.8-16.3,11.2-17.7,12.2c-1.5,1.1-4,2.1-5.5,3.2c-1.8,1.4-8.1,6.4-9.1,7.3c-6.9,6.2-8.7,12.6-7.8,18.2
		c2,12.9,16.8,11,16.8,11s10.7-0.5,18-3.5c3.6-1.5,11.2-6.1,15.9-12.1C157.4,171.9,160.9,167.1,161.9,161.8z"/>
</g>
</svg>
